SplineFontDB: 3.0
FontName: StickNoBills-Bold
FullName: Stick No Bills
FamilyName: Stick No Bills
Weight: Bold
Copyright: Copyright (c) 2013 STICK NO BILLS, Copyright (c) 2015 mooniak\n
UComments: "2015-2-15: Created with FontForge (http://fontforge.org) The  Free Font Editor"
Version: 1.0
ItalicAngle: 0
UnderlinePosition: -102
UnderlineWidth: 51
Ascent: 819
Descent: 205
InvalidEm: 0
UFOAscent: 819
UFODescent: -205
LayerCount: 3
Layer: 0 0 "Back" 1
Layer: 1 0 "Fore" 1
Layer: 2 0 "Back 2" 1
PreferredKerning: 4
FSType: 0
OS2Version: 0
OS2_WeightWidthSlopeOnly: 0
OS2_UseTypoMetrics: 0
CreationTime: 1429518268
ModificationTime: 1441632294
PfmFamily: 16
TTFWeight: 400
TTFWidth: 5
LineGap: 94
VLineGap: 0
OS2TypoAscent: 819
OS2TypoAOffset: 0
OS2TypoDescent: -205
OS2TypoDOffset: 0
OS2TypoLinegap: 94
OS2WinAscent: 918
OS2WinAOffset: 0
OS2WinDescent: 205
OS2WinDOffset: 0
HheadAscent: 918
HheadAOffset: 0
HheadDescent: -205
HheadDOffset: 0
OS2Vendor: 'PfEd'
OS2UnicodeRanges: 00000002.00000000.00000000.00000000
Lookup: 258 0 0 "'kern' Horizontal Kerning lookup 0" { "'kern' Horizontal Kerning lookup 0-1" [153,15,0] } ['kern' ('DFLT' <'dflt' > 'hani' <'dflt' > 'latn' <'dflt' > ) ]
MarkAttachClasses: 1
DEI: 91125
KernClass2: 7 7 "'kern' Horizontal Kerning lookup 0-1"
 7 uni0041
 31 uni0054 uni0059 uni0050 uni0046
 39 uni0066 uni0072 uni0076 uni0077 uni0079
 7 uni004C
 15 uni0057 uni0056
 0 
 31 uni0057 uni0056 uni0054 uni0059
 15 uni002E uni002C
 71 uni0061 uni0065 uni0073 uni006F uni0071 uni0064 uni0063 uni0067 uni0075
 7 uni0041
 23 uni0077 uni0076 uni0074
 15 uni003B uni003A
 0 {} 0 {} 0 {} 0 {} 0 {} 0 {} 0 {} 0 {} -70 {} 61 {} -23 {} 0 {} -68 {} 45 {} 0 {} 16 {} -80 {} -30 {} -100 {} -23 {} -63 {} 0 {} 0 {} -41 {} 0 {} 0 {} 0 {} 0 {} 0 {} -82 {} 0 {} 84 {} 0 {} -77 {} 62 {} 0 {} 0 {} -109 {} -55 {} -130 {} 0 {} -75 {} 0 {} 0 {} 0 {} 0 {} 0 {} 0 {} 0 {}

StartChar: uni0144
Encoding: 257 324 1
Width: 434
VWidth: 0
HStem: 580 152<208.5 262.5 171.5 335.5>
VStem: 171.5 164<580 732>
LayerCount: 3
Fore
SplineSet
262.5 580 m 257
 171.5 580 l 257
 208.5 732 l 257
 335.5 732 l 257
 262.5 580 l 257
EndSplineSet
EndChar

StartChar: uni0145
Encoding: 258 325 2
Width: 509
VWidth: 0
HStem: 0 21<32 32 32 173 32 32 32 173 410 410 410 477 410 410 410 477> 680 20<32 147 147 147 336 477 477 477>
VStem: 32 141<0 278 0 492> 336 141<498 700>
LayerCount: 3
Fore
SplineSet
299.5 -213 m 257
 172.5 -213 l 257
 209.5 -61 l 257
 336.5 -61 l 257
 299.5 -213 l 257
32 0 m 257xb8
 32 492 l 257
 40 492 l 257
 173 278 l 257
 173 0 l 257
 32 0 l 257xb8
477 700 m 257
 477 284 l 257
 469 284 l 257
 336 498 l 257
 336 700 l 257
 477 700 l 257
32 700 m 257
 147 700 l 257
 477 168 l 257
 477 0 l 257
 410 0 l 257
 32 608 l 257
 32 700 l 257
EndSplineSet
Validated: 1
EndChar

StartChar: uni0146
Encoding: 259 326 3
Width: 434
VWidth: 0
LayerCount: 3
Fore
SplineSet
262 -213 m 257
 135 -213 l 257
 172 -61 l 257
 299 -61 l 257
 262 -213 l 257
EndSplineSet
EndChar

StartChar: uni0147
Encoding: 260 327 4
Width: 509
VWidth: 0
HStem: 0 21<32 32 32 173 32 32 32 173 410 410 410 477 410 410 410 477> 680 20<32 147 147 147 336 477 477 477> 766 152<220.5 226.5 281.5 286.5 220.5 220.5>
VStem: 32 141<0 278 0 492> 145.5 218<918 918> 336 141<498 700>
LayerCount: 3
Fore
SplineSet
145.5 918 m 257
 226.5 918 l 257
 253.5 861 l 257
 281.5 918 l 257
 363.5 918 l 257
 286.5 766 l 257
 220.5 766 l 257
 145.5 918 l 257
32 0 m 257xb8
 32 492 l 257
 40 492 l 257
 173 278 l 257
 173 0 l 257
 32 0 l 257xb8
477 700 m 257
 477 284 l 257
 469 284 l 257
 336 498 l 257
 336 700 l 257
 477 700 l 257
32 700 m 257
 147 700 l 257
 477 168 l 257
 477 0 l 257
 410 0 l 257
 32 608 l 257
 32 700 l 257
EndSplineSet
Validated: 1
EndChar

StartChar: uni0148
Encoding: 261 328 5
Width: 434
VWidth: 0
HStem: 580 152<183 189 244 249 183 183>
VStem: 108 218<732 732>
LayerCount: 3
Fore
SplineSet
108 732 m 257
 189 732 l 257
 216 675 l 257
 244 732 l 257
 326 732 l 257
 249 580 l 257
 183 580 l 257
 108 732 l 257
EndSplineSet
EndChar

StartChar: uni014C
Encoding: 262 332 6
Width: 508
VWidth: 0
HStem: -5 142<223.5 226 223.5 226 281 283.5 223.5 311> 564 141<161 227 161 281> 766 107
VStem: 30 141<195 508> 337 141<195 508 508 510.5>
LayerCount: 3
Fore
SplineSet
479 766 m 257
 29 766 l 257
 29 873 l 257
 479 873 l 257
 479 766 l 257
226 -5 m 257
 166 -5 30 51 30 195 c 258
 30 524 l 258
 30 584 95 705 227 705 c 257
 227 564 l 257
 181 563 171 513 171 508 c 258
 171 195 l 258
 171 149 221 137 226 137 c 257
 226 -5 l 257
281 -5 m 257
 281 137 l 257
 286 137 336 149 337 195 c 258
 337 508 l 258
 337 513 327 563 281 564 c 257
 281 705 l 257
 412 705 478 583 478 524 c 258
 478 195 l 258
 478 51 341 -5 281 -5 c 257
EndSplineSet
Validated: 1
EndChar

StartChar: uni0154
Encoding: 263 340 7
Width: 495
VWidth: 0
HStem: 0 21<32 173 32 32 32 173 32 32 343 469 343 343 343 469 343 343> 286 125<227 240> 567 133<227 240 32 227> 766 152<121 175 84 248>
VStem: 32 141<0 700 0 700> 84 164<766 918> 326 127<467.5 512>
LayerCount: 3
Fore
SplineSet
175 766 m 257
 84 766 l 257
 121 918 l 257
 248 918 l 257
 175 766 l 257
227 411 m 257xbc
 240 411 l 258
 300 411 326 447 326 488 c 256
 326 536 289 567 240 567 c 258
 227 567 l 257
 227 700 l 257
 377 700 453 616 453 496 c 256
 453 428 432 381 386 352 c 257
 422 325 448 266 452 217 c 258
 469 0 l 257
 343 0 l 257
 328 178 l 258
 321 257 298 285 227 286 c 257
 227 411 l 257xbc
32 700 m 257
 173 700 l 257
 173 0 l 257
 32 0 l 257
 32 700 l 257
EndSplineSet
Validated: 1
EndChar

StartChar: uni0155
Encoding: 264 341 8
Width: 316
VWidth: 0
HStem: 0 21G<36 160> 395 121<221.776 289> 577 152<168 222 131 295>
VStem: 36 124<0 333.833 454 516> 131 164<577 729>
LayerCount: 3
Fore
SplineSet
36 516 m 257
 160 516 l 257
 160 454 l 257
 181 481 229 516 284 516 c 258
 317 516 l 257
 289 395 l 257
 222 394 160 331 160 271 c 258
 160 0 l 257
 36 0 l 257
 36 516 l 257
222 577 m 257
 131 577 l 257
 168 729 l 257
 295 729 l 257
 222 577 l 257
EndSplineSet
Validated: 1
EndChar

StartChar: uni0156
Encoding: 265 342 9
Width: 495
VWidth: 0
HStem: 0 21<32 173 32 32 32 173 32 32 343 469 343 343 343 469 343 343> 286 125<227 240> 567 133<227 240 32 227>
VStem: 32 141<0 700 0 700> 326 127<467.5 512>
LayerCount: 3
Fore
SplineSet
295.5 -213 m 257
 168.5 -213 l 257
 205.5 -61 l 257
 332.5 -61 l 257
 295.5 -213 l 257
227 411 m 257xbc
 240 411 l 258
 300 411 326 447 326 488 c 256
 326 536 289 567 240 567 c 258
 227 567 l 257
 227 700 l 257
 377 700 453 616 453 496 c 256
 453 428 432 381 386 352 c 257
 422 325 448 266 452 217 c 258
 469 0 l 257
 343 0 l 257
 328 178 l 258
 321 257 298 285 227 286 c 257
 227 411 l 257xbc
32 700 m 257
 173 700 l 257
 173 0 l 257
 32 0 l 257
 32 700 l 257
EndSplineSet
Validated: 1
EndChar

StartChar: uni0157
Encoding: 266 343 10
Width: 316
VWidth: 0
HStem: 0 21G<36 160> 395 121<221.776 289>
VStem: 36 124<0 333.833 454 516>
LayerCount: 3
Fore
SplineSet
36 516 m 257
 160 516 l 257
 160 454 l 257
 181 481 229 516 284 516 c 258
 317 516 l 257
 289 395 l 257
 222 394 160 331 160 271 c 258
 160 0 l 257
 36 0 l 257
 36 516 l 257
143 -213 m 257
 16 -213 l 257
 53 -61 l 257
 180 -61 l 257
 143 -213 l 257
EndSplineSet
Validated: 1
EndChar

StartChar: uni0158
Encoding: 267 344 11
Width: 495
VWidth: 0
HStem: 0 21<32 173 32 32 32 173 32 32 343 469 343 343 343 469 343 343> 286 125<227 240> 567 133<227 240 32 227> 766 152<95.5 101.5 156.5 161.5 95.5 95.5>
VStem: 20.5 218<918 918> 32 141<0 700 0 700> 326 127<467.5 512>
LayerCount: 3
Fore
SplineSet
20.5 918 m 257
 101.5 918 l 257
 128.5 861 l 257
 156.5 918 l 257
 238.5 918 l 257
 161.5 766 l 257
 95.5 766 l 257
 20.5 918 l 257
227 411 m 257xbc
 240 411 l 258
 300 411 326 447 326 488 c 256
 326 536 289 567 240 567 c 258
 227 567 l 257
 227 700 l 257
 377 700 453 616 453 496 c 256
 453 428 432 381 386 352 c 257
 422 325 448 266 452 217 c 258
 469 0 l 257
 343 0 l 257
 328 178 l 258
 321 257 298 285 227 286 c 257
 227 411 l 257xbc
32 700 m 257
 173 700 l 257
 173 0 l 257
 32 0 l 257
 32 700 l 257
EndSplineSet
Validated: 1
EndChar

StartChar: uni0159
Encoding: 268 345 12
Width: 316
VWidth: 0
HStem: 0 21G<36 160> 395 121<221.776 289> 577 152<142.5 148.5 203.5 208.5 142.5 142.5>
VStem: 36 124<0 333.833 454 516> 67.5 218<729 729>
LayerCount: 3
Fore
SplineSet
36 516 m 257
 160 516 l 257
 160 454 l 257
 181 481 229 516 284 516 c 258
 317 516 l 257
 289 395 l 257
 222 394 160 331 160 271 c 258
 160 0 l 257
 36 0 l 257
 36 516 l 257
67.5 729 m 257
 148.5 729 l 257
 175.5 672 l 257
 203.5 729 l 257
 285.5 729 l 257
 208.5 577 l 257
 142.5 577 l 257
 67.5 729 l 257
EndSplineSet
Validated: 1
EndChar

StartChar: uni015A
Encoding: 269 346 13
Width: 497
VWidth: 0
HStem: 680 20<216 216 271 324> 766 152<235 289 198 362>
VStem: 41 134<479.5 525 479.5 577.5> 198 164<766 918> 333 141<176.5 240.5>
LayerCount: 3
Fore
SplineSet
289 766 m 257
 198 766 l 257
 235 918 l 257
 362 918 l 257
 289 766 l 257
216 700 m 257
 216 568 l 257
 195 562 175 537 175 513 c 256
 175 446 279 434 346 394 c 256
 407 358 474 311 474 209 c 256
 474 96 379 -3 271 -3 c 257
 271 127 l 257
 295 130 333 150 333 203 c 256
 333 278 224 294 164 323 c 256
 93 357 41 403 41 508 c 256
 41 647 165 699 216 700 c 257
271 700 m 257
 377 700 440 589 446 553 c 257
 316 510 l 257
 311 557 271 568 271 568 c 257
 271 700 l 257
216 -3 m 257
 107 -3 34 103 33 158 c 257
 160 203 l 257
 162 147 216 127 216 127 c 257
 216 -3 l 257
EndSplineSet
Validated: 1
EndChar

StartChar: uni015B
Encoding: 270 347 14
Width: 418
VWidth: 0
HStem: 404 113<224 226 179 223> 578 152<194.5 248.5 157.5 321.5>
VStem: 26 112<353 369.5 353 422> 157.5 164<578 730> 280 117<136.5 175.5>
LayerCount: 3
Fore
SplineSet
22 134 m 256
 21 136 l 257
 133 157 l 257
 133 154 l 258
 135 135 157 113 181 111 c 256
 184 110 l 257
 184 -5 l 257
 181 -5 l 258
 87 -5 25 70 22 134 c 256
388 376 m 258
 388 374 l 257
 276 355 l 257
 276 358 l 256
 272 399 234 404 226 404 c 258
 223 404 l 257
 224 517 l 257
 227 517 l 258
 321 517 388 440 388 376 c 258
182 406 m 257
 180 406 l 256
 140 402 138 377 138 362 c 256
 138 344 153 323 294 296 c 256
 346 286 397 243 397 160 c 256
 397 57 321 -5 228 -5 c 258
 225 -5 l 257
 225 109 l 257
 228 109 l 258
 243 110 280 120 280 153 c 256
 280 198 168 206 111 232 c 256
 62 256 26 287 26 371 c 256
 26 473 125 517 179 517 c 258
 182 517 l 257
 182 406 l 257
248.5 578 m 257
 157.5 578 l 257
 194.5 730 l 257
 321.5 730 l 257
 248.5 578 l 257
EndSplineSet
Validated: 1
EndChar

StartChar: uni015E
Encoding: 271 350 15
Width: 497
VWidth: 0
HStem: -156.7 91<121.5 139.5 121.5 185> 680 20<216 216 271 324>
VStem: 41 134<479.5 525 479.5 577.5> 197.5 92<-25.2 2.3> 333 141<176.5 240.5>
LayerCount: 3
Fore
SplineSet
197.5 2.2998046875 m 257
 289.5 2.2998046875 l 257
 289.5 -73.7001953125 248.5 -156.700195312 121.5 -156.700195312 c 257
 121.5 -65.7001953125 l 257
 157.5 -65.7001953125 197.5 -52.7001953125 197.5 2.2998046875 c 257
216 700 m 257
 216 568 l 257
 195 562 175 537 175 513 c 256
 175 446 279 434 346 394 c 256
 407 358 474 311 474 209 c 256
 474 96 379 -3 271 -3 c 257
 271 127 l 257
 295 130 333 150 333 203 c 256
 333 278 224 294 164 323 c 256
 93 357 41 403 41 508 c 256
 41 647 165 699 216 700 c 257
271 700 m 257
 377 700 440 589 446 553 c 257
 316 510 l 257
 311 557 271 568 271 568 c 257
 271 700 l 257
216 -3 m 257
 107 -3 34 103 33 158 c 257
 160 203 l 257
 162 147 216 127 216 127 c 257
 216 -3 l 257
EndSplineSet
Validated: 5
EndChar

StartChar: uni014D
Encoding: 273 333 16
Width: 420
VWidth: 0
HStem: -1 118<132 192 186 192 186 233 233 239> 398 118<169.5 192 186 192 233 239 186 233> 577 107
VStem: 28 120<144.5 154 154 363> 275 117<152 363 363 371.5>
LayerCount: 3
Fore
SplineSet
28 376 m 258
 28 421 79 516 186 516 c 258
 192 516 l 257
 192 398 l 257
 186 398 l 258
 153 398 148 373 148 363 c 257
 148 154 l 257
 148 135 156 117 186 117 c 258
 192 117 l 257
 192 -1 l 257
 186 -1 l 258
 78 -1 28 97 28 141 c 258
 28 376 l 258
233 398 m 257
 233 516 l 257
 239 516 l 258
 342 516 392 421 392 376 c 258
 392 141 l 258
 392 96 343 -1 239 -1 c 258
 233 -1 l 257
 233 117 l 257
 239 117 l 258
 270 118 275 141 275 152 c 257
 275 363 l 257
 275 380 269 398 239 398 c 258
 233 398 l 257
437.5 577 m 257
 -12.5 577 l 257
 -12.5 684 l 257
 437.5 684 l 257
 437.5 577 l 257
EndSplineSet
Validated: 1
EndChar

StartChar: uni0150
Encoding: 274 336 17
Width: 508
VWidth: 0
HStem: -5 142<223.5 226 223.5 226 281 283.5 223.5 311> 564 141<161 227 161 281> 766 152<170 224 141 282 170 284 313 367>
VStem: 30 141<195 508> 141 284<766 918> 337 141<195 508 508 510.5>
LayerCount: 3
Fore
SplineSet
224 766 m 257
 141 766 l 257
 170 918 l 257
 282 918 l 257
 224 766 l 257
367 766 m 257
 284 766 l 257
 313 918 l 257
 425 918 l 257
 367 766 l 257
226 -5 m 257
 166 -5 30 51 30 195 c 258
 30 524 l 258
 30 584 95 705 227 705 c 257
 227 564 l 257
 181 563 171 513 171 508 c 258
 171 195 l 258
 171 149 221 137 226 137 c 257
 226 -5 l 257
281 -5 m 257
 281 137 l 257
 286 137 336 149 337 195 c 258
 337 508 l 258
 337 513 327 563 281 564 c 257
 281 705 l 257
 412 705 478 583 478 524 c 258
 478 195 l 258
 478 51 341 -5 281 -5 c 257
EndSplineSet
Validated: 1
EndChar

StartChar: uni0151
Encoding: 275 337 18
Width: 420
VWidth: 0
HStem: -1 118<132 192 186 192 186 233 233 239> 398 118<169.5 192 186 192 233 239 186 233> 577 152<128.5 182.5 99.5 240.5 128.5 242.5 271.5 325.5>
VStem: 28 120<144.5 154 154 363> 99.5 284<577 729> 275 117<152 363 363 371.5>
LayerCount: 3
Fore
SplineSet
28 376 m 258
 28 421 79 516 186 516 c 258
 192 516 l 257
 192 398 l 257
 186 398 l 258
 153 398 148 373 148 363 c 257
 148 154 l 257
 148 135 156 117 186 117 c 258
 192 117 l 257
 192 -1 l 257
 186 -1 l 258
 78 -1 28 97 28 141 c 258
 28 376 l 258
233 398 m 257
 233 516 l 257
 239 516 l 258
 342 516 392 421 392 376 c 258
 392 141 l 258
 392 96 343 -1 239 -1 c 258
 233 -1 l 257
 233 117 l 257
 239 117 l 258
 270 118 275 141 275 152 c 257
 275 363 l 257
 275 380 269 398 239 398 c 258
 233 398 l 257
182.5 577 m 257
 99.5 577 l 257
 128.5 729 l 257
 240.5 729 l 257
 182.5 577 l 257
325.5 577 m 257
 242.5 577 l 257
 271.5 729 l 257
 383.5 729 l 257
 325.5 577 l 257
EndSplineSet
Validated: 1
EndChar

StartChar: uni0162
Encoding: 276 354 19
Width: 485
VWidth: 0
HStem: -198.7 91<120.5 138.5 120.5 184> 0 21<172 313 172 172 172 313 172 172> 562 138<26 172 26 459 313 459 313 313>
VStem: 172 141<0 562 0 562> 196.5 92<-67.2 -39.7>
LayerCount: 3
Fore
SplineSet
196.5 -39.7001953125 m 257
 288.5 -39.7001953125 l 257
 288.5 -115.700195312 247.5 -198.700195312 120.5 -198.700195312 c 257
 120.5 -107.700195312 l 257
 156.5 -107.700195312 196.5 -94.7001953125 196.5 -39.7001953125 c 257
459 700 m 257xb0
 459 562 l 257
 313 562 l 257
 313 0 l 257
 172 0 l 257
 172 562 l 257
 26 562 l 257
 26 700 l 257
 459 700 l 257xb0
EndSplineSet
Colour: ffff00
EndChar

StartChar: uni0163
Encoding: 277 355 20
Width: 324
VWidth: 0
HStem: -198.7 91<148.5 166.5 148.5 212> 0 125<244 271 244 298 243 271> 398 118<26 89 26 89 211 271> 680 20<89 211 211 211>
VStem: 89 122<168 398 516 700> 224.5 92<-67.2 -39.7>
LayerCount: 3
Fore
SplineSet
244 125 m 258
 271 125 l 257
 298 0 l 257
 243 0 l 258
 121 1 89 66 89 168 c 258
 89 398 l 257
 26 398 l 257
 26 516 l 257
 89 516 l 257
 89 700 l 257
 211 700 l 257
 211 516 l 257
 271 516 l 257
 271 398 l 257
 211 398 l 257
 211 159 l 258
 211 145 216 126 244 125 c 258
224.5 -39.7001953125 m 257
 316.5 -39.7001953125 l 257
 316.5 -115.700195312 275.5 -198.700195312 148.5 -198.700195312 c 257
 148.5 -107.700195312 l 257
 184.5 -107.700195312 224.5 -94.7001953125 224.5 -39.7001953125 c 257
EndSplineSet
Colour: ffff00
EndChar

StartChar: uni0164
Encoding: 278 356 21
Width: 485
VWidth: 0
HStem: 0 21<172 313 172 172 172 313 172 172> 562 138<26 172 26 459 313 459 313 313> 766 152<208.5 214.5 269.5 274.5 208.5 208.5>
VStem: 133.5 218<918 918> 172 141<0 562 0 562>
LayerCount: 3
Fore
SplineSet
133.5 918 m 257
 214.5 918 l 257
 241.5 861 l 257
 269.5 918 l 257
 351.5 918 l 257
 274.5 766 l 257
 208.5 766 l 257
 133.5 918 l 257
459 700 m 257xb0
 459 562 l 257
 313 562 l 257
 313 0 l 257
 172 0 l 257
 172 562 l 257
 26 562 l 257
 26 700 l 257
 459 700 l 257xb0
EndSplineSet
Validated: 1
EndChar

StartChar: uni016A
Encoding: 279 362 22
Width: 512
VWidth: 0
HStem: -5 142<226.5 229 226.5 229 283 285.5 226.5 313.5> 680 20<32 173 173 173 339 479 479 479> 766 107
VStem: 32 141<193 700 193 700> 339 140<193 700>
LayerCount: 3
Fore
SplineSet
480.5 766 m 257
 30.5 766 l 257
 30.5 873 l 257
 480.5 873 l 257
 480.5 766 l 257
229 -5 m 257
 169 -5 32 49 32 193 c 258
 32 700 l 257
 173 700 l 257
 173 193 l 257
 174 147 224 137 229 137 c 257
 229 -5 l 257
283 -5 m 257
 283 137 l 257
 288 137 338 147 339 193 c 257
 339 700 l 257
 479 700 l 257
 479 193 l 258
 479 48 344 -5 283 -5 c 257
EndSplineSet
Validated: 1
EndChar

StartChar: uni016B
Encoding: 280 363 23
Width: 434
VWidth: 0
HStem: 577 107
LayerCount: 3
Fore
SplineSet
442 577 m 257
 -8 577 l 257
 -8 684 l 257
 442 684 l 257
 442 577 l 257
EndSplineSet
EndChar

StartChar: uni016E
Encoding: 281 366 24
Width: 512
VWidth: 0
HStem: -5 142<226.5 229 226.5 229 283 285.5 226.5 313.5> 680 20<32 173 173 173 339 479 479 479> 766 64<246.5 264.5 246.5 282> 894 64<246.5 264.5>
VStem: 32 141<193 700 193 700> 159.5 64<853 871 853 888.5> 287.5 64<853 871> 339 140<193 700>
LayerCount: 3
Fore
SplineSet
223.5 862 m 256
 223.5 844 237.5 830 255.5 830 c 256
 273.5 830 287.5 844 287.5 862 c 256
 287.5 880 273.5 894 255.5 894 c 256
 237.5 894 223.5 880 223.5 862 c 256
159.5 862 m 256
 159.5 915 202.5 958 255.5 958 c 256
 308.5 958 351.5 915 351.5 862 c 256
 351.5 809 308.5 766 255.5 766 c 256
 202.5 766 159.5 809 159.5 862 c 256
229 -5 m 257
 169 -5 32 49 32 193 c 258
 32 700 l 257
 173 700 l 257
 173 193 l 257
 174 147 224 137 229 137 c 257
 229 -5 l 257
283 -5 m 257
 283 137 l 257
 288 137 338 147 339 193 c 257
 339 700 l 257
 479 700 l 257
 479 193 l 258
 479 48 344 -5 283 -5 c 257
EndSplineSet
Validated: 1
EndChar

StartChar: uni016F
Encoding: 282 367 25
Width: 434
VWidth: 0
HStem: 577 64<208 226 208 243.5> 705 64<208 226>
VStem: 121 64<664 682 664 699.5> 249 64<664 682>
LayerCount: 3
Fore
SplineSet
185 673 m 256
 185 655 199 641 217 641 c 256
 235 641 249 655 249 673 c 256
 249 691 235 705 217 705 c 256
 199 705 185 691 185 673 c 256
121 673 m 256
 121 726 164 769 217 769 c 256
 270 769 313 726 313 673 c 256
 313 620 270 577 217 577 c 256
 164 577 121 620 121 673 c 256
EndSplineSet
EndChar

StartChar: uni0170
Encoding: 283 368 26
Width: 512
VWidth: 0
HStem: -5 142<226.5 229 226.5 229 283 285.5 226.5 313.5> 680 20<32 173 173 173 339 479 479 479> 766 152<171.5 225.5 142.5 283.5 171.5 285.5 314.5 368.5>
VStem: 32 141<193 700 193 700> 142.5 284<766 918> 339 140<193 700>
LayerCount: 3
Fore
SplineSet
225.5 766 m 257
 142.5 766 l 257
 171.5 918 l 257
 283.5 918 l 257
 225.5 766 l 257
368.5 766 m 257
 285.5 766 l 257
 314.5 918 l 257
 426.5 918 l 257
 368.5 766 l 257
229 -5 m 257
 169 -5 32 49 32 193 c 258
 32 700 l 257
 173 700 l 257
 173 193 l 257
 174 147 224 137 229 137 c 257
 229 -5 l 257
283 -5 m 257
 283 137 l 257
 288 137 338 147 339 193 c 257
 339 700 l 257
 479 700 l 257
 479 193 l 258
 479 48 344 -5 283 -5 c 257
EndSplineSet
Validated: 1
EndChar

StartChar: uni0171
Encoding: 284 369 27
Width: 434
VWidth: 0
HStem: 577 152<133 187 104 245 133 247 276 330>
VStem: 104 284<577 729>
LayerCount: 3
Fore
SplineSet
187 577 m 257
 104 577 l 257
 133 729 l 257
 245 729 l 257
 187 577 l 257
330 577 m 257
 247 577 l 257
 276 729 l 257
 388 729 l 257
 330 577 l 257
EndSplineSet
EndChar

StartChar: uni017A
Encoding: 285 378 28
Width: 348
VWidth: 0
HStem: 0 118<169 169 169 322> 394 120<26 183 26 322> 577 152<165.5 219.5 128.5 292.5>
VStem: 26 296<0 116 116 116 400 514> 128.5 164<577 729>
LayerCount: 3
Fore
SplineSet
322 400 m 257
 169 118 l 257
 322 117 l 257
 322 0 l 257
 26 0 l 257
 26 116 l 257
 183 394 l 257
 26 394 l 257
 26 514 l 257
 322 514 l 257
 322 400 l 257
219.5 577 m 257
 128.5 577 l 257
 165.5 729 l 257
 292.5 729 l 257
 219.5 577 l 257
EndSplineSet
Validated: 1
EndChar

StartChar: uni017B
Encoding: 286 379 29
Width: 418
VWidth: 0
HStem: 0 144<182 392 182 392> 560 140<26 236 26 392> 766 151<188 230>
VStem: 26 366<0 141 141 141 563 700> 134 150<820 862>
LayerCount: 3
Fore
SplineSet
134 841 m 256
 134 883 167 917 209 917 c 256
 251 917 284 883 284 841 c 256
 284 799 251 766 209 766 c 256
 167 766 134 799 134 841 c 256
182 144 m 257
 392 144 l 257
 392 0 l 257
 26 0 l 257
 26 141 l 257
 236 560 l 257
 26 560 l 257
 26 700 l 257
 392 700 l 257
 392 563 l 257
 182 144 l 257
EndSplineSet
Validated: 1
EndChar

StartChar: uni017C
Encoding: 287 380 30
Width: 348
VWidth: 0
HStem: 0 118<169 169 169 322> 394 120<26 183 26 322> 577 151<153 195>
VStem: 26 296<0 116 116 116 400 514> 99 150<631 673>
LayerCount: 3
Fore
SplineSet
322 400 m 257
 169 118 l 257
 322 117 l 257
 322 0 l 257
 26 0 l 257
 26 116 l 257
 183 394 l 257
 26 394 l 257
 26 514 l 257
 322 514 l 257
 322 400 l 257
99 652 m 256
 99 694 132 728 174 728 c 256
 216 728 249 694 249 652 c 256
 249 610 216 577 174 577 c 256
 132 577 99 610 99 652 c 256
EndSplineSet
Validated: 1
EndChar

StartChar: uni0218
Encoding: 288 536 31
Width: 497
VWidth: 0
HStem: 680 20<216 216 271 324>
VStem: 41 134<479.5 525 479.5 577.5> 333 141<176.5 240.5>
LayerCount: 3
Fore
SplineSet
288.5 -216 m 257
 161.5 -216 l 257
 198.5 -64 l 257
 325.5 -64 l 257
 288.5 -216 l 257
216 700 m 257
 216 568 l 257
 195 562 175 537 175 513 c 256
 175 446 279 434 346 394 c 256
 407 358 474 311 474 209 c 256
 474 96 379 -3 271 -3 c 257
 271 127 l 257
 295 130 333 150 333 203 c 256
 333 278 224 294 164 323 c 256
 93 357 41 403 41 508 c 256
 41 647 165 699 216 700 c 257
271 700 m 257
 377 700 440 589 446 553 c 257
 316 510 l 257
 311 557 271 568 271 568 c 257
 271 700 l 257
216 -3 m 257
 107 -3 34 103 33 158 c 257
 160 203 l 257
 162 147 216 127 216 127 c 257
 216 -3 l 257
EndSplineSet
Validated: 1
EndChar

StartChar: uni0219
Encoding: 289 537 32
Width: 418
VWidth: 0
HStem: 404 113<224 226 179 223>
VStem: 26 112<353 369.5 353 422> 280 117<136.5 175.5>
LayerCount: 3
Fore
SplineSet
22 134 m 256
 21 136 l 257
 133 157 l 257
 133 154 l 258
 135 135 157 113 181 111 c 256
 184 110 l 257
 184 -5 l 257
 181 -5 l 258
 87 -5 25 70 22 134 c 256
388 376 m 258
 388 374 l 257
 276 355 l 257
 276 358 l 256
 272 399 234 404 226 404 c 258
 223 404 l 257
 224 517 l 257
 227 517 l 258
 321 517 388 440 388 376 c 258
182 406 m 257
 180 406 l 256
 140 402 138 377 138 362 c 256
 138 344 153 323 294 296 c 256
 346 286 397 243 397 160 c 256
 397 57 321 -5 228 -5 c 258
 225 -5 l 257
 225 109 l 257
 228 109 l 258
 243 110 280 120 280 153 c 256
 280 198 168 206 111 232 c 256
 62 256 26 287 26 371 c 256
 26 473 125 517 179 517 c 258
 182 517 l 257
 182 406 l 257
249.5 -218 m 257
 122.5 -218 l 257
 159.5 -66 l 257
 286.5 -66 l 257
 249.5 -218 l 257
EndSplineSet
Validated: 1
EndChar

StartChar: uni021A
Encoding: 290 538 33
Width: 485
VWidth: 0
HStem: 0 21<172 313 172 172 172 313 172 172> 562 138<26 172 26 459 313 459 313 313>
VStem: 172 141<0 562 0 562>
LayerCount: 3
Fore
SplineSet
287.5 -213 m 257
 160.5 -213 l 257
 197.5 -61 l 257
 324.5 -61 l 257
 287.5 -213 l 257
459 700 m 257xb0
 459 562 l 257
 313 562 l 257
 313 0 l 257
 172 0 l 257
 172 562 l 257
 26 562 l 257
 26 700 l 257
 459 700 l 257xb0
EndSplineSet
Validated: 1
EndChar

StartChar: uni0106
Encoding: 291 262 34
Width: 494
VWidth: 0
HStem: 685 20<157.5 229 283 329> 766 152<247.5 301.5 210.5 374.5>
VStem: 32 141<181 518> 210.5 164<766 918> 330 138<129 215 129 215>
LayerCount: 3
Fore
SplineSet
301.5 766 m 257
 210.5 766 l 257
 247.5 918 l 257
 374.5 918 l 257
 301.5 766 l 257
283 564 m 257
 283 705 l 257
 375 705 468 612 468 516 c 257
 330 480 l 257
 330 495 l 258
 330 509 330 520 325 532 c 256
 315 555 283 564 283 564 c 257
283 136 m 257
 283 136 315 143 325 166 c 256
 330 178 330 189 330 203 c 258
 330 215 l 257
 468 182 l 257
 468 76 375 -5 283 -5 c 257
 283 136 l 257
229 705 m 257
 229 564 l 257
 183 563 173 523 173 518 c 257
 173 181 l 257
 173 176 183 136 229 136 c 257
 229 -5 l 257
 86 -5 32 121 32 181 c 257
 32 518 l 257
 32 578 86 705 229 705 c 257
EndSplineSet
EndChar

StartChar: uni0107
Encoding: 292 263 35
Width: 418
VWidth: 0
HStem: -1 117<243 249 243 249 249 250> 496 20<185 191 191 191 233 239 239 275.5> 577 152<203.5 257.5 166.5 330.5>
VStem: 30 119<141 375> 166.5 164<577 729>
LayerCount: 3
Fore
SplineSet
266 383 m 257
 261 397 239 399 239 399 c 258
 238 399 237 399 236 399 c 258
 233 399 l 257
 233 516 l 257
 239 516 l 258
 312 516 381 448 381 376 c 258
 381 372 l 257
 270 330 l 257
 270 360 l 258
 270 370 270 375 266 383 c 257
243 -1 m 257
 243 116 l 257
 249 116 l 257
 251 116 272 119 277 132 c 257
 281 140 281 146 281 156 c 258
 281 186 l 257
 392 144 l 257
 392 140 l 258
 392 68 323 -1 250 -1 c 258
 243 -1 l 257
30 377 m 257
 31 421 80 516 185 516 c 258
 191 516 l 257
 191 400 l 257
 185 400 l 258
 154 400 149 377 149 375 c 258
 149 141 l 258
 149 139 154 115 194 115 c 256
 199 114 l 257
 199 0 l 257
 194 0 l 258
 79 0 30 97 30 141 c 258
 30 377 l 257
257.5 577 m 257
 166.5 577 l 257
 203.5 729 l 257
 330.5 729 l 257
 257.5 577 l 257
EndSplineSet
EndChar

StartChar: uni010C
Encoding: 293 268 36
Width: 494
VWidth: 0
Flags: M
HStem: 685 20<157.5 229 283 329> 766 152<222 228 283 288 222 222>
VStem: 32 141<181 518> 147 218<918 918> 330 138<129 215 129 215>
LayerCount: 3
Fore
SplineSet
147 918 m 257
 228 918 l 257
 255 861 l 257
 283 918 l 257
 365 918 l 257
 288 766 l 257
 222 766 l 257
 147 918 l 257
283 564 m 257
 283 705 l 257
 375 705 468 612 468 516 c 257
 330 480 l 257
 330 495 l 258
 330 509 330 520 325 532 c 256
 315 555 283 564 283 564 c 257
283 136 m 257
 283 136 315 143 325 166 c 256
 330 178 330 189 330 203 c 258
 330 215 l 257
 468 182 l 257
 468 76 375 -5 283 -5 c 257
 283 136 l 257
229 705 m 257
 229 564 l 257
 183 563 173 523 173 518 c 257
 173 181 l 257
 173 176 183 136 229 136 c 257
 229 -5 l 257
 86 -5 32 121 32 181 c 257
 32 518 l 257
 32 578 86 705 229 705 c 257
EndSplineSet
EndChar

StartChar: uni010D
Encoding: 294 269 37
Width: 418
VWidth: 0
HStem: -1 117<243 249 243 249 249 250> 496 20<185 191 191 191 233 239 239 275.5> 577 152<178 184 239 244 178 178>
VStem: 30 119<141 375> 103 218<729 729>
LayerCount: 3
Fore
SplineSet
103 729 m 257
 184 729 l 257
 211 672 l 257
 239 729 l 257
 321 729 l 257
 244 577 l 257
 178 577 l 257
 103 729 l 257
266 383 m 257
 261 397 239 399 239 399 c 258
 238 399 237 399 236 399 c 258
 233 399 l 257
 233 516 l 257
 239 516 l 258
 312 516 381 448 381 376 c 258
 381 372 l 257
 270 330 l 257
 270 360 l 258
 270 370 270 375 266 383 c 257
243 -1 m 257
 243 116 l 257
 249 116 l 257
 251 116 272 119 277 132 c 257
 281 140 281 146 281 156 c 258
 281 186 l 257
 392 144 l 257
 392 140 l 258
 392 68 323 -1 250 -1 c 258
 243 -1 l 257
30 377 m 257
 31 421 80 516 185 516 c 258
 191 516 l 257
 191 400 l 257
 185 400 l 258
 154 400 149 377 149 375 c 258
 149 141 l 258
 149 139 154 115 194 115 c 256
 199 114 l 257
 199 0 l 257
 194 0 l 258
 79 0 30 97 30 141 c 258
 30 377 l 257
EndSplineSet
EndChar

StartChar: uni010E
Encoding: 295 270 38
Width: 452
VWidth: 0
HStem: 0 21<32 32 32 173 32 32 32 173 227 257 227 257> 680 20<32 173 173 173 227 298.5> 766 152<194 200 255 260 194 194>
VStem: 32 141<0 700 0 700> 119 218<918 918> 283 141<197 503>
LayerCount: 3
Fore
SplineSet
119 918 m 257
 200 918 l 257
 227 861 l 257
 255 918 l 257
 337 918 l 257
 260 766 l 257
 194 766 l 257
 119 918 l 257
227 0 m 257xb8
 227 141 l 257
 233 141 282 149 283 197 c 258
 283 503 l 257
 283 508 275 558 227 559 c 257
 227 700 l 257
 370 700 424 566 424 503 c 257
 424 197 l 257
 424 50 287 0 227 0 c 257xb8
32 0 m 257
 32 700 l 257
 173 700 l 257
 173 0 l 257
 32 0 l 257
EndSplineSet
EndChar

StartChar: uni0112
Encoding: 296 274 39
Width: 422
VWidth: 0
HStem: 0 141<173 396 173 396> 277 141<173 302 173 302> 560 140<173 396 173 173> 766 107
VStem: 32 141<141 277 418 560> 32 364<0 141 560 700>
LayerCount: 3
Fore
SplineSet
439 766 m 257
 -11 766 l 257
 -11 873 l 257
 439 873 l 257
 439 766 l 257
396 141 m 257xf0
 396 0 l 257
 32 0 l 257
 32 700 l 257
 396 700 l 257
 396 560 l 257xf0
 173 560 l 257
 173 418 l 257
 302 418 l 257
 302 277 l 257
 173 277 l 257
 173 141 l 257xe8
 396 141 l 257xf0
EndSplineSet
EndChar

StartChar: uni0113
Encoding: 297 275 40
Width: 424
VWidth: 0
HStem: 0 111<131 242 183 242 236 242 236 242> 208 116<148 283 148 397 148 283> 402 114<236 240 182 236> 577 107
VStem: 26 122<141 208 324 369> 283 114<324 369 369 378>
LayerCount: 3
Fore
SplineSet
437 577 m 257
 -13 577 l 257
 -13 684 l 257
 437 684 l 257
 437 577 l 257
240 402 m 258
 236 402 l 257
 236 516 l 257
 242 516 l 258
 312 516 397 450 397 378 c 258
 397 208 l 257
 148 208 l 257
 148 141 l 258
 148 138 155 109 183 108 c 258
 188 108 l 257
 188 0 l 257
 183 0 l 258
 79 0 26 96 26 141 c 258
 26 377 l 257
 27 422 80 516 182 516 c 258
 187 516 l 257
 187 400 l 257
 184 400 l 258
 155 400 148 380 148 369 c 258
 148 324 l 257
 283 324 l 257
 283 369 l 258
 283 396 260 402 240 402 c 258
236 0 m 257
 236 111 l 257
 242 111 l 258
 273 113 294 132 298 153 c 258
 299 157 l 257
 398 120 l 257
 397 118 l 256
 382 54 312 0 242 0 c 258
 236 0 l 257
EndSplineSet
EndChar

StartChar: uni0116
Encoding: 298 278 41
Width: 422
VWidth: 0
HStem: 0 141<173 396 173 396> 277 141<173 302 173 302> 560 140<173 396 173 173> 766 151<193 235>
VStem: 32 141<141 277 418 560> 32 364<0 141 560 700> 139 150<820 862>
LayerCount: 3
Fore
SplineSet
139 841 m 256
 139 883 172 917 214 917 c 256
 256 917 289 883 289 841 c 256
 289 799 256 766 214 766 c 256
 172 766 139 799 139 841 c 256
396 141 m 257xf0
 396 0 l 257
 32 0 l 257
 32 700 l 257
 396 700 l 257
 396 560 l 257xf0
 173 560 l 257
 173 418 l 257
 302 418 l 257
 302 277 l 257
 173 277 l 257
 173 141 l 257xe8
 396 141 l 257xf0
EndSplineSet
EndChar

StartChar: uni0117
Encoding: 299 279 42
Width: 424
VWidth: 0
HStem: 0 111<131 242 183 242 236 242 236 242> 208 116<148 283 148 397 148 283> 402 114<236 240 182 236> 577 151<191 233>
VStem: 26 122<141 208 324 369> 137 150<631 673> 283 114<324 369 369 378>
LayerCount: 3
Fore
SplineSet
240 402 m 258
 236 402 l 257
 236 516 l 257
 242 516 l 258
 312 516 397 450 397 378 c 258
 397 208 l 257
 148 208 l 257
 148 141 l 258
 148 138 155 109 183 108 c 258
 188 108 l 257
 188 0 l 257
 183 0 l 258
 79 0 26 96 26 141 c 258
 26 377 l 257
 27 422 80 516 182 516 c 258
 187 516 l 257
 187 400 l 257
 184 400 l 258
 155 400 148 380 148 369 c 258
 148 324 l 257
 283 324 l 257
 283 369 l 258
 283 396 260 402 240 402 c 258
236 0 m 257
 236 111 l 257
 242 111 l 258
 273 113 294 132 298 153 c 258
 299 157 l 257
 398 120 l 257
 397 118 l 256
 382 54 312 0 242 0 c 258
 236 0 l 257
137 652 m 256
 137 694 170 728 212 728 c 256
 254 728 287 694 287 652 c 256
 287 610 254 577 212 577 c 256
 170 577 137 610 137 652 c 256
EndSplineSet
EndChar

StartChar: uni011A
Encoding: 300 282 43
Width: 422
VWidth: 0
HStem: 0 141<173 396 173 396> 277 141<173 302 173 302> 560 140<173 396 173 173> 766 152<180 186 241 246 180 180>
VStem: 32 141<141 277 418 560> 32 364<0 141 560 700> 105 218<918 918>
LayerCount: 3
Fore
SplineSet
105 918 m 257
 186 918 l 257
 213 861 l 257
 241 918 l 257
 323 918 l 257
 246 766 l 257
 180 766 l 257
 105 918 l 257
396 141 m 257xf0
 396 0 l 257
 32 0 l 257
 32 700 l 257
 396 700 l 257
 396 560 l 257xf0
 173 560 l 257
 173 418 l 257
 302 418 l 257
 302 277 l 257
 173 277 l 257
 173 141 l 257xe8
 396 141 l 257xf0
EndSplineSet
EndChar

StartChar: uni011B
Encoding: 301 283 44
Width: 424
VWidth: 0
HStem: 0 111<131 242 183 242 236 242 236 242> 208 116<148 283 148 397 148 283> 402 114<236 240 182 236> 577 152<178 184 239 244 178 178>
VStem: 26 122<141 208 324 369> 103 218<729 729> 283 114<324 369 369 378>
LayerCount: 3
Fore
SplineSet
240 402 m 258
 236 402 l 257
 236 516 l 257
 242 516 l 258
 312 516 397 450 397 378 c 258
 397 208 l 257
 148 208 l 257
 148 141 l 258
 148 138 155 109 183 108 c 258
 188 108 l 257
 188 0 l 257
 183 0 l 258
 79 0 26 96 26 141 c 258
 26 377 l 257
 27 422 80 516 182 516 c 258
 187 516 l 257
 187 400 l 257
 184 400 l 258
 155 400 148 380 148 369 c 258
 148 324 l 257
 283 324 l 257
 283 369 l 258
 283 396 260 402 240 402 c 258
236 0 m 257
 236 111 l 257
 242 111 l 258
 273 113 294 132 298 153 c 258
 299 157 l 257
 398 120 l 257
 397 118 l 256
 382 54 312 0 242 0 c 258
 236 0 l 257
103 729 m 257
 184 729 l 257
 211 672 l 257
 239 729 l 257
 321 729 l 257
 244 577 l 257
 178 577 l 257
 103 729 l 257
EndSplineSet
EndChar

StartChar: uni011E
Encoding: 302 286 45
Width: 493
VWidth: 0
HStem: -5 141<219.5 222 219.5 222 219.5 276> 685 20<156 222 276 322.5> 766 64<240 258 240 275.5>
VStem: 26 141<192 508 192 524 192 524> 153 64<853 862 853 862> 276 185<135.5 136 136 136 223 353 135.5 353> 281 64<853 862> 319 142<190 223 223 223>
LayerCount: 3
Fore
SplineSet
345 862 m 257
 345 809 302 766 249 766 c 256
 196 766 153 809 153 862 c 257
 217 862 l 257
 217 844 231 830 249 830 c 256
 267 830 281 844 281 862 c 257
 345 862 l 257
276 564 m 257xf0
 276 705 l 257xf0
 369 705 461 612 461 516 c 257xe8
 323 465 l 257
 323 495 l 258
 323 509 323 520 318 532 c 256
 308 555 276 564 276 564 c 257xf0
461 353 m 257
 461 176 l 258
 461 95 358 -4 276 -5 c 257
 276 136 l 257xf0
 282 136 319 155 319 190 c 258
 319 223 l 257xe8
 276 223 l 257
 276 353 l 257
 461 353 l 257
222 -5 m 257
 162 -5 26 48 26 192 c 257
 26 524 l 257
 34 589 90 705 222 705 c 257
 222 564 l 257
 176 563 167 513 167 508 c 257
 167 192 l 258
 168 146 217 136 222 136 c 257
 222 -5 l 257
EndSplineSet
EndChar

StartChar: uni011F
Encoding: 303 287 46
Width: 415
VWidth: 0
HStem: -181 112<54 234 54 236 26 234> -1 113<136.5 192 189 192 189 234 189 231> 403 113<173 192 189 192 231 234 189 231> 577 64<280 298 280 315.5>
VStem: 35 115<139 140 140 375> 193 64<664 673 664 673> 231 158<-1 109 109 109 403 516> 272 117<-40 3 3 3 139 374 374 375.5 511 516> 321 64<664 673>
LayerCount: 3
Fore
SplineSet
236 -181 m 257xf4
 26 -181 l 257
 54 -69 l 257
 234 -69 l 257
 265 -68 272 -43 272 -40 c 258
 272 3 l 257xf4
 260 0 248 -1 234 -1 c 258
 231 -1 l 257
 231 109 l 257xf8
 234 109 l 258
 265 110 272 136 272 139 c 258
 272 374 l 258xf4
 272 377 265 403 234 403 c 258
 231 403 l 257
 231 516 l 257xf8
 234 516 l 258
 247 516 261 514 272 511 c 257
 272 516 l 257xf4
 389 516 l 257xf8
 389 -40 l 258
 389 -83 339 -180 236 -181 c 257xf4
189 516 m 258
 192 516 l 257
 192 403 l 257
 189 403 l 258
 157 403 150 378 150 375 c 258
 150 140 l 258
 150 137 158 112 189 112 c 258
 192 112 l 257
 192 -1 l 257
 189 -1 l 258
 84 -1 35 96 35 139 c 258
 35 378 l 257
 36 422 85 516 189 516 c 258
385 673 m 257
 385 620 342 577 289 577 c 256
 236 577 193 620 193 673 c 257
 257 673 l 257
 257 655 271 641 289 641 c 256
 307 641 321 655 321 673 c 257
 385 673 l 257
EndSplineSet
EndChar

StartChar: uni0122
Encoding: 304 290 47
Width: 493
VWidth: 0
HStem: -5 141<219.5 222 219.5 222 219.5 276> 685 20<156 222 276 322.5>
VStem: 26 141<192 508 192 524 192 524> 276 185<135.5 136 136 136 223 353 135.5 353> 319 142<190 223 223 223>
LayerCount: 3
Fore
SplineSet
294 -218 m 257
 167 -218 l 257
 204 -66 l 257
 331 -66 l 257
 294 -218 l 257
276 564 m 257xf0
 276 705 l 257xf0
 369 705 461 612 461 516 c 257xe8
 323 465 l 257
 323 495 l 258
 323 509 323 520 318 532 c 256
 308 555 276 564 276 564 c 257xf0
461 353 m 257
 461 176 l 258
 461 95 358 -4 276 -5 c 257
 276 136 l 257xf0
 282 136 319 155 319 190 c 258
 319 223 l 257xe8
 276 223 l 257
 276 353 l 257
 461 353 l 257
222 -5 m 257
 162 -5 26 48 26 192 c 257
 26 524 l 257
 34 589 90 705 222 705 c 257
 222 564 l 257
 176 563 167 513 167 508 c 257
 167 192 l 258
 168 146 217 136 222 136 c 257
 222 -5 l 257
EndSplineSet
EndChar

StartChar: uni012A
Encoding: 305 298 48
Width: 209
VWidth: 0
HStem: 0 21<34 175 34 34 34 175 34 34> 680 20<34 175 175 175> 766 107
VStem: 34 141<0 700 0 700>
LayerCount: 3
Fore
SplineSet
329.5 766 m 257
 -120.5 766 l 257
 -120.5 873 l 257
 329.5 873 l 257
 329.5 766 l 257
34 700 m 257xb0
 175 700 l 257
 175 0 l 257
 34 0 l 257
 34 700 l 257xb0
EndSplineSet
EndChar

StartChar: uni012B
Encoding: 306 299 49
Width: 174
VWidth: 0
HStem: 577 107
LayerCount: 3
Fore
SplineSet
312 577 m 257
 -138 577 l 257
 -138 684 l 257
 312 684 l 257
 312 577 l 257
148 0 m 257
 26 0 l 257
 26 516 l 257
 148 516 l 257
 148 0 l 257
EndSplineSet
Colour: ffff00
EndChar

StartChar: uni0136
Encoding: 307 310 50
Width: 475
VWidth: 0
HStem: 0 21<26 167 26 26 26 167 26 26 319 457 319 319 319 457 319 319> 680 20<26 167 167 167 314 453 453 453>
VStem: 26 141<0 700 0 700>
LayerCount: 3
Fore
SplineSet
286.5 -213 m 257
 159.5 -213 l 257
 196.5 -61 l 257
 323.5 -61 l 257
 286.5 -213 l 257
314 700 m 257xb0
 453 700 l 257
 347 341 l 257
 457 0 l 257
 319 0 l 257
 207 341 l 257
 314 700 l 257xb0
26 700 m 257
 167 700 l 257
 167 0 l 257
 26 0 l 257
 26 700 l 257
EndSplineSet
EndChar

StartChar: uni0137
Encoding: 308 311 51
Width: 452
VWidth: 0
HStem: 0 21<30 155 30 30 30 155 30 30 296 428 296 296 296 428 296 296> 494 20<295 428 428 428> 678 20<30 155 155 155>
VStem: 30 125<0 698>
LayerCount: 3
Fore
SplineSet
155 0 m 257xb8
 30 0 l 257
 30 698 l 257
 155 698 l 257
 155 0 l 257xb8
296 0 m 257
 183 257 l 257
 295 514 l 257
 428 514 l 257
 313 257 l 257
 428 0 l 257
 296 0 l 257
274 -213 m 257
 147 -213 l 257
 184 -61 l 257
 311 -61 l 257
 274 -213 l 257
EndSplineSet
EndChar

StartChar: uni0139
Encoding: 309 313 52
Width: 428
VWidth: 0
HStem: 0 139<167 402 167 402> 680 20<26 167 167 167> 766 152<87.5 141.5 50.5 214.5>
VStem: 26 141<139 700 139 700 139 700> 50.5 164<766 918>
LayerCount: 3
Fore
SplineSet
141.5 766 m 257
 50.5 766 l 257
 87.5 918 l 257
 214.5 918 l 257
 141.5 766 l 257
402 139 m 257
 402 0 l 257
 26 0 l 257
 26 700 l 257
 167 700 l 257
 167 139 l 257
 402 139 l 257
EndSplineSet
EndChar

StartChar: uni013A
Encoding: 310 314 53
Width: 184
VWidth: 0
HStem: 0 21<30 161 30 30 30 161 30 30> 678 20<30 161 161 161> 759 152<86.5 140.5 49.5 213.5>
VStem: 30 131<0 698> 49.5 164<759 911>
LayerCount: 3
Fore
SplineSet
161 0 m 257xb0
 30 0 l 257
 30 698 l 257
 161 698 l 257
 161 0 l 257xb0
140.5 759 m 257
 49.5 759 l 257
 86.5 911 l 257
 213.5 911 l 257
 140.5 759 l 257
EndSplineSet
EndChar

StartChar: uni013B
Encoding: 311 315 54
Width: 428
VWidth: 0
HStem: 0 139<167 402 167 402> 680 20<26 167 167 167>
VStem: 26 141<139 700 139 700 139 700>
LayerCount: 3
Fore
SplineSet
259 -213 m 257
 132 -213 l 257
 169 -61 l 257
 296 -61 l 257
 259 -213 l 257
402 139 m 257
 402 0 l 257
 26 0 l 257
 26 700 l 257
 167 700 l 257
 167 139 l 257
 402 139 l 257
EndSplineSet
EndChar

StartChar: uni013C
Encoding: 312 316 55
Width: 184
VWidth: 0
HStem: 0 21<30 161 30 30 30 161 30 30> 678 20<30 161 161 161>
VStem: 30 131<0 698>
LayerCount: 3
Fore
SplineSet
161 0 m 257xb0
 30 0 l 257
 30 698 l 257
 161 698 l 257
 161 0 l 257xb0
140.5 -213 m 257
 13.5 -213 l 257
 50.5 -61 l 257
 177.5 -61 l 257
 140.5 -213 l 257
EndSplineSet
EndChar

StartChar: uni0130
Encoding: 313 304 56
Width: 209
VWidth: 0
HStem: 0 21<34 175 34 34 34 175 34 34> 680 20<34 175 175 175> 766 151<83.5 125.5>
VStem: 29.5 150<820 862> 34 141<0 700 0 700>
LayerCount: 3
Fore
SplineSet
29.5 841 m 256
 29.5 883 62.5 917 104.5 917 c 256
 146.5 917 179.5 883 179.5 841 c 256
 179.5 799 146.5 766 104.5 766 c 256
 62.5 766 29.5 799 29.5 841 c 256
34 700 m 257xb0
 175 700 l 257
 175 0 l 257
 34 0 l 257
 34 700 l 257xb0
EndSplineSet
Colour: ffff00
EndChar

StartChar: uni021B
Encoding: 314 539 57
Width: 324
VWidth: 0
HStem: 0 125<244 271 244 298 243 271> 398 118<26 89 26 89 211 271> 680 20<89 211 211 211>
VStem: 89 122<168 398 516 700>
LayerCount: 3
Fore
SplineSet
244 125 m 258
 271 125 l 257
 298 0 l 257
 243 0 l 258
 121 1 89 66 89 168 c 258
 89 398 l 257
 26 398 l 257
 26 516 l 257
 89 516 l 257
 89 700 l 257
 211 700 l 257
 211 516 l 257
 271 516 l 257
 271 398 l 257
 211 398 l 257
 211 159 l 258
 211 145 216 126 244 125 c 258
315.5 -213 m 257
 188.5 -213 l 257
 225.5 -61 l 257
 352.5 -61 l 257
 315.5 -213 l 257
EndSplineSet
Colour: ffff00
EndChar

StartChar: uni2260
Encoding: 315 8800 58
Width: 418
VWidth: 0
HStem: 131 127<50 368 50 368> 325 127<50 368 50 368>
VStem: 50 318<131 258 131 258 325 452 131 452>
LayerCount: 3
Fore
SplineSet
368 258 m 257
 368 131 l 257
 50 131 l 257
 50 258 l 257
 368 258 l 257
368 452 m 257
 368 325 l 257
 50 325 l 257
 50 452 l 257
 368 452 l 257
EndSplineSet
Colour: ffff00
EndChar

StartChar: tml_Oo
Encoding: 316 2963 59
Width: 917
VWidth: 0
Flags: W
HStem: -134.79 125.471<644.465 769.594> 30 125.399<177.714 215.208 271 312.222> 272.399 125.601<186.643 215.208 271 316.543> 587 125<317.655 436.004 491.004 607.213>
VStem: 40 175.208<147.335 155.399 272.399 398> 40 126.809<165.241 265.178> 221.016 126.042<-172.754 -111.369> 324.484 125.52<165.536 262.821> 495.004 126<13.9252 170 175 358> 750.773 126.38<166.828 466.046>
LayerCount: 3
Fore
SplineSet
271 30 m 1xf1c0
 271 155.399414062 l 0
 305.399414062 155.399414062 325.060546875 178.603515625 324.484375 215 c 0
 323.936523438 249.572265625 311.607421875 272.403320312 271 272.399414062 c 1
 271 398 l 0
 372.30859375 398.303710938 449.84375 316.500976562 450.00390625 253.901367188 c 0
 450.00390625 180.903320312 l 0
 449.904296875 116.91015625 372.43359375 29.8720703125 271 30 c 1xf1c0
215.208007812 398 m 1xf8c0
 215.208007812 272.399414062 l 0xf8c0
 185.607421875 272.399414062 166.80859375 251.377929688 166.80859375 215 c 0xf4c0
 166.80859375 177.600585938 184.607421875 155.399414062 215.208007812 155.399414062 c 1
 215.208007812 30 l 0xf8c0
 110.8984375 30 39.568359375 127.002929688 40 181.599609375 c 0
 40 255.599609375 l 0xf4c0
 39.2001953125 362 164.208007812 398 215.208007812 398 c 1xf8c0
436.00390625 712 m 0
 436.00390625 587 l 1
 249.1015625 587 183.208007812 467.120117188 183.208007812 366 c 0
 183.208007812 307.819335938 45.7587890625 292.567382812 40 262 c 1xf4c0
 40 317 l 1
 40 462 124.00390625 712 436.00390625 712 c 0
495.00390625 282.220703125 m 1
 619.00390625 175 l 0
 619.00390625 53.220703125 l 0
 619.00390625 3.220703125 693.423828125 -9.3193359375 769.59375 -9.3193359375 c 0
 769.59375 -134.790039062 l 1
 603.00390625 -134.790039062 495.055664062 -67.7001953125 495.00390625 25.41015625 c 0
 495.00390625 282.220703125 l 1
491.00390625 712 m 1
 763.313476562 711.84765625 877.153320312 505.399414062 877.153320312 407.580078125 c 0
 877.153320312 169.169921875 l 2
 877.153320312 -17 495.00390625 -16 495.00390625 170 c 2
 495.00390625 358 l 0
 621.00390625 358 l 1
 621.00390625 201 l 1
 621.00390625 141 750.00390625 140 750.7734375 201 c 0
 750.432617188 407.330078125 l 0
 750.356445312 469.225585938 656.423828125 587.255859375 491.00390625 587 c 1
 491.00390625 712 l 1
600.104492188 -167.234375 m 1
 577 -211 500.412210059 -309.37886232 391.579101562 -308.541015625 c 0
 285.743802347 -307.726247427 221.015625 -231.684570312 221.015625 -144.684570312 c 0
 221.015625 -66 262 19 395 19 c 1
 395 -106.1640625 l 1
 369 -106.1640625 347.057617188 -118 347.057617188 -144.2421875 c 0xf2c0
 347.057617188 -180.537727825 413.651714025 -207.478893216 462 -141 c 0
 470 -130 473 -124 485 -100 c 1
 600.104492188 -167.234375 l 1
EndSplineSet
EndChar

StartChar: tml_Ya
Encoding: 317 2991 60
Width: 742
VWidth: 0
Flags: W
HStem: 0 122<167.325 200 255 316.891 452.23 487 542 576.809>
VStem: 40 125<123.936 609> 327 125<126.295 609> 542 160<0 122> 577 125<122.45 609>
LayerCount: 3
Fore
SplineSet
577 148 m 257xe8
 577 609 l 257
 702 609 l 257xe8
 702 0 l 1
 542 0 l 257
 542 122 l 257xf0
 548 122 l 258
 570 122 577 135 577 148 c 257xe8
165 148 m 257
 165 137 170 122 194 122 c 258
 200 122 l 257
 200 0 l 257
 194 0 l 258
 95 0 40 98 40 143 c 258
 40 609 l 257
 165 609 l 257
 165 148 l 257
452 609 m 257
 452 148 l 258
 452 137 458 122 481 122 c 258
 487 122 l 257
 487 0 l 257
 327 0 l 1
 322 34 l 257
 317 12 295 0 261 0 c 258
 255 0 l 257
 255 122 l 257
 261 122 l 258
 284 122 327 123 327 148 c 257
 327 609 l 257
 452 609 l 257
EndSplineSet
EndChar

StartChar: tml_O
Encoding: 318 2962 61
Width: 917
VWidth: 0
Flags: HMW
LayerCount: 3
Fore
SplineSet
271 30 m 1
 271 155.399414062 l 0
 305.399414062 155.399414062 325.060546875 178.603515625 324.484375 215 c 0
 323.936523438 249.572265625 311.607421875 272.403320312 271 272.399414062 c 1
 271 398 l 0
 372.30859375 398.303710938 449.84375 316.500976562 450.00390625 253.901367188 c 0
 450.00390625 180.903320312 l 0
 449.904296875 116.91015625 372.43359375 29.8720703125 271 30 c 1
215.208007812 398 m 1
 215.208007812 272.399414062 l 0
 185.607421875 272.399414062 166.80859375 251.377929688 166.80859375 215 c 0
 166.80859375 177.600585938 184.607421875 155.399414062 215.208007812 155.399414062 c 1
 215.208007812 30 l 0
 110.8984375 30 39.568359375 127.002929688 40 181.599609375 c 0
 40 255.599609375 l 0
 39.2001953125 362 164.208007812 398 215.208007812 398 c 1
436.00390625 712 m 1
 436.00390625 587 l 1
 249.1015625 587 183.208007812 467.120117188 183.208007812 366 c 0
 183.208007812 307.819335938 45.7587890625 292.567382812 40 262 c 1
 40 317 l 1
 40 462 124.00390625 712 436.00390625 712 c 0
 436.00390625 712 l 1
581.00390625 -159 m 1
 513.00390625 -304 249.84375 -305.58984375 193.9140625 -127.26953125 c 1
 314.993164062 -95.8095703125 l 1
 343.243164062 -154.5703125 440.423828125 -159.08984375 473.193359375 -95.8095703125 c 0
 581.00390625 -159 l 1
495.00390625 282.220703125 m 1
 619.00390625 175 l 0
 619.00390625 53.220703125 l 0
 619.00390625 3.220703125 693.423828125 -9.3193359375 769.59375 -9.3193359375 c 0
 769.59375 -134.790039062 l 1
 603.00390625 -134.790039062 495.055664062 -67.7001953125 495.00390625 25.41015625 c 0
 495.00390625 282.220703125 l 1
491.00390625 712 m 1
 763.313476562 711.84765625 877.153320312 505.399414062 877.153320312 407.580078125 c 0
 877.153320312 169.169921875 l 2
 877.153320312 -17 495.00390625 -16 495.00390625 170 c 2
 495.00390625 358 l 0
 621.00390625 358 l 1
 621.00390625 201 l 1
 621.00390625 141 750.00390625 140 750.7734375 201 c 0
 750.432617188 407.330078125 l 0
 750.356445312 469.225585938 656.423828125 587.255859375 491.00390625 587 c 1
 491.00390625 712 l 1
EndSplineSet
EndChar

StartChar: tml_Va
Encoding: 319 2997 62
Width: 894
VWidth: 0
Flags: HMW
LayerCount: 3
Fore
SplineSet
273 0 m 1
 273 125.399414062 l 1
 305.486188695 126.268042342 321.486701964 145.151944222 321.507413643 183.99999916 c 0
 321.528323583 223.219922145 305.183838072 242.403046754 273 242.399414062 c 1
 273 368 l 0
 371.30859375 368.303710938 445.83984375 282.500976562 446 228.901367188 c 0
 446 155.903320312 l 0
 446.900390625 90.91015625 384.43359375 -0.1279296875 273 0 c 1
217 368 m 1
 217 242.399414062 l 0
 187.399414062 242.399414062 168.600585938 222.377929688 168.600585938 185 c 0
 168.600585938 150.600585938 183.399414062 125.399414062 217 125.399414062 c 1
 217 0 l 0
 112.690429688 0 40.568359375 93.0029296875 41 154.599609375 c 0
 41 225.599609375 l 0
 40.2001953125 332 166 368 217 368 c 1
308 495 m 1
 242.083007812 495 182.05078125 450.161132812 180 363 c 0
 41 231 l 1
 41 312 l 1
 41 443 93 619.923828125 308 620 c 1
 308 495 l 1
360.604492188 495 m 1
 439.272460938 495 497.77361544 434.096357375 499.204101562 363 c 1
 499.204101562 149 l 0
 499.204101562 130 473.5 127.889648438 466.00390625 126.399414062 c 1
 466.00390625 0.3994140625 l 1
 672 0.3994140625 l 1
 672 126 l 1
 623.204101562 126 l 1
 623.204101562 363.400390625 l 1
 622.160604736 477.350447882 533.522460938 620 360.604492188 620 c 1
 360.604492188 495 l 1
728.204101562 609 m 1
 853.8046875 609 l 1
 853.8046875 0.3994140625 l 1
 728.204101562 0.3994140625 l 1
 728.204101562 609 l 1
EndSplineSet
EndChar

StartChar: tml_E
Encoding: 320 2958 63
Width: 764
VWidth: 0
Flags: W
HStem: 1 125.399<184.607 215.208 271 305.399> 243.399 125.601<185.607 215.208 271 311.607> 483 126<240.208 311.208 367.208 495.208 620.809 724.208> 483 108<495.208 620.809>
VStem: 40.0039 175.204<118.335 126.399 243.399 369> 40.0039 134.204<317.151 414.733> 40.0039 126.805<148.601 222.378> 324.484 125.52<149.604 220.572> 495.208 125.601<0 591>
LayerCount: 3
Fore
SplineSet
271 1 m 5xc180
 271 126.399414062 l 4
 305.399414062 126.399414062 325.060546875 149.603515625 324.484375 186 c 4
 323.936523438 220.572265625 311.607421875 243.403320312 271 243.399414062 c 5
 271 369 l 4
 372.30859375 369.303710938 449.84375 287.500976562 450.00390625 224.901367188 c 4
 450.00390625 151.903320312 l 4
 449.904296875 87.91015625 372.43359375 0.8720703125 271 1 c 5xc180
215.208007812 369 m 5xc980
 215.208007812 243.399414062 l 4xc980
 185.607421875 243.399414062 166.80859375 222.377929688 166.80859375 186 c 4xc380
 166.80859375 148.600585938 184.607421875 126.399414062 215.208007812 126.399414062 c 5
 215.208007812 1 l 4xc980
 110.8984375 1 39.572265625 98.0029296875 40.00390625 152.599609375 c 4
 40.00390625 226.599609375 l 4xc380
 39.2041015625 333 164.208007812 369 215.208007812 369 c 5xc980
724.208007812 609 m 1xe180
 724.208007812 483 l 1
 367.208007812 483 l 1
 367.208007812 609 l 1
 724.208007812 609 l 1xe180
495.208007812 591 m 1xd180
 620.80859375 591 l 1
 620.80859375 0 l 1
 495.208007812 0 l 1
 495.208007812 591 l 1xd180
271 1 m 1
 271 126.399414062 l 0
 305.399414062 126.399414062 325.060546875 149.603515625 324.484375 186 c 0
 323.936523438 220.572265625 311.607421875 243.403320312 271 243.399414062 c 1
 271 369 l 0
 372.30859375 369.303710938 449.84375 287.500976562 450.00390625 224.901367188 c 0
 450.00390625 151.903320312 l 0
 449.904296875 87.91015625 372.43359375 0.8720703125 271 1 c 1
311.608398438 609 m 5xe980
 311.208007812 483 l 5
 221.990183232 483 181.435046746 415.464994144 174.208007812 337 c 4xe580
 168.872070312 279.064453125 45.7626953125 263.567382812 40.00390625 233 c 5xe380
 40.00390625 288 l 6
 40.00390625 406.001209953 103.568251753 609 311.608398438 609 c 5xe980
215.208007812 369 m 1xc980
 215.208007812 243.399414062 l 0xc980
 185.607421875 243.399414062 166.80859375 222.377929688 166.80859375 186 c 0xc380
 166.80859375 148.600585938 184.607421875 126.399414062 215.208007812 126.399414062 c 1
 215.208007812 1 l 0xc980
 110.8984375 1 39.572265625 98.0029296875 40.00390625 152.599609375 c 0
 40.00390625 226.599609375 l 0xc380
 39.2041015625 333 164.208007812 369 215.208007812 369 c 1xc980
EndSplineSet
EndChar

StartChar: tml_A
Encoding: 321 2949 64
Width: 1038
VWidth: 0
Flags: HW
HStem: -130 125<206.723 399 456 672.999> 113 127.815<371.477 399.5 454.5 481.969> 210 122<205.787 259 510 697 780 876> 382 125<380.086 477.408> 575 125<440.122 623.598>
VStem: 40 125<40.2163 169.463> 230 119<210 331 334 477> 510 113<222 332> 697 125<16.5015 210 387 497.36> 780 42<210 332> 873 125<-110 210 332 592> 873 3<210 332>
LayerCount: 3
Back
SplineSet
822 402 m 13x9f80
 822 268 l 5
 697 268 l 5
 697 406 l 4
 697 514.397460938 655.118164062 587 530 587 c 4
 437.630859375 587 392 545 392 498 c 4
 392 451 422 421 463 421 c 4
 509.09375 421 550 443 550 510 c 4
 636 419 l 4
 631 354 555 296 463 296 c 4
 371 296 267 361 267 498 c 4
 267 621 371.745117188 712 530 712 c 4
 714.377929688 712 822 598.788085938 822 402 c 13x9f80
454 276 m 5xbf80
 538.333007812 276 737.666992188 276 822 276 c 5xbf40
 823 69 l 5
 823 -35.3046875 751 -130 622 -130 c 4
 456 -130 l 4
 456 -5 l 21
 610 -5 l 4
 678 -4.4453125 697 33.9345703125 697 69 c 5
 697 154 l 5
 655 154 496 154 454 154 c 5
 454 276 l 5xbf80
399 -5 m 5
 399 -130 l 5
 248 -130 l 4
 133 -130 40 -48.3388671875 40 74 c 4
 40 192.737304688 126 278 259 278 c 6
 398 278 l 5
 398 153 l 5
 241 153 l 4
 216 153 165 132 165 73.537109375 c 4
 165 19.5625 212 -5 259 -5 c 4
 399 -5 l 5
780 276 m 5
 876 276 l 5
 876 154 l 5xbf50
 780 154 l 5
 780 276 l 5
873 592 m 5x9f20
 998 592 l 5
 998 -110 l 5
 873 -110 l 5
 873 592 l 5x9f20
EndSplineSet
Fore
SplineSet
822 402 m 13x9f80
 822 268 l 5
 697 268 l 5
 697 406 l 4
 697 514.397460938 655.118164062 587 530 587 c 4
 437.630859375 587 392 545 392 498 c 4
 392 451 422 421 463 421 c 4
 509.09375 421 550 443 550 510 c 4
 636 419 l 4
 631 354 555 296 463 296 c 4
 371 296 267 361 267 498 c 4
 267 621 371.745117188 712 530 712 c 4
 714.377929688 712 822 598.788085938 822 402 c 13x9f80
454 276 m 5xbf80
 538.333007812 276 737.666992188 276 822 276 c 5xbf40
 823 69 l 5
 823 -35.3046875 751 -130 622 -130 c 4
 456 -130 l 4
 456 -5 l 21
 610 -5 l 4
 678 -4.4453125 697 33.9345703125 697 69 c 5
 697 154 l 5
 655 154 496 154 454 154 c 5
 454 276 l 5xbf80
399 -5 m 5
 399 -130 l 5
 248 -130 l 4
 133 -130 40 -48.3388671875 40 74 c 4
 40 192.737304688 126 278 259 278 c 6
 398 278 l 5
 398 153 l 5
 241 153 l 4
 216 153 165 132 165 73.537109375 c 4
 165 19.5625 212 -5 259 -5 c 4
 399 -5 l 5
780 276 m 5
 876 276 l 5
 876 154 l 5xbf50
 780 154 l 5
 780 276 l 5
873 592 m 5x9f20
 998 592 l 5
 998 -110 l 5
 873 -110 l 5
 873 592 l 5x9f20
EndSplineSet
EndChar

StartChar: tml_Pa
Encoding: 322 2986 65
Width: 550
VWidth: 0
Flags: W
HStem: 1 125.065<165 247> 109.065 17<40 165>
VStem: 40 207<1 126.065> 40 125<126.065 609>
LayerCount: 3
Fore
SplineSet
40 109.065429688 m 1x60
 40 609 l 1
 165 609 l 1
 165 109.065429688 l 1x50
 40 109.065429688 l 1x60
510 106.065429688 m 17
 510 609 l 1
 385 609 l 1
 385 106.065429688 l 1
 510 106.065429688 l 17
304 126.065429688 m 1
 304 1 l 1
 510 1 l 1x80
 510 126.065429688 l 1
 304 126.065429688 l 1
40 126.065429688 m 1x60
 247 126.065429688 l 1
 247 1 l 1
 40 1 l 1xa0
 40 126.065429688 l 1x60
EndSplineSet
EndChar

StartChar: tml_Tta
Encoding: 323 2975 66
Width: 641
VWidth: 0
Flags: W
HStem: 0 125<28 601>
VStem: 28 125<180 610>
LayerCount: 3
Fore
SplineSet
28 125 m 1
 601 125 l 1
 601 0 l 1
 28 0 l 1
 28 125 l 1
28 610 m 1
 153 610 l 1
 153 180 l 1
 28 180 l 1
 28 610 l 1
EndSplineSet
EndChar

StartChar: tml_Ra
Encoding: 324 2992 67
Width: 610
VWidth: 0
Flags: W
HStem: 0 21G<40 165> 484 125<42 222>
VStem: 40 182<484 609> 40 125<0 484>
LayerCount: 3
Fore
SplineSet
456 605 m 1xc0
 328 605 l 1
 328 33.865234375 l 1
 155 -181 l 1
 301 -181 l 1
 454 0 l 2
 456 605 l 1xc0
40 0 m 21xd0
 40 609 l 1xe0
 165 609 l 1
 165 0 l 5
 40 0 l 21xd0
277 609 m 1
 277 484 l 1
 570 484 l 1
 570 609 l 1
 277 609 l 1
42 609 m 1
 222 609 l 1
 222 484 l 1
 42 484 l 1
 42 609 l 1
EndSplineSet
EndChar

StartChar: tml_MatraAa
Encoding: 325 3006 68
Width: 582
VWidth: 0
Flags: W
HStem: 0 21G<40 165> 484 125<40 223>
VStem: 40 183<484 609> 40 125<0 484>
LayerCount: 3
Fore
SplineSet
331 0 m 1xc0
 456 0 l 1
 456 607 l 1
 331 607 l 1
 331 0 l 1xc0
40 0 m 17xd0
 40 606 l 1xe0
 165 607 l 1
 165 0 l 1
 40 0 l 17xd0
278 609 m 1
 278 484 l 1
 542 484 l 1
 542 609 l 1
 278 609 l 1
40 609 m 1
 223 609 l 1
 223 484 l 1
 40 484 l 1
 40 609 l 1
EndSplineSet
EndChar

StartChar: tml_Na
Encoding: 326 2984 69
Width: 698
VWidth: 0
Flags: W
HStem: -161 125<186.791 520.665>
VStem: 40 131<-263 -173.727> 532 126<-28.0284 256.057>
LayerCount: 3
Fore
SplineSet
501 384 m 1
 579 384 658 362 658 211 c 0
 658 26 l 0
 658 -42 637 -161 480 -161 c 0
 231 -161 l 2
 188.237865933 -161 171 -186.604492188 171 -263 c 1
 40 -263 l 1
 40 -109.61328125 113.030273438 -36 253 -36 c 2
 479 -36 l 0
 529 -36 532 -5 532 26 c 0
 533 211 l 2
 533.470703125 258.025390625 529 259 501 259 c 0
 501 384 l 1
319 0 m 1
 447 0 l 1
 446 602 l 1
 321 602 l 1
 319 0 l 1
73 0 m 9
 198 0 l 1
 198 604 l 1
 73 604 l 1
 73 0 l 9
594 485 m 1
 594 609 l 1
 73 609 l 1
 74 485 l 1
 594 485 l 1
EndSplineSet
EndChar

StartChar: tml_Three
Encoding: 327 3049 70
Width: 752
VWidth: 0
Flags: W
HStem: 0.0654297 125<261 482 641 697>
VStem: 515 126<125.84 236.827>
LayerCount: 3
Fore
SplineSet
341 125 m 1
 697 125.065429688 l 1
 697 0.0654296875 l 1
 341 0 l 1
 341 125 l 1
261 125 m 1
 294.639648438 125 390.05859375 125 459 125 c 0
 518 125 515 128.418945312 515 148 c 0
 515 216 l 2
 515 237.028320312 519 237 468 237 c 0
 468 362 l 1
 556 362 641 330 641 235 c 0
 641 114 l 0
 641 44.044921875 578.067382812 0 482 0 c 0
 403 0 344.600585938 0 261 0 c 1
 261 125 l 1
288 181 m 1
 413 181 l 1
 413 603 l 1
 288 603 l 1
 288 181 l 1
40 0 m 9
 165 0 l 1
 165 605 l 1
 40 605 l 1
 40 0 l 9
524 484 m 1
 524 609 l 1
 40 609 l 1
 41 484 l 1
 524 484 l 1
EndSplineSet
EndChar

StartChar: tml_Nga
Encoding: 328 2969 71
Width: 917
VWidth: 0
Flags: W
HStem: 0.0654297 125<282 482 641 697>
VStem: 515 126<125.84 236.827> 752 125<0 609>
LayerCount: 3
Fore
SplineSet
752 609 m 1
 877 609 l 1
 877 0 l 1
 752 0 l 1
 752 609 l 1
341 125 m 1
 697 125.065429688 l 1
 697 0.0654296875 l 1
 341 0 l 1
 341 125 l 1
282 125 m 1
 315.639648438 125 390.05859375 125 459 125 c 0
 518 125 515 128.418945312 515 148 c 0
 515 216 l 2
 515 237.028320312 519 237 468 237 c 0
 468 362 l 1
 556 362 641 330 641 235 c 0
 641 114 l 0
 641 44.044921875 578.067382812 0 482 0 c 0
 282 0 l 1
 282 125 l 1
288 166 m 1
 413 166 l 1
 413 603 l 1
 288 603 l 1
 288 166 l 1
40 0 m 9
 165 0 l 1
 165 605 l 1
 40 605 l 1
 40 0 l 9
524 484 m 1
 524 609 l 1
 40 609 l 1
 41 484 l 1
 524 484 l 1
EndSplineSet
EndChar

StartChar: tml_Ii
Encoding: 329 2952 72
Width: 645
VWidth: 0
Flags: W
HStem: 1 21G<40 165> 191 128<197.723 294.277 493.747 588.253> 484.5 125.5<40 222>
VStem: 40 182<484.5 610> 40 125<1 484.5> 182 128<206.723 303.277> 477 128<206.056 302.61>
LayerCount: 3
Fore
SplineSet
477 254.333007812 m 0xe2
 477 289.333007812 506 318.333007812 541 318.333007812 c 0
 576 318.333007812 605 289.333007812 605 254.333007812 c 0
 605 219.333007812 576 190.333007812 541 190.333007812 c 0
 506 190.333007812 477 219.333007812 477 254.333007812 c 0xe2
182 255 m 0xe6
 182 290 211 319 246 319 c 0
 281 319 310 290 310 255 c 0
 310 220 281 191 246 191 c 0
 211 191 182 220 182 255 c 0xe6
331 0 m 1
 456 0 l 1
 456 608 l 1
 331 608 l 1
 331 0 l 1
40 1 m 17xea
 40 607 l 1xf2
 165 608 l 1
 165 1 l 1
 40 1 l 17xea
277 610 m 1
 277 484.5 l 1
 601 484.5 l 1
 601 610 l 1
 277 610 l 1
40 610 m 1
 222 610 l 1
 222 484.5 l 1
 40 484.5 l 1
 40 610 l 1
EndSplineSet
EndChar

StartChar: tml_Lla
Encoding: 330 2995 73
Width: 1000
VWidth: 0
Flags: W
HStem: 0 125.399<179.515 217 273 312.464> 242.399 125.601<178.726 217 273 312.923> 494 126<235.684 306 361.4 426.355 637.435 676>
VStem: 42 175<117.459 125.399 242.399 368> 42 134<312.84 427.8> 42 126.601<133.424 230.536 231 233.549> 320.276 125.724<130.539 236.639>
LayerCount: 3
Fore
SplineSet
306.400390625 620 m 1xf2
 306 496 l 1
 239.59310601 496 176 437.529434052 176 335 c 0xea
 176 276.819335938 47.7587890625 261.567382812 42 231 c 1xe6
 42 334 l 2
 42 437.904923527 123.409050954 620 306.400390625 620 c 1xf2
273 0 m 1
 273 125.399414062 l 0
 315.399414062 125.399414062 320.999023438 153.606445312 320.276367188 185 c 0
 319.641601562 212.5703125 315.607421875 242.403320312 273 242.399414062 c 1
 273 368 l 0
 371.30859375 368.303710938 445.83984375 282.500976562 446 228.901367188 c 0
 446 155.903320312 l 0
 446.900390625 90.91015625 384.43359375 -0.1279296875 273 0 c 1
361.400390625 496 m 1
 431.657360057 496 483.576170443 427.665095926 485 363 c 1
 486 0 l 1
 615 0 l 1
 611 363.400390625 l 1
 611 464.99788551 526.808659773 620 361.400390625 620 c 1
 361.400390625 496 l 1
217 368 m 1xf2
 217 242.399414062 l 0xf2
 187.399414062 242.399414062 168.600585938 214.377929688 168.600585938 185 c 0xe6
 168.600585938 152.600585938 183.399414062 125.399414062 217 125.399414062 c 1
 217 0 l 0xf2
 112.690429688 0 41.568359375 93.0029296875 42 154.599609375 c 0
 42.3041350452 198.000781259 42.61328125 143.993164062 42 225.599609375 c 0xe6
 41.2001953125 332 166 368 217 368 c 1xf2
760 0 m 1
 885 0 l 1
 885 587.852539062 l 1
 760 587.852539062 l 1
 760 0 l 1
731 620 m 1
 731 494 l 1
 960 494 l 1
 960 620 l 1
 731 620 l 1
676 620 m 1
 499.028758237 620 485 450.406119721 485 333 c 1
 611 333.400390625 l 1
 611 464 634 494 676 494 c 1
 676 620 l 1
EndSplineSet
EndChar

StartChar: tml_La
Encoding: 331 2994 74
Width: 914
VWidth: 0
Flags: W
HStem: 0 125.399<177.519 215.004 271.004 310.468 613.849 650.004 705.004 744.442> 242.399 125.601<176.73 215.004 271.004 310.927> 497 124<240.502 304.004 359.408 426.208>
VStem: 40.0038 175<117.459 125.399 242.399 368> 40.0038 134<312.84 426.172> 40.0038 126.601<133.424 230.536 231 233.549> 318.28 125.724<130.539 236.639> 483.008 125<130.099 169 361.4 435.545> 749.008 125<133.582 170 431.933 476.571>
LayerCount: 3
Fore
SplineSet
271.00390625 0 m 1xe380
 271.00390625 125.399414062 l 0
 313.403320312 125.399414062 319.002929688 153.606445312 318.280273438 185 c 0
 317.645507812 212.5703125 313.611328125 242.403320312 271.00390625 242.399414062 c 1
 271.00390625 368 l 0
 369.3125 368.303710938 443.84375 282.500976562 444.00390625 228.901367188 c 0
 444.00390625 155.903320312 l 0
 444.904296875 90.91015625 382.4375 -0.1279296875 271.00390625 0 c 1xe380
215.00390625 368 m 1xf380
 215.00390625 242.399414062 l 0xf380
 185.403320312 242.399414062 166.604492188 214.377929688 166.604492188 185 c 0xe780
 166.604492188 152.600585938 181.403320312 125.399414062 215.00390625 125.399414062 c 1
 215.00390625 0 l 0xf380
 110.694335938 0 39.572265625 93.0029296875 40.00390625 154.599609375 c 0
 40.3076171875 198.000976562 40.6171875 143.993164062 40.00390625 225.599609375 c 0xe780
 39.2041015625 332 164.00390625 368 215.00390625 368 c 1xf380
304.404296875 621 m 1
 304.00390625 497 l 1
 237.583984375 497 174.00390625 437.541015625 174.00390625 335 c 0xeb80
 174.00390625 276.819335938 45.7626953125 261.567382812 40.00390625 231 c 1xe780
 40.00390625 331 l 2
 40.00390625 434.913085938 121.401367188 621 304.404296875 621 c 1
608.0078125 361.400390625 m 2
 606.963867188 467.0390625 531.081054688 621 359.408203125 621 c 1
 359.408203125 496 l 1
 439.38671875 496 480.569335938 428.330078125 482.0078125 363 c 10
 483.0078125 169 l 18
 483.0078125 85.6572265625 532.439453125 0 650.00390625 0 c 1
 650.00390625 126 l 1
 624.110351562 126 608.0078125 141.141601562 608.0078125 168.599609375 c 2
 608.0078125 361.400390625 l 2
874.0078125 434.678710938 m 2
 874.0078125 554.509765625 818.578125 608.977539062 696.0078125 607.852539062 c 1
 697.1640625 481.857421875 l 1
 736.0078125 481.857421875 749.0078125 469 749.0078125 431.932617188 c 1
 749.0078125 170 l 17
 749.0078125 142 733.00390625 126 705.00390625 126 c 1
 705.00390625 0 l 1
 817.678710938 0 874.0078125 82.44921875 874.0078125 170 c 2
 874.0078125 434.678710938 l 2
EndSplineSet
EndChar

StartChar: tml_Nya
Encoding: 332 2974 75
Width: 889
VWidth: 0
Flags: W
HStem: -169 125<47.2002 717.417> 1 125.399<184.607 215.208 271 305.399> 243.399 125.601<185.607 215.208 271 311.607> 483 108<495.208 620.809> 483 126<240.208 311.208 367.208 495.208 620.809 724.208>
VStem: 40.0039 126.805<148.601 222.378> 40.0039 134.204<317.151 414.733> 40.0039 175.204<118.335 126.399 243.399 369> 324.484 125.52<149.604 220.572> 495.208 125.601<0 591> 723.2 126<-36.9279 201.496>
LayerCount: 3
Fore
SplineSet
658.200195312 -43.6669921875 m 6xe0e0
 722.200195312 -43.6318359375 723.200195312 -23 723.200195312 27 c 4
 724.200195312 158 l 2
 724.670898438 205.025390625 719.200195312 206 676.200195312 206 c 0
 676.200195312 331 l 1
 763.200195312 331 849.200195312 303 849.200195312 158 c 0
 849.200195312 27 l 4
 849.200195312 -84 809.200195312 -169 631.200195312 -169 c 4
 47.2001953125 -169 l 5
 47.2001953125 -44 l 5
 658.200195312 -43.6669921875 l 6xe0e0
EndSplineSet
Refer: 63 2958 N 1 0 0 1 0 0 2
EndChar

StartChar: tml_Nnna
Encoding: 333 2985 76
Width: 1102
VWidth: 0
Flags: W
HStem: -14 125<168.093 190 245 267.305 560.096 582 637 659.309> 0 21G<838.204 963.204> 494.662 92.3379<838.204 963.204> 495 125<235.317 343 398 502.222 724.093 766 820 838.204 963.204 1062>
VStem: 41 125<112.818 158 297 422.827> 269 125<114.585 344.418> 433.204 125<113.793 408.626> 661.204 125<115.39 405.242> 838.204 125<0 587>
LayerCount: 3
Fore
SplineSet
766 495.666015625 m 5x0f80
 683.111382741 495.666015625 557.99782345 488.014519434 558.204101562 297 c 6
 558.204101562 159 l 4
 558.204101562 147 556 112 582 112 c 5
 582 -13.3203125 l 4
 485 -13.3203125 433.204101562 71 433.204101562 158 c 5
 433.204101562 295 l 6
 433.204101562 605.037676898 705.854147266 621 766 621 c 5
 766 495.666015625 l 5x0f80
398 620 m 5x1f80
 543 620 786.204101562 600 786.204101562 308 c 6
 786.204101562 158 l 4
 786.204101562 64 736 -13.3203125 637 -13.3203125 c 5
 637 112 l 4
 666 112 661.204101562 147 661.204101562 158 c 4
 661.204101562 297 l 6
 661.204101562 487 533.833007812 494 398 495 c 5
 398 620 l 5x1f80
343 620 m 5
 272.167393783 620 41 610.546684257 41 297 c 6
 41 157 l 5
 41 70 93 -14 190 -14 c 4
 190 111 l 5x9f80
 164 111 166 146 166 158 c 4
 166 297 l 6
 165.791732767 487.816631259 260.582353157 495 343 495 c 5
 343 620 l 5
302.325195312 447 m 5
 371.166992188 447 394 387.416992188 394 297 c 6
 394 157.185546875 l 4
 394 63.185546875 344 -14 245 -14 c 5
 245 111.185546875 l 4
 274 111.185546875 269 146.185546875 269 157.185546875 c 4
 269 297 l 6
 269 350.109375 237 350 215 350.088867188 c 5
 212 385 244 442 302.325195312 447 c 5
820 620 m 1
 1062 620 l 1x1f80
 1062 493.833007812 l 1
 820 494.662109375 l 1x2f80
 820 620 l 1
838.204101562 0 m 1x6f80
 838.204101562 587 l 1
 963.204101562 587 l 1
 963.204101562 0 l 1
 838.204101562 0 l 1x6f80
EndSplineSet
EndChar

StartChar: tml_Nna
Encoding: 334 2979 77
Width: 1496
VWidth: 0
Flags: W
HStem: -12.3203 125.32<167.146 195 236 264.597 559.415 587.204 628.204 656.801 957.799 981.204 1022.2 1050.8> 1 21G<1232.2 1357.2> 495.662 125.338<226.738 357 397 494.654 727.999 780 820 889.825 1126.81 1174 1214 1232.2 1357.2 1456> 495.662 92.3379<1232.2 1357.2>
VStem: 40 125<113.818 159 307 423.882> 268 125<115.585 354.418> 432.204 125<114.793 416.88> 660.204 125<116.39 414.855> 826.204 125<115.793 417.827> 1054.2 125<117.39 415.77> 1232.2 125<1 588>
LayerCount: 3
Fore
SplineSet
1214 621 m 1x2fe0
 1456 621 l 1
 1456 494.833007812 l 1
 1214 495.662109375 l 1
 1214 621 l 1x2fe0
1174 495.666015625 m 1
 1076.42631655 495.666015625 950.998027517 498.825552101 951.204101562 308 c 2
 951.204101562 161 l 0
 951.204101562 149 949.204101562 114 982.204101562 114 c 1
 981.204101562 -11.3203125 l 0
 877.204101562 -11.3203125 826.204101562 73 826.204101562 160 c 1
 826.204101562 306 l 2
 826.204101562 615.925274475 1100.05425226 621 1174 621 c 1
 1174 495.666015625 l 1
820 620 m 1
 959 620 1179.20410156 611 1179.20410156 319 c 2
 1179.20410156 160 l 0
 1179.20410156 66 1129.20410156 -11.3203125 1022.20410156 -11.3203125 c 1
 1022.20410156 114 l 0
 1059.20410156 114 1054.20410156 149 1054.20410156 160 c 0
 1054.20410156 308 l 2
 1054.20410156 498 949.833007812 494 820 495 c 1
 820 620 l 1
1232.20410156 1 m 1x5fe0
 1232.20410156 588 l 1
 1357.20410156 588 l 1
 1357.20410156 1 l 1
 1232.20410156 1 l 1x5fe0
780 495 m 1
 682.426316554 495 556.998027517 497.825552101 557.204101562 307 c 2
 557.204101562 160 l 0
 557.204101562 148 555.204101562 113 588.204101562 113 c 1
 587.204101562 -12.3203125 l 0x8fe0
 483.204101562 -12.3203125 432.204101562 72 432.204101562 159 c 1
 432.204101562 305 l 2
 432.204101562 614.925274475 706.05425226 620 780 620 c 1
 780 495 l 1
397 621 m 1xafe0
 542 621 785.204101562 610 785.204101562 318 c 2
 785.204101562 159 l 0
 785.204101562 65 735.204101562 -12.3203125 628.204101562 -12.3203125 c 1
 628.204101562 113 l 0
 665.204101562 113 660.204101562 148 660.204101562 159 c 0
 660.204101562 307 l 2
 660.204101562 497 532.833007812 495 397 496 c 1
 397 621 l 1xafe0
357 621 m 1
 273.678708698 621 40 627.959425807 40 307 c 2
 40 158 l 1
 40 71 91 -13 195 -13 c 0
 196 112 l 1
 163 112 165 147 165 159 c 0
 165 307 l 2
 164.783761074 505.120380195 263.359021898 496 357 496 c 1
 357 621 l 1
301.325195312 457 m 1
 370.166992188 457 393 397.416992188 393 307 c 2
 393 158.185546875 l 0
 393 64.185546875 343 -13 236 -13 c 1
 236 112.185546875 l 0
 273 112.185546875 268 147.185546875 268 158.185546875 c 0
 268 307 l 2
 268 360.109375 236 360 214 360.088867188 c 1
 211 395 243 452 301.325195312 457 c 1
EndSplineSet
EndChar

StartChar: tml_Ma
Encoding: 335 2990 78
Width: 679
VWidth: 0
Flags: HW
HStem: 0 126<165 249 374 415 470 508.878> 109.065 17<40 165> 125 1<249 374> 495 125<380.164 415 470 507.235>
VStem: 40 125<126.065 609.065> 249 125<125.023 491.595> 515 126<133.108 489.748>
LayerCount: 3
Fore
SplineSet
470 126 m 1x9e
 511 126 513.78125 160.014648438 514 182.940429688 c 2
 514 444 l 0
 514 468 512 495 470 495 c 1
 470 620 l 1
 560 620 639 577 639 444 c 0
 639 202 l 0
 639 52 553 0 470 0 c 0
 470 126 l 1x9e
415 620 m 1
 415 495 l 17
 380 495 374 469.396484375 374 444 c 2
 374 125.0234375 l 1
 249 125 l 0x3e
 249 444 l 0
 248 584 332 620 415 620 c 1
40 109.065429688 m 1x5e
 40 609.065429688 l 1
 165 609.065429688 l 1
 165 109.065429688 l 1
 40 109.065429688 l 1x5e
415 0 m 1x9e
 40 0 l 1x9e
 40 126.065429688 l 1x5e
 415 126 l 1
 415 0 l 1x9e
EndSplineSet
EndChar

StartChar: tml_Llla
Encoding: 336 2996 79
Width: 679
VWidth: 0
Flags: HW
HStem: -148.35 125.683<376.402 572> 0 126<165 249 374 415 470 508.878> 109.065 17<40 165> 125 1<249 374> 495 125<380.164 415 470 507.235>
VStem: 40 125<126.065 609.065> 249 125<125.023 491.595> 515 126<133.108 489.748>
LayerCount: 3
Fore
SplineSet
179 -69 m 1x8f
 54 -69 l 1
 54 -196 188 -266 335 -169 c 1
 288 -164 241 -122 237 -89 c 1
 219 -105 180 -94 179 -69 c 1x8f
249 1.3330078125 m 1
 374 1.3330078125 l 1
 374 -29 410 -22.6669921875 572 -22.6669921875 c 1
 572 -149 l 0
 439 -148.349609375 l 1
 270.846679688 -148.879882812 249.149414062 -61.4599609375 249 1.3330078125 c 1
EndSplineSet
Refer: 78 2990 N 1 0 0 1 0 0 2
EndChar

StartChar: tml_Aa
Encoding: 337 2950 80
Width: 1251
VWidth: 0
Flags: HW
HStem: -300 125<592 1090.4> -130 125<212 399 456 678> 210 122<216 259 349 349 510 697 780 876> 382 125<385.853 466.148> 575 125<393 653.118>
VStem: 40 125<17.6118 196.369> 230 119<210 477> 510 113<222 332> 697 125<33.9346 210 387 501.397> 780 42<210 332> 873 125<-110 210 332 592> 873 3<210 332> 1099 125<-163.306 67.0572>
LayerCount: 3
Back
SplineSet
822 393 m 13xff88
 822 387 l 5
 697 387 l 5
 697 393 l 4
 697 501.397460938 653.118164062 575 528 575 c 4
 393 575 355 477 355 331 c 5
 230 312 l 5
 230 320.543945312 230.025390625 386.865234375 230 395 c 4
 229.391601562 591 365.547851562 700.134765625 528 700 c 5
 712.377929688 700 822 577.788085938 822 393 c 13xff88
454.5 113 m 5
 454.5 241 l 5
 476.615234375 249.5703125 497.892578125 276.977539062 497.892578125 310.106445312 c 4
 497.892578125 350.25390625 466.1484375 382 426 382 c 4
 385.852539062 382 354.106445312 350.25390625 354.106445312 310.106445312 c 4
 354.106445312 276.735351562 376.040039062 249.169921875 399.5 240.815429688 c 5
 399.5 113 l 5
 313.5 113 230 210 230 281 c 4
 230 328 l 6
 230 409.506835938 329.282385601 506.96321849 423 507 c 4
 532.482421875 507.04296875 623 418.078125 623 334 c 6
 623 281 l 6
 623 222 538.5 113 454.5 113 c 5
510 332 m 5
 594.333007812 332 737.666992188 332 822 332 c 5xff48
 823 69 l 5
 823 -35.3046875 751 -130 622 -130 c 4
 456 -130 l 4
 456 -5 l 21
 610 -5 l 4
 678 -4.4453125 697 33.9345703125 697 69 c 5
 697 210 l 5
 655 210 552 210 510 210 c 5
 510 332 l 5
399 -5 m 5
 399 -130 l 5
 248 -130 l 4
 133 -130 40 -14.3388671875 40 108 c 4
 40 226.737304688 126 334 259 334 c 6
 349 334 l 5
 349 209 l 5
 241 209 l 4
 216 209 165 166 165 107.537109375 c 4
 165 49.5625 212 -5 259 -5 c 4
 399 -5 l 5
780 332 m 5
 876 332 l 5
 876 210 l 5xff58
 780 210 l 5
 780 332 l 5
873 592 m 5xff28
 998 592 l 5
 998 -110 l 5
 873 -110 l 5
 873 592 l 5xff28
822 393 m 13xff88
 822 387 l 5
 697 387 l 5
 697 393 l 4
 697 501.397460938 653.118164062 575 528 575 c 4
 393 575 355 477 355 331 c 5
 230 312 l 5
 230 320.543945312 230.025390625 386.865234375 230 395 c 4
 229.391601562 591 365.547851562 700.134765625 528 700 c 5
 712.377929688 700 822 577.788085938 822 393 c 13xff88
454.5 113 m 5
 454.5 241 l 5
 476.615234375 249.5703125 497.892578125 276.977539062 497.892578125 310.106445312 c 4
 497.892578125 350.25390625 466.1484375 382 426 382 c 4
 385.852539062 382 354.106445312 350.25390625 354.106445312 310.106445312 c 4
 354.106445312 276.735351562 376.040039062 249.169921875 399.5 240.815429688 c 5
 399.5 113 l 5
 313.5 113 230 210 230 281 c 4
 230 328 l 6
 230 409.506835938 329.282385601 506.96321849 423 507 c 4
 532.482421875 507.04296875 623 418.078125 623 334 c 6
 623 281 l 6
 623 222 538.5 113 454.5 113 c 5
510 332 m 5
 594.333007812 332 737.666992188 332 822 332 c 5xff48
 823 69 l 5
 823 -35.3046875 751 -130 622 -130 c 4
 456 -130 l 4
 456 -5 l 21
 610 -5 l 4
 678 -4.4453125 697 33.9345703125 697 69 c 5
 697 210 l 5
 655 210 552 210 510 210 c 5
 510 332 l 5
399 -5 m 5
 399 -130 l 5
 248 -130 l 4
 133 -130 40 -14.3388671875 40 108 c 4
 40 226.737304688 126 334 259 334 c 6
 349 334 l 5
 349 209 l 5
 241 209 l 4
 216 209 165 166 165 107.537109375 c 4
 165 49.5625 212 -5 259 -5 c 4
 399 -5 l 5
780 332 m 5
 876 332 l 5
 876 210 l 5xff58
 780 210 l 5
 780 332 l 5
873 592 m 5xff28
 998 592 l 5
 998 -110 l 5
 873 -110 l 5
 873 592 l 5xff28
1031 -174.666992188 m 6
 1095 -174.631835938 1099 -154 1099 -104 c 4
 1099 22 l 6
 1099.47070312 69.025390625 1096 70 1053 70 c 4
 1053 195 l 5
 1146 195 1224 173 1224 22 c 4
 1224 -104 l 4
 1224 -215 1182 -300 1004 -300 c 4
 592 -300 l 5
 592 -175 l 5
 1031 -174.666992188 l 6
EndSplineSet
Fore
SplineSet
1031 -138.666992188 m 2
 1095 -138.631835938 1099 -118 1099 -68 c 0
 1099 22 l 2
 1099.47070312 69.025390625 1096 70 1053 70 c 0
 1053 195 l 1
 1146 195 1224 173 1224 22 c 0
 1224 -68 l 0
 1224 -179 1182 -264 1004 -264 c 0
 699 -264 l 1
 699 -139 l 1
 1031 -138.666992188 l 2
EndSplineSet
Refer: 64 2949 N 1 0 0 1 0 0 2
EndChar

StartChar: tml_I
Encoding: 338 2951 81
Width: 1171
VWidth: 0
Flags: HW
HStem: -144 122<198.882 306 562 777.999> 36 124<474.035 506 561 591.089> 134 11<212 313> 139 125<215.348 284 313 350 351 441 675 803 928 983.156> 144 92<186 223.309> 286 125<517.049 592.367> 434 124<547.877 727.885> 597.501 125.536<512.62 755.433>
VStem: 40 124<9.35304 124.898> 350 91<133 261> 675 55<139 264> 803 125<-0.263075 139 316 368.256> 967 125<316 416.122> 1005 126<5.20024 118.187>
LayerCount: 3
Back
SplineSet
803 316 m 1x87f0
 803 362 742.235351562 434 633 434 c 0
 537 434 475 369 475 269 c 1
 350 256 l 1
 350 474 493.063476562 553.977539062 633 558 c 1
 779.377929688 558 928 461.788085938 928 316 c 1
 803 316 l 1x87f0
631 723.037109375 m 0
 825.073242188 723.453125 1092 603.749023438 1092 316 c 1
 967 316 l 1
 967 548.740234375 721.314453125 597.950195312 635 597.500976562 c 0
 478.86328125 596.6875 310 503 310 257.192382812 c 0
 179 236 l 1x8ff8
 179 561 396.525390625 722.534179688 631 723.037109375 c 0
506 -22 m 1
 392 -84 l 0
 296 -94 186 37 186 144 c 1x8ff0
 313 145 l 1xa7f0
 325 72 407 -2 506 -22 c 1
675 264 m 1x97f0
 759.333007812 264 843.666992188 264 928 264 c 1
 928 52 l 1
 928 -52.3046875 856 -144 727 -144 c 0
 562 -144 l 0
 561 -22 l 17
 715 -22 l 0
 783 -21.4453125 803 16.9345703125 803 52 c 1
 803 139 l 1
 761 139 717 139 675 139 c 1
 675 264 l 1x97f0
561 160 m 1xc7f0
 588 160.333007812 607 195 607 224 c 0
 607 250 586 286 553 286 c 0
 548.01953125 286 518.705078125 285 513 285 c 0
 483 285 459 255 459 224 c 0
 459 190 484 160.333007812 506 160 c 1
 506 36 l 17
 403 36 351 133 351 172 c 0
 350 256 l 2
 350 337.506835938 455.282226562 411 553 411 c 0
 646 411 730 319 730 243 c 0
 730 174 l 2
 730 124 655 36 561 36 c 9
 561 160 l 1xc7f0
506 -22 m 1
 506 -144 l 1
 306 -144 l 0
 120 -144 40 -47.3388671875 40 60 c 0
 40 182 144 261 284 261 c 2
 441 261 l 1
 441 133 l 1
 254 134 l 0xa7f0
 212 134 164 104 164 59.537109375 c 0
 164 22.5625 195 -22 264 -22 c 0
 506 -22 l 1
928 264 m 1x97f4
 1070 264 1131 181 1131 75 c 2
 1131 40 l 1
 1131 -38.3203125 1050 -154.400390625 894 -135 c 1
 952 -12 l 1
 999 0 1005 36 1005 67.9833984375 c 0
 1005 115 968 138.983398438 928 138.983398438 c 1
 928 264 l 1x97f4
EndSplineSet
Fore
SplineSet
629 822.037109375 m 0
 930 822.037109375 1109 651.749023438 1101 250 c 1
 976 250 l 1
 984 554.740234375 888 696.500976562 633 696.500976562 c 0
 323.1467 696.500976562 249 430.68359375 359 134.192382812 c 1
 227 120 l 1x8ff8
 117 521.78515625 271.7216722 822.037109375 629 822.037109375 c 0
506 -57 m 1
 383 -122 l 0
 319 -55 272 16 235 106 c 1x8ff0
 374 107 l 1xa7f0
 397 56 435 -14 506 -57 c 1
928 226 m 1x97f4
 1070 226 1131 143 1131 37 c 2
 1131 2 l 1
 1131 -76.3203125 1050 -192.400390625 894 -173 c 1
 952 -50 l 1
 999 -38 1005 -2 1005 29.9833984375 c 0
 1005 77 968 100.983398438 928 100.983398438 c 1
 928 226 l 1x97f4
929 350 m 9x9f80
 929 216 l 1
 804 216 l 1
 804 354 l 0
 804 462.397460938 762.118164062 535 637 535 c 0
 544.630859375 535 499 493 499 446 c 0
 499 399 529 369 570 369 c 0
 616.09375 369 657 391 657 458 c 0
 743 367 l 0
 738 302 662 244 570 244 c 0
 478 244 374 309 374 446 c 0
 374 569 478.745117188 660 637 660 c 0
 821.377929688 660 929 546.788085938 929 350 c 9x9f80
561 224 m 1xbf80
 645.333007812 224 844.666992188 224 929 224 c 1xbf40
 930 17 l 1
 930 -87.3046875 858 -182 729 -182 c 0
 563 -182 l 0
 563 -57 l 17
 717 -57 l 0
 785 -56.4453125 804 -18.0654296875 804 17 c 1
 804 102 l 1
 762 102 603 102 561 102 c 1
 561 224 l 1xbf80
506 -57 m 1
 506 -182 l 1
 246 -182 l 0
 131 -182 38 -100.338867188 38 22 c 0
 38 140.737304688 124 226 257 226 c 2
 505 226 l 1
 505 101 l 1
 239 101 l 0
 214 101 163 80 163 21.537109375 c 0
 163 -32.4375 210 -57 257 -57 c 0
 506 -57 l 1
EndSplineSet
EndChar

StartChar: tml_Ka
Encoding: 339 2965 82
Width: 838
VWidth: 0
Flags: W
HStem: -11 126<190.697 284 339 410.762> 1.84473 127.32<585 670.334> 255 125<185.008 234 302 670.296> 356 24<177 302> 481 128<303 343 398 438 563 698> 481 73<438 563>
VStem: 49 124<131.529 249.637> 177 166<481 609> 177 125<356 481> 438 125<140.513 554> 680 125<137.861 246.572>
LayerCount: 3
Fore
SplineSet
339 -11 m 9x8660
 339 115 l 1
 407 115 438 145.0234375 438 191.940429688 c 0
 438 554 l 1
 563 554 l 1
 563 196 l 2
 563 98.0185546875 510 -11 339 -11 c 9x8660
177 356 m 17x12e0
 177 552 l 1x1360
 303 552 l 1
 302 356 l 1
 177 356 l 17x12e0
398 609 m 1x0a60
 698 609 l 1
 698 481 l 1
 398 481 l 1
 398 609 l 1x0a60
177 609 m 1x0b60
 343 609 l 1
 343 481 l 1x0b60
 177 481 l 1x0760
 177 609 l 1x0b60
234 255 m 2x6260
 185.0078125 255 173 245 173 192.940429688 c 0
 173 130.165039062 193 114.977539062 284 115 c 1
 284 -11 l 1xa260
 123 -11 49 69.7568359375 49 161 c 0
 49 245.814453125 l 0
 49 355 143 380 231 380 c 0
 617 380 l 0
 726 380 805 358 805 241.165039062 c 2
 805 160.165039062 l 0
 805 62 720 1.6796875 583 1.8447265625 c 1
 585 129.165039062 l 0
 663 129.165039062 680 132 680 189 c 0
 680 244.0078125 668 255 626 255 c 2
 234 255 l 2x6260
EndSplineSet
EndChar

StartChar: tml_Ca
Encoding: 340 2970 83
Width: 744
VWidth: 0
Flags: W
HStem: -1 126<175.967 275 330 408.044> 255 125<178.008 244 293 658> 356 24<168 293> 481 128<294 335 390 704> 481 121<429 554>
VStem: 40 124<135.943 247.167> 168 167<481 609> 168 125<380 481> 429 125<145.894 602>
LayerCount: 3
Fore
SplineSet
658 380 m 9xc480
 658 255 l 1
 244 255 l 2
 178.0078125 254.795898438 164 245 164 192.940429688 c 0
 164 130.165039062 184 124.977539062 275 125 c 1
 275 -1 l 1
 114 0 40 69.7568359375 40 161 c 0
 40 222.814453125 l 0
 40 333 153 380 241 380 c 0
 658 380 l 9xc480
330 -1 m 9
 330 125 l 1
 398 125 429 145.0234375 429 191.940429688 c 0
 429 602 l 1
 554 602 l 1x8c80
 554 196 l 2
 554 98.0185546875 501 -1 330 -1 c 9
168 356 m 17xa580
 168 600 l 1xa680
 294 600 l 1
 293 356 l 1
 168 356 l 17xa580
390 609 m 1x9480
 704 609 l 1
 704 481 l 1
 390 481 l 1
 390 609 l 1x9480
168 609 m 1x9680
 335 609 l 1
 335 481 l 1x9680
 168 481 l 1x8e80
 168 609 l 1x9680
EndSplineSet
EndChar

StartChar: tml_Ta
Encoding: 341 2980 84
Width: 809
VWidth: 0
Flags: W
HStem: -162 125<277.103 613.665> 2 126<174.83 275 330 408.044> 257 126<186.003 244 578 620.386> 359 24<168 241>
VStem: 40 126<138.741 169 210 247.63> 133 131<-262 -173.221> 626 125<-29.0284 155>
LayerCount: 3
Fore
SplineSet
751 155 m 1xc6
 751 25 l 0
 751 -43 730 -162 573 -162 c 0
 320 -162 l 2
 277.76953125 -162 264 -184.648665781 264 -262 c 1
 133 -262 l 1
 133 -109.234110663 197.620117188 -37 337 -37 c 2
 572 -37 l 0
 622 -37 625 -6 625 25 c 0
 626 155 l 1
 751 155 l 1xc6
40 169 m 9xca
 166 169 l 17
 173.004882812 131.557617188 200.586914062 127.981445312 275 128 c 1
 275 2 l 1
 111.241210938 2 40 74.08984375 40 169 c 9xca
578 383 m 1xea
 241 383 l 2
 142 383 40 332.463983635 40 210 c 9
 164 210 l 17
 164 250.741210938 186.002500486 258.167622831 244 258 c 2
 590 257 l 1
 633 257 626 210 626 210 c 6
 751 210 l 5
 751 361 671 383 578 383 c 1xea
330 2 m 17
 501 2 554 101.018554688 554 199 c 2
 554 605 l 1
 429 605 l 1
 429 194.940429688 l 0
 429 148.0234375 398 128 330 128 c 1
 330 2 l 17
168 359 m 9xd2
 293 359 l 1
 294 603 l 1
 168 603 l 1
 168 359 l 9xd2
389 609 m 1
 389 484 l 1
 689 484 l 1
 689 609 l 1
 389 609 l 1
168 609 m 1
 168 484 l 1
 334 484 l 1
 334 609 l 1
 168 609 l 1
EndSplineSet
EndChar

StartChar: uni0D86
Encoding: 342 3462 85
Width: 1024
VWidth: 0
LayerCount: 3
Fore
SplineSet
526 463 m 1
 449.005859375 442.508789062 455.724609375 417.513671875 454.791992188 377 c 0
 454 139.5078125 l 1
 526 139.5078125 l 1
 526 0 l 1
 454 -0.1201171875 l 1
 454 -205 l 1
 324 -205 l 1
 324 409 l 0
 324.252929688 494.813476562 371.529296875 575.489257812 526 605 c 1
 526 463 l 1
185 220.278320312 m 1
 184.859375 168.165039062 226.416992188 136.204101562 269 136 c 0
 269 0 l 0
 149.319335938 0 42.9111328125 82.041015625 42.447265625 222 c 0
 42.03125 347.57421875 137.70703125 439.055664062 269 438.552734375 c 2
 324.553710938 438.33984375 l 1
 324.524414062 461.627929688 277.994140625 491 218 491 c 0
 172.872070312 491 123.5078125 473.150390625 91 440 c 1
 91.9990234375 568.38671875 l 1
 117.666992188 591.94140625 164.05078125 613.017578125 242.857421875 613.017578125 c 0
 339.625 613.017578125 455 556.27734375 455 414 c 1
 454 304 l 1
 265.690429688 303.884765625 l 2
 232.274414062 303.864257812 185.2109375 277.826171875 185 220.278320312 c 1
580.825195312 603.874023438 m 5
 814.87890625 603.874023438 l 5
 815 472 l 5
 758.293945312 399.892578125 701 327.677734375 701 218 c 4
 701 107.9453125 793.663085938 122.098632812 819 130 c 5
 819 8 l 5
 737 -12.3818359375 654.318359375 13.6396484375 611 67 c 4
 524.297851562 171.298828125 595.9453125 381.045898438 657.279296875 465.561523438 c 5
 580.823242188 465.561523438 l 5
 580.825195312 603.874023438 l 5
EndSplineSet
EndChar

StartChar: uni0D87
Encoding: 343 3463 86
Width: 1024
VWidth: 0
LayerCount: 3
Fore
SplineSet
504 463 m 1
 427.005859375 442.508789062 433.724609375 417.513671875 432.791992188 377 c 0
 432 139.5078125 l 1
 504 139.5078125 l 1
 504 0 l 1
 432 -0.1201171875 l 1
 432 -205 l 1
 302 -205 l 1
 302 409 l 0
 302.252929688 494.813476562 349.529296875 575.489257812 504 605 c 1
 504 463 l 1
163 220.278320312 m 1
 162.859375 168.165039062 204.416992188 136.204101562 247 136 c 0
 247 0 l 0
 127.319335938 0 20.9111328125 82.041015625 20.447265625 222 c 0
 20.03125 347.57421875 115.70703125 439.055664062 247 438.552734375 c 2
 302.553710938 438.33984375 l 1
 302.524414062 461.627929688 255.994140625 491 196 491 c 0
 150.872070312 491 101.5078125 473.150390625 69 440 c 1
 69.9990234375 568.38671875 l 1
 95.6669921875 591.94140625 142.05078125 613.017578125 220.857421875 613.017578125 c 0
 317.625 613.017578125 433 556.27734375 433 414 c 1
 432 304 l 1
 243.690429688 303.884765625 l 2
 210.274414062 303.864257812 163.2109375 277.826171875 163 220.278320312 c 1
EndSplineSet
EndChar

StartChar: uni0D88
Encoding: 344 3464 87
Width: 1024
VWidth: 0
LayerCount: 3
Fore
SplineSet
504 463 m 1
 427.005859375 442.508789062 433.724609375 417.513671875 432.791992188 377 c 0
 432 139.5078125 l 1
 504 139.5078125 l 1
 504 0 l 1
 432 -0.1201171875 l 1
 432 -205 l 1
 302 -205 l 1
 302 409 l 0
 302.252929688 494.813476562 349.529296875 575.489257812 504 605 c 1
 504 463 l 1
163 220.278320312 m 1
 162.859375 168.165039062 204.416992188 136.204101562 247 136 c 0
 247 0 l 0
 127.319335938 0 20.9111328125 82.041015625 20.447265625 222 c 0
 20.03125 347.57421875 115.70703125 439.055664062 247 438.552734375 c 2
 302.553710938 438.33984375 l 1
 302.524414062 461.627929688 255.994140625 491 196 491 c 0
 150.872070312 491 101.5078125 473.150390625 69 440 c 1
 69.9990234375 568.38671875 l 1
 95.6669921875 591.94140625 142.05078125 613.017578125 220.857421875 613.017578125 c 0
 317.625 613.017578125 433 556.27734375 433 414 c 1
 432 304 l 1
 243.690429688 303.884765625 l 2
 210.274414062 303.864257812 163.2109375 277.826171875 163 220.278320312 c 1
EndSplineSet
EndChar

StartChar: uni0D89
Encoding: 345 3465 88
Width: 1024
VWidth: 0
LayerCount: 3
Fore
SplineSet
297 532 m 5xdc
 358.321289062 579 433 595 495 595 c 4
 644.546633184 595 784 511.257446435 784 364 c 10
 784 229 l 2
 784 85.3681640625 733.16796875 0 668 0 c 10
 600 0 l 1
 600 110 l 17
 657 110 660 155.364257812 660 233 c 2
 660 356 l 2
 660 437.995117188 575.421875 473.56640625 503 478 c 2
 484 478 l 2xbc
 447.962890625 478 383.135454998 465.318769937 322 393 c 2
 158 199 l 1
 160 167 149.057617188 108 215.407226562 108 c 0
 251.19140625 108 261 128.740234375 261 160 c 2
 261 200 l 1
 363 200 l 1
 363 162 l 2
 363 137.081054688 381.939453125 113.577148438 413.385742188 113.577148438 c 0
 432.908203125 113.577148438 462 122.30078125 462 184 c 2
 462 229 l 2
 462 301 328 293 328 293 c 1
 386 392 l 1
 462 392 566.196652379 361.917610401 566 254 c 2
 565.823242188 157 l 2
 565.727539062 89.9873046875 510.25 0 420 0 c 0
 341 0 317 32 317 32 c 0
 317 32 310 0 228.455078125 0 c 0
 99.455078125 0 84 113 84 113 c 1
 59.7685546875 85 l 1
 -21 157 l 1
 211 431 l 1
 203.03125 456.325195312 181.005859375 464.12890625 156.884765625 464.12890625 c 0
 118.145507812 464.12890625 74 444 74 444 c 1
 74 564 l 1
 119.283203125 580.981445312 158.681640625 588 190 588 c 0
 269.33984375 588 297 532 297 532 c 5xdc
EndSplineSet
EndChar

StartChar: uni0D8A
Encoding: 346 3466 89
Width: 1024
VWidth: 0
LayerCount: 3
Fore
SplineSet
541.5 -6.9091796875 m 0xe4
 697.439453125 6.16796875 761.983398438 128.96484375 762.732421875 285 c 0
 763.569335938 459.409179688 679.5 589 541.5 589 c 1
 541.5 447 l 1
 617.5 427 624.25 343.991210938 624.25 285 c 0
 624.25 241 615.1015625 158.474609375 541.5 135 c 1
 541.5 -6.9091796875 l 0xe4
494 447 m 17
 449 447 422.264648438 373 422.264648438 340.065429688 c 1
 461 308 l 1
 488.286132812 281.361328125 504 230 504 182 c 0
 504 65 456 -8 298 -8 c 1
 298 135 l 0
 337.30078125 136.145507812 362.270507812 139.142578125 361.96484375 175.815429688 c 0
 361.69140625 208.6171875 343.666992188 231.827148438 342 234 c 1
 298 262.694335938 l 1
 288.046875 277.155273438 279.426757812 317.3515625 279.379882812 348.321289062 c 0
 279.202148438 464.87109375 357 590 494 590 c 1
 494 447 l 17
250 -6.9091796875 m 0
 94.060546875 6.16796875 29.5163242447 128.964628643 28.767578125 285 c 0
 27.9306640625 459.409179688 112 589 250 589 c 1
 250 447 l 1
 174 427 170.25 343.990952868 170.25 285 c 0
 170.25 241 176.3984375 158.474609375 250 135 c 1
 250 -6.9091796875 l 0
EndSplineSet
EndChar

StartChar: uni0D8B
Encoding: 347 3467 90
Width: 1024
VWidth: 0
LayerCount: 3
Fore
SplineSet
254.498046875 754.517578125 m 1
 254.498046875 615.587890625 l 1
 216.625 611.391601562 175.286132812 603.088867188 148.998046875 547.115234375 c 1
 48 632.145507812 l 1
 85.380859375 702.681640625 152.130859375 754.323242188 254.498046875 754.517578125 c 1
309.498046875 615.708007812 m 1
 309.498046875 754.662109375 l 1
 524.84765625 754.489257812 558.5 547.458007812 558.5 366.627929688 c 0
 558.5 157.569335938 505.967773438 -4.8525390625 310.498046875 -5.0576171875 c 1
 310.498046875 139.919921875 l 1
 397.827148438 140.971679688 414.498046875 238.548828125 414.498046875 362 c 0
 414.498046875 518.208984375 393.698242188 606.91015625 309.498046875 615.708007812 c 1
254.498046875 140.5 m 1
 254.498046875 -5.5 l 1
 110.209960938 -5.5 31.7216796875 124.220703125 31.7216796875 250.768554688 c 0
 31.7216796875 375.692382812 102.369140625 497.64453125 254.498046875 498.54296875 c 1
 254.498046875 351.5 l 1
 213.984375 346.5 170.498046875 319.497070312 170.498046875 248 c 0
 170.498046875 192.58984375 203.786132812 141.1328125 254.498046875 140.5 c 1
EndSplineSet
EndChar

StartChar: uni0D8C
Encoding: 348 3468 91
Width: 1024
VWidth: 0
LayerCount: 3
Fore
SplineSet
478.565429688 -5.6044921875 m 0x8740
 428.975253131 -5.6044921875 384.781858984 7.3173828125 354.318359375 40.494140625 c 1
 326.431557807 6.8642578125 281.488491746 -5.9248046875 242.193359375 -5.9248046875 c 0
 114.457050589 -5.9248046875 55.2550061687 85.7116363973 54.2939453125 202 c 1
 195 202 l 1
 195 182.5 l 2
 195 136.684521233 227.00542088 124.681640625 245.223632812 124.681640625 c 0
 261.420894968 124.681640625 293.600500913 135.023173584 293.645507812 179.033203125 c 2
 293.720703125 251.075195312 l 1
 410.711914062 251.075195312 l 1
 410.522460938 186.025390625 l 2
 410.383562969 138.333985033 436.94531894 125.366115984 466.50390625 125.336914062 c 0
 486.028318176 125.317625239 512 143.012151331 512 185.5 c 2
 512 202 l 1
 652 202 l 1
 652 42.6521372434 576.946743083 -5.6044921875 478.565429688 -5.6044921875 c 0x8740
56.9462890625 295.5 m 1xa640
 16.5 295.5 l 1
 15.5 395.5 l 1
 205.973632812 395.5 l 1
 192.668468183 422.860620436 170.102125771 433.426442249 141.817990148 433.426442249 c 0
 119.923628789 433.426442249 94.603111015 427.095300697 67.5 417.322265625 c 1
 67.5 536.265625 l 1
 95.025891721 546.202515328 124.210954881 550.042688329 151.822991893 550.042688329 c 0
 197.460366134 550.042688329 239.276266765 540.490403792 261.25 528.759765625 c 0
 312.148718463 501.587575854 343 464.019033886 343 401 c 2
 343 296 l 1
 218 295.5 l 2xae40
 194.079327529 295.40431731 194 289.274863507 194 251 c 1
 54 251 l 1xc640
 54 267.051955755 54.6529832254 282.532440084 56.9462890625 295.5 c 1xa640
511.987304688 251 m 1xd6c0
 512 462 l 2
 512.000000256 462.008493434 l 0
 512.000000256 498.568842552 497.796868557 535.96979761 471.99609375 566 c 0
 458.731770557 581.438695661 436.672394297 596.633248645 400 603 c 1
 400.396872592 542.600514672 430.306499717 498 468.999023438 498 c 1
 469 409 l 1
 365.809134232 409.938563872 309.988202283 519.762813679 309 619 c 1
 284.082565544 622.480638222 259.964645096 623.685588777 233.874023438 623.706054688 c 1
 233.475585938 757.456054688 l 1
 421.349244255 756.559751102 544.004848102 739.482413526 606.001953125 624 c 0
 649.303255211 543.342381037 654 485.110852064 654 380 c 2
 654 251 l 1
 511.987304688 251 l 1xd6c0
EndSplineSet
EndChar

StartChar: uni0D8D
Encoding: 349 3469 92
Width: 1024
VWidth: 0
LayerCount: 3
Fore
SplineSet
121.125 25.431640625 m 1
 22 102 l 1
 22 102 80.3671875 197.000976562 176.6015625 197.000976562 c 0
 255.916992188 197.000976562 294.985351562 134.997070312 370.547851562 134.997070312 c 0
 438.922851562 134.997070312 483 185.918945312 483 292 c 0
 483 308.90625 482.717773438 346.5390625 468.056640625 373.318359375 c 1
 553 471 l 1
 589.09329144 423.979083394 607.5 381.617136401 607.5 296 c 0
 607.5 127.852539062 518.315429688 -0.5 372 -0.5 c 0
 263.567382812 -0.5 225.163084394 66.1790993454 180.37890625 66.0009765625 c 0
 148.459960938 65.8740234375 121.125 25.431640625 121.125 25.431640625 c 1
790.112304688 522.221679688 m 1
 811.05859375 543.473632812 845.801757812 562.508789062 898.69140625 562.508789062 c 0
 899.36328125 562.508789062 900.038087068 562.505988727 900.715820312 562.5 c 0
 998.6328125 561.634765625 1064.15200766 512.181639534 1064.5 405 c 2
 1065 251 l 1
 925 251 l 1
 924.965820312 353.958984375 l 0
 924.72265625 398.55859375 918.578125 420.5 888.010742188 420.5 c 1
 859.423828125 420.416015625 852.611328125 397.26953125 852.575195312 351.994140625 c 0
 852 251 l 1
 716.889648438 251 l 1
 717.5 350.00390625 l 1
 717.5 403.5625 699.393556851 420.362613286 678.516601562 420.508789062 c 0
 650.482421875 420.705078125 650 410 645.82421875 406.888671875 c 1
 585.700195312 507.639648438 l 1
 590.253798588 516.168682082 615.391450049 562.508789062 696.270507812 562.508789062 c 0
 741.393554688 562.508789062 771.481445312 543.091796875 790.112304688 522.221679688 c 1
924.483398438 202 m 1
 1064 202 l 1
 1063.48339844 180.500976562 l 4
 1062.82617188 55.5576171875 960.697265625 -6.5 844.194335938 -6.5 c 0
 698.779296875 -6.5 626.5 68.6357421875 626.5 164 c 0
 626.483398438 202 l 1
 766.483398438 202 l 1
 766.5 187 l 0
 766.5 140.99609375 810.192382812 125.5 843 125.5 c 0
 878.420898438 125.5 924.5 135.9296875 924.5 185 c 0
 924.483398438 202 l 1
337.703125 472.751953125 m 0
 302.038085938 472.396484375 263.847694291 454.283202631 263.196289062 404.125 c 0
 263.194335938 403.974609375 263.193359375 403.823242188 263.193359375 403.670898438 c 0
 263.193359375 324.659179688 339.297851562 315.978515625 392.416992188 361 c 1
 392 232 l 1
 275.282226562 169.892578125 128 257.203125 128 391 c 0
 128 528.413085938 229.399191426 602.5 339 602.5 c 0
 362.102367912 602.5 397.464602126 601.001065341 423 592 c 1
 566.100585938 760.552734375 l 1
 665.025390625 674.79296875 l 1
 440 412 l 1
 417.125 448.265625 380.319335938 472.755859375 338.560546875 472.755859375 c 0
 338.275390625 472.755859375 337.989258599 472.754804981 337.703125 472.751953125 c 0
EndSplineSet
EndChar

StartChar: uni0D8E
Encoding: 350 3470 93
Width: 1024
VWidth: 0
LayerCount: 3
Fore
SplineSet
289 530 m 1xb8
 350.822773186 602 430 595 456 595 c 2
 475 595 l 2
 603 595 708 496 708 340 c 10
 708 218 l 2
 708 74.3681640625 661.16796875 -1.18992511919e-14 564 0 c 10
 508 0 l 1
 508 110 l 17x78
 602 114 584 151 584 233 c 2
 584 340 l 2
 584 409.995117188 534.168945312 470.538085938 473 472 c 2
 449.712890625 473 l 2
 430.379882812 473.830078125 393.985680801 474.884651874 335.850585938 407 c 2
 168 211 l 1
 184 177 218.03125 119.008789062 260 117.6484375 c 2
 283 117 l 18
 326 117 355 150.34375 355 197 c 10
 355 230 l 2
 355 271 296 273 296 273 c 1
 368 361 l 1
 421 360 475.064453125 291.9921875 475 247 c 2
 474.823242188 183 l 18
 474.362030053 16.0055335745 331 0 331 0 c 2
 246 0 l 2
 155 0 91 122 91 122 c 1
 67 93 l 1
 0.001953125 192 l 1
 205 431 l 1
 184.233398438 497 49 444 49 444 c 1
 49 561 l 17
 209 621 289 530 289 530 c 1xb8
EndSplineSet
EndChar

StartChar: uni0D8F
Encoding: 351 3471 94
Width: 1024
VWidth: 0
LayerCount: 3
Fore
SplineSet
419.3515625 460 m 1
 303.3515625 460 l 1
 302.864962687 485.36735026 283.174272751 499 266 499 c 0
 245.864769912 499 226.576985677 483.64078776 226 460 c 1
 99.3515625 460 l 1
 99.3515625 547.271484375 154.017578125 608.017578125 261.857421875 608.017578125 c 0
 357.809570312 608.017578125 419.3515625 547.587890625 419.3515625 460 c 1
187.41796875 -48 m 1
 187.41796875 -145.443240893 247.4141338 -216.752929688 357.103515625 -216.752929688 c 0
 430.13388788 -216.752929688 469.624466359 -175.620442514 485 -155 c 1
 413.103515625 -60 l 1
 404.413208356 -83.2994633122 385.464788437 -94.9841233744 364.497038407 -94.9197330538 c 0
 336.915988746 -94.8350338072 315.590820312 -71.3166571918 315.590820312 -48.1328125 c 1
 187.41796875 -48 l 1
160.999975457 218.243212719 m 0
 160.999975457 271.247795331 197.553868335 293.884765625 248.690429688 293.884765625 c 2
 419.309570312 293.884765625 l 1
 419.309570312 420.33984375 l 1
 224.553710938 420.33984375 l 2
 95.8367898047 420.33984375 18.6344542211 344.162208003 18.6344542211 222.985794185 c 0
 18.6344542211 100.795362143 102.525699669 0 212 0 c 0
 285 -0.1279296875 l 0
 342.146051358 0.571958725849 389.613362229 26.106035777 423 57 c 1
 352 170 l 1
 323.583333333 143.538461538 302.945023403 140 267 140 c 0
 191.155172414 140 160.999975457 177.595542657 160.999975457 218.243212719 c 0
EndSplineSet
EndChar

StartChar: uni0D90
Encoding: 352 3472 95
Width: 1024
VWidth: 0
LayerCount: 3
Fore
SplineSet
322.6484375 527.002929688 m 1
 385.219462814 593.699684669 470.08203125 603.04296875 503.612304688 603.04296875 c 0
 643.395507812 603.04296875 772.5 512.537856191 772.5 292 c 0
 772.5 73.0664648725 693.165796482 -7.5 556.5 -7.5 c 1
 556.5 124.450195312 l 1
 629.940809195 124.941340436 640.857421875 196.666015625 640.857421875 291.325195312 c 0
 640.857421875 404.294921875 591.385742188 468.618164062 509.727539062 468.618164062 c 0
 458.953125 468.618164062 431.966796875 453.319335938 391.705078125 406.131835938 c 0
 313 315 l 1
 267.39453125 258.862304688 214.611328125 204.614257812 185.116210938 203.903320312 c 1
 192.998046875 173.556640625 222.764648438 113.5 307 113.5 c 0
 365.180664062 113.5 405.504882812 160.462890625 405.504882812 214 c 4
 405.504882812 271.072265625 384.010742188 287.51171875 361.272460938 306.569335938 c 1
 438.375976562 396.611328125 l 1
 519.574868392 349.892385643 536.760742188 268.739257812 536.760742188 212.631835938 c 0
 536.760742188 19.8857421875 381.181640625 -11.5 311 -11.5 c 0
 28.4892578125 -11.5 27.5322265625 361.28515625 27.462890625 366 c 1
 145 366 l 1
 145.69921875 349.986328125 150.004882812 322.672851562 151.998046875 317.452148438 c 1
 179.032226562 317.90625 237.384801479 390.184617553 237.384801479 426.286351318 c 0
 237.384765625 426.34375 l 1
 228.870117188 453.583007812 200.879882812 463.997070312 174.498046875 463.997070312 c 0
 124.940149138 463.997070312 97.0850323104 437.030751444 86.5 429.861328125 c 1
 86.5 566.197265625 l 1
 125.310221005 580.754019199 163.635012097 588.372070312 193.924804688 588.372070312 c 0
 267.513671875 588.372070312 309.315429688 544.0703125 322.6484375 527.002929688 c 1
EndSplineSet
EndChar

StartChar: uni0D91
Encoding: 353 3473 96
Width: 1024
VWidth: 0
LayerCount: 3
Fore
SplineSet
589.765625 460.07421875 m 5x9e
 453.924804688 460.07421875 l 5
 453.7890625 483.635742188 436.721679688 498.4296875 416.05078125 498.4296875 c 4
 391.760742188 498.4296875 377.421875 479.086914062 377.036132812 460.07421875 c 5
 255.577148438 460.07421875 l 5
 255.41796875 479.34375 241.758789062 498.5 215.704101562 498.5 c 4
 192.71484375 498.5 178.689453125 478.234375 178.689453125 460.07421875 c 5
 42.748046875 460.07421875 l 5
 42.748046875 552.983398438 107.4765625 611.5 205.747070312 611.5 c 4
 251.221679688 611.5 288.85546875 600.646484375 316.194335938 580.581054688 c 5
 347.087890625 605.818359375 392.78125 612.5 427.094726562 612.5 c 4
 532.0625 612.5 589.765625 549.266601562 589.765625 460.07421875 c 5x9e
473.061523438 202 m 5
 613 202 l 5
 612.838299281 63.8536854144 497.652616273 -6.5 308.538085938 -6.5 c 4
 98.8042183465 -6.5 19.2318086078 96.4525875185 19.1494140625 202 c 5
 159 202 l 5
 159 138 242.925914283 122.5 314 122.5 c 4
 379.394043632 122.5 473 134 473.061523438 202 c 5
423 294.666992188 m 6
 214 294.666992188 l 6
 182.602539062 294.666992188 159 294.666992188 159 251 c 5
 19.8828125 251 l 5
 20 376 93.5791015625 414 159 414 c 6
 432 414 l 6
 539.998538966 414 613 377.132431075 613 251 c 5
 474 251 l 5
 474 294.666992188 452.228515625 294.666992188 423 294.666992188 c 6
EndSplineSet
EndChar

StartChar: uni0D92
Encoding: 354 3474 97
Width: 1024
VWidth: 0
LayerCount: 3
Fore
SplineSet
221.498046875 754.517578125 m 1
 221.498046875 615.587890625 l 1
 183.625 611.391601562 142.286132812 603.088867188 115.998046875 547.115234375 c 1
 15 632.145507812 l 1
 52.380859375 702.681640625 119.130859375 754.323242188 221.498046875 754.517578125 c 1
277.998046875 757 m 0
 422.164476018 756.001953125 560.762412044 692.971679688 561.26171875 411 c 0
 560.999023438 252 l 1
 560.859375 88.5 516.260742188 -6.5166015625 372.120117188 -6.5166015625 c 0
 279.325195312 -6.5166015625 206.999023438 39.693359375 206.999023438 138 c 0
 206.999023438 208.708984375 236.999023438 221.935546875 236.999023438 267 c 0
 236.999023438 299.96875 213.732421875 314 188 314 c 0
 142.31640625 314 131.689453125 261.373046875 131.689453125 223 c 0
 131.689453125 183.794921875 137.827148438 138.087890625 178.999023438 138 c 1
 177.999023438 0 l 1
 26.177734375 0 -2.8056640625 127.296875 -2.8056640625 224.260742188 c 0
 -2.8056640625 337.533203125 58.8447265625 452 208.999023438 452 c 0
 273.360351562 452 371.999023438 423.219726562 371.999023438 290 c 0
 371.999023438 242.033203125 340.999023438 201.934570312 340.999023438 173 c 0
 340.999023438 143.7109375 354.650390625 127 378.999023438 127 c 0
 415.725585938 127 418.97265625 185 418.98046875 252 c 2
 418.999023438 418 l 2
 419.016166249 571.368610947 333.677690565 613.198242188 277.998046875 613 c 0
 277.998046875 757 l 0
EndSplineSet
EndChar

StartChar: uni0D93
Encoding: 355 3475 98
Width: 1024
VWidth: 0
LayerCount: 3
Fore
SplineSet
183 360 m 0
 165.578896857 360 159.431228727 321.064579371 159.431228727 289.136951824 c 0
 159.431228727 215.368783904 209.692811071 141.211766207 290.498046875 140.5 c 1
 290.498046875 -5.5 l 1
 157.790039062 -5.5 36.7216796875 120.220703125 36.7216796875 259.768554688 c 0
 36.7216796875 395.870117188 92.7933181135 498.543632457 183.984208423 498.543632457 c 0
 246.356234597 498.543632457 282.954220379 465.689965103 283 388 c 0
 283.009723721 371.827506443 286.201921413 361.138671851 302 361.138671875 c 0
 319.035446537 361.238076377 320.495448082 380.8777331 320.495448082 400.680172475 c 0
 320.495448082 422.510852898 315.777378275 454.363732952 302 498 c 1
 412 498 l 1
 421.447600425 453.637354528 424.637597084 418.004904182 424.637597084 390.324765581 c 0
 424.637597084 310.236264971 391.415204375 251 305 251 c 0
 246.088625668 251 193.02125593 274.284957521 193.02125593 343.43056469 c 0
 193.02125593 349.406959414 192.320615584 360 183 360 c 0
290.498046875 754.517578125 m 1
 290.498046875 615.587890625 l 1
 252.625 611.391601562 211.286132812 603.088867188 184.998046875 547.115234375 c 1
 84 632.145507812 l 1
 121.380859375 702.681640625 188.130859375 754.323242188 290.498046875 754.517578125 c 1
345.498046875 615.708007812 m 1
 345.498046875 754.662109375 l 1
 560.84765625 754.489257812 594.5 547.458007812 594.5 366.627929688 c 0
 594.5 157.569335938 541.967773438 -4.8525390625 346.498046875 -5.0576171875 c 1
 346.498046875 139.919921875 l 1
 441.384765625 140.971679688 459.498046875 238.548828125 459.498046875 362 c 0
 459.498046875 518.208984375 436.915039062 606.91015625 345.498046875 615.708007812 c 1
EndSplineSet
EndChar

StartChar: uni0D94
Encoding: 356 3476 99
Width: 1024
VWidth: 0
LayerCount: 3
Fore
SplineSet
278.344726562 386.174804688 m 2xbe
 278.344726562 419.226924939 282.479700252 448.419262798 290.312972086 473.84506915 c 0
 328.60212898 598.126813638 453.847146555 628.683664136 602.123312727 582.776317132 c 0
 605.664535929 581.679929448 l 1
 604.962189181 452.005436591 l 1
 598.373544093 454.271930502 l 0
 564.123406409 466.053977865 534.546584737 472.477362605 509.824997592 474.197439515 c 0
 447.159439858 478.557579433 417.087237216 453.597144695 414.1938218 410.091692781 c 1xbe
 509.648882736 409.999998106 l 0
 618.368328688 409.905379836 628.0812053 326.396794372 628.994695807 256.039521891 c 0
 629.060456592 250.974609375 l 1
 505.464788798 250.974609375 l 1xde
 505.290380551 255.79377502 l 0
 504.383598474 280.849545767 503.029940778 296.78978428 462.318894374 297.000066731 c 0
 278.344726562 297.95057049 l 1
 278.344726562 386.174804688 l 2xbe
629.3515625 206 m 2
 629.3515625 36.7907883087 549.172083161 -11.1044921875 455.916992188 -11.1044921875 c 0
 409.23589939 -11.1044921875 368.477245433 2.15345344066 340.562760325 36.5362610917 c 1
 315.101998743 1.84464360781 272.125445428 -11.4248046875 234.544921875 -11.4248046875 c 0
 109.04888615 -11.4248046875 42.3515625 78.4008467047 42.3515625 206 c 0
 42.3515625 211 l 1
 170.995117188 211 l 1
 170.995117188 206 l 0
 170.995117188 141.06219986 193.768757279 117.181640625 223.575195312 117.181640625 c 0
 257.187344839 117.181640625 279.098387148 133.03969993 279.497088727 184.021905454 c 1
 279.570137025 261.575195312 l 1
 394.557044077 261.575195312 l 1
 394.374079209 186.016977709 l 1
 394.828357244 136.707246764 418.784685661 117.859556334 452.85388087 117.836912976 c 0
 488.661381356 117.813316313 505.3515625 144.443893019 505.3515625 206 c 0
 505.3515625 211 l 1
 629.3515625 211 l 1
 629.3515625 206 l 2
266.844726562 481.071554367 m 1
 246.673627452 480.780792801 l 0
 225.625760181 480.477398579 182.624311584 457.329322156 171.282743144 389.179131378 c 0
 169.625082295 379.219140597 170.316522502 353.831095545 170.463828227 316.600793178 c 0
 170.722902605 250.974609375 l 1
 42.952723733 250.974609375 l 1xde
 43.6202952033 330.042191546 l 0
 44.2888217257 409.264544935 54.4911603773 473.652536158 74.3047528453 500.937896286 c 0
 138.741431703 589.674877531 213.230930705 603.897422682 250.464920671 602.637767332 c 0
 266.844726562 602.083740412 l 1
 266.844726562 481.071554367 l 1
EndSplineSet
EndChar

StartChar: uni0D95
Encoding: 357 3477 100
Width: 1024
VWidth: 0
LayerCount: 3
Fore
SplineSet
287 -5 m 1
 287 126 l 1
 294.5 126 l 0
 352.028320312 126 361.5 167.228515625 361.5 242 c 0
 361.5 366 l 0
 361.5 468.513671875 286.751953125 477.0546875 228.94921875 477.5 c 0
 212.030273438 477.586914062 l 5
 288.532226562 602.587890625 l 1
 306.017578125 602.5 l 0
 408.908203125 602.252929688 492.5 500.470703125 492.5 366 c 0
 492.5 250 l 0
 492.5 68.591796875 400.598632812 -5 294.5 -5 c 0
 287 -5 l 1
224.5 -5 m 2
 127.850585938 -5 26.5 67.091796875 26.5 246 c 0
 26.5 417 l 0
 26.5 454.560546875 32.7698254341 515.338758514 36.884765625 526.478515625 c 0
 65.40625 603.690429688 146.902052883 705.966967443 184.038085938 769.293945312 c 0
 195.396484375 788.663085938 202.698242188 804.388671875 203.909179688 812.594726562 c 0
 204.854492188 819 l 1
 348 819 l 1
 347.827148438 811.331054688 l 0
 347.424804688 793.502929688 335.805664062 769.563476562 319.461914062 740.84375 c 1
 276.306640625 664.643554688 162.497070312 524.565429688 162.497070312 474.030273438 c 1
 162.770507812 439.701171875 l 1
 162.456054688 233.061523438 l 0
 162.456054688 164.822265625 183.735351562 126 224.5 126 c 0
 232 126 l 1
 232 -5 l 1
 224.5 -5 l 2
EndSplineSet
EndChar

StartChar: uni0D96
Encoding: 358 3478 101
Width: 1024
VWidth: 0
LayerCount: 3
Fore
SplineSet
538.40234375 0 m 1
 641.784179688 -87 l 1
 568.477539062 -201.938476562 438.771484375 -210.322265625 382 -210.513671875 c 1
 382 -64.525390625 l 1
 395.432617188 -63.955078125 485.173828125 -66.380859375 538.40234375 0 c 1
326.856445312 -63.1767578125 m 1
 327.0078125 -209.5 l 1
 179.901367188 -209.5 21.361328125 -49.94921875 21.361328125 200.4765625 c 0
 21.361328125 407.565429688 94.083984375 608.50390625 327 608.50390625 c 1
 327 465.096679688 l 1
 206.73046875 453.293945312 160 356.7734375 160 201 c 0
 160 -6.5458984375 286.2890625 -57.705078125 326.856445312 -63.1767578125 c 1
400.5390625 251.756835938 m 1
 400.40234375 213 l 0
 400.40234375 183.749023438 422.659179688 160.4296875 452.53515625 160.4296875 c 0
 505.94140625 160.4296875 514.834960938 212.342773438 514.834960938 276.75390625 c 0
 514.834960938 391.551757812 476.602539062 456.743164062 382 464.576171875 c 1
 382.060546875 609.305664062 l 1
 515.234375 609.305664062 651 520.189453125 651 279 c 0
 651 139.505859375 593.4375 23.5 452.5 23.5 c 0
 333.051757812 23.5 269.032226562 106.478515625 268.232421875 204 c 0
 268.107421875 219.232421875 268.053710938 235.819335938 268.053710938 251.5 c 1
 210.053710938 251.5 l 5
 210 366 l 1
 482 366 l 1
 482.053710938 251.5 l 1
 400.5390625 251.756835938 l 1
EndSplineSet
EndChar

StartChar: uni0D9A
Encoding: 359 3482 102
Width: 1024
VWidth: 0
LayerCount: 3
Fore
SplineSet
225.5 759.517578125 m 1
 225.5 628.587890625 l 1
 218.088867188 628.500976562 l 0
 179.643554688 628.012695312 136.627929688 611.459960938 114.125976562 537.66015625 c 0
 111.254882812 528.918945312 l 1
 1.9296875 591.552734375 l 1
 3.890625 597.389648438 l 0
 34.2919921875 691.232421875 117.170898438 759.25 217.982421875 759.5 c 0
 225.5 759.517578125 l 1
225.5 127.5 m 1
 225.5 -4.5 l 1
 218 -4.5 l 0
 78.7841796875 -4.5 18.5 82.841796875 18.5 183.049804688 c 0
 18.5 231.837890625 21.376953125 282.686523438 77.119140625 325.688476562 c 0
 109.2421875 350.46875 141.887695312 361.17578125 193.137695312 368.611328125 c 1
 173.4375 381.834960938 114.346679688 389.954101562 65.0556640625 365.29296875 c 0
 54.2001953125 359.861328125 l 1
 54.2001953125 487.671875 l 1
 59.6572265625 489.216796875 l 0
 128.940429688 508.827148438 224.416992188 508.595703125 274.360351562 472.901367188 c 0
 301.115234375 453.779296875 331.083007812 416.19140625 331.21875 349.166015625 c 0
 331.415039062 251.87109375 l 1
 323.971679688 251.799804688 l 0
 222.940429688 250.841796875 145.770507812 252.026367188 145.5 185.768554688 c 0
 145.37109375 153.452148438 172.896484375 127.5 218 127.5 c 0
 225.5 127.5 l 1
532.5 409.75 m 2
 532.5 310.349609375 l 0
 532.5 129.057617188 454.280273438 -4.443359375 288.002929688 -4.5 c 0
 280.5 -4.5029296875 l 1
 280.5 127.370117188 l 1
 287.869140625 127.499023438 l 0
 334.017578125 128.3359375 398.326171875 180.860351562 398.5 313.227539062 c 0
 398.849609375 408.06640625 l 0
 399.00390625 480.7734375 382.830078125 620.916015625 287.5859375 626.51171875 c 0
 280.5 626.903320312 l 1
 280.5 758.5 l 1
 288 758.5 l 0
 463.833984375 758.5 532.5 613.130859375 532.5 409.75 c 2
EndSplineSet
EndChar

StartChar: uni0D9B
Encoding: 360 3483 103
Width: 1024
VWidth: 0
LayerCount: 3
Fore
SplineSet
617.763671875 451.82421875 m 2
 617.763671875 442.07421875 l 1
 496.922851562 442.07421875 l 1
 496.901367188 451.801757812 l 0
 496.83984375 480.123046875 489.51171875 487.4296875 455.048828125 487.4296875 c 0
 418.982421875 487.4296875 415.62109375 471.184570312 415.220703125 450.633789062 c 0
 415.034179688 441.07421875 l 1
 287.575195312 441.07421875 l 1
 287.553710938 450.801757812 l 0
 287.498046875 476.438476562 273.893554688 486.354492188 245.702148438 486.354492188 c 0
 210.1953125 486.354492188 206.158203125 466.243164062 205.874023438 451.633789062 c 0
 205.6875 442.07421875 l 1
 78.74609375 442.07421875 l 1
 78.74609375 451.82421875 l 0
 78.74609375 546.989257812 151.100585938 610.138671875 245.745117188 610.138671875 c 0
 288.52734375 610.138671875 323.799804688 597.678710938 349.193359375 577.595703125 c 1
 378.7578125 599.115234375 414.412109375 610.138671875 455.092773438 610.138671875 c 0
 557.547851562 610.138671875 617.763671875 541.142578125 617.763671875 451.82421875 c 2
651.498046875 220 m 0
 651.498046875 81.6953125 506.463867188 -6.33203125 359.006835938 -6.5 c 0
 149.283203125 -6.73828125 49.498046875 79.9921875 49.498046875 225 c 0
 49.498046875 348.905273438 158.155273438 413.5 227.998046875 413.5 c 0
 349.270507812 413.5 l 1
 250 296 l 1
 232.374023438 295.986328125 l 0
 216.727539062 296.305664062 180.14453125 290.734375 179.498046875 225.924804688 c 0
 178.616210938 137.484375 274.059570312 124.5 362.998046875 124.5 c 0
 427.965820312 124.5 528.228515625 148.630859375 531.6796875 218.91015625 c 0
 533.890625 263.932617188 525.694335938 297.875 454.078125 301 c 1
 403 242.556640625 l 1
 375.670898438 205.463867188 376.690429688 189.102539062 376.498046875 163.92578125 c 0
 377.424804688 156.569335938 l 1
 267.498046875 155.428710938 l 1
 267.498046875 163 l 0
 267.498046875 208.432617188 280.543945312 251.2265625 311 288 c 0
 419.837890625 413.716796875 l 1
 423.547851562 413.485351562 l 2
 620.327148438 401.208984375 651.498046875 310.793945312 651.498046875 220 c 0
EndSplineSet
EndChar

StartChar: uni0D9C
Encoding: 361 3484 104
Width: 1024
VWidth: 0
LayerCount: 3
Fore
SplineSet
649.765625 460.07421875 m 1x9e
 513.924804688 460.07421875 l 1
 513.7890625 483.635742188 496.721679688 498.4296875 476.05078125 498.4296875 c 0
 451.760742188 498.4296875 437.421875 479.086914062 437.036132812 460.07421875 c 1
 315.577148438 460.07421875 l 1
 315.41796875 479.34375 301.758789062 498.5 275.704101562 498.5 c 0
 252.71484375 498.5 238.689453125 478.234375 238.689453125 460.07421875 c 1
 102.748046875 460.07421875 l 1
 102.748046875 552.983398438 167.4765625 611.5 265.747070312 611.5 c 0
 311.221679688 611.5 348.85546875 600.646484375 376.194335938 580.581054688 c 1
 407.087890625 605.818359375 451.78125 612.5 486.094726562 612.5 c 0
 591.0625 612.5 649.765625 549.266601562 649.765625 460.07421875 c 1x9e
66 294.666992188 m 1xbe
 26 294.666992188 l 1
 26 414 l 1xbe
 559 414 l 2
 617.71484375 414 692.5 409.500976562 692.5 251 c 1
 553.5 251 l 1xde
 553.5 286.955078125 545.411132812 294.752929688 517 294.666992188 c 2
 242 294.666992188 l 2xbe
 209.077148438 294.666992188 201.5 288.9375 201.5 251 c 1
 63.5 251 l 1xde
 63.5 266.8671875 64.1025390625 281.74609375 66 294.666992188 c 1xbe
502.892578125 -5.609375 m 0
 451.500976562 -5.609375 407.649414062 8.8251953125 379.182617188 39.3291015625 c 1
 349.069335938 6.0595703125 299.875976562 -6.5 257.193359375 -6.5 c 0
 126.278320312 -6.5 63 79.2783203125 63 202 c 1
 202 202 l 1
 202 194.5 l 0
 202 140.5234375 234.313476562 126 260 126 c 0
 282.788085938 126 315.091796875 140.328125 315.5 191.041015625 c 1
 316.022460938 251 l 1
 439 251 l 1xde
 438.5 193.021484375 l 1
 438.986328125 144.234375 467.142578125 126.359375 498.50390625 126.336914062 c 0
 498.541992188 126.336914062 l 0
 525.264648438 126.336914062 554 146.625976562 554 194.5 c 0
 554 202 l 1
 693 202 l 1
 693 51.212890625 605.069335938 -5.609375 502.892578125 -5.609375 c 0
EndSplineSet
EndChar

StartChar: uni0D9D
Encoding: 362 3485 105
Width: 1024
VWidth: 0
LayerCount: 3
Fore
SplineSet
700 254 m 1
 806 166 l 1
 777.682080925 91.7328244275 691.915824313 24.9332276161 593 25 c 0
 392.772080374 25.1357421875 339.191958716 143.45490579 338.000976562 228 c 1
 451 318 l 1
 451 199.427901842 515.439655688 170 578 170 c 0
 645.443319238 170 678.641622121 186.816149964 700 254 c 1
843 412 m 1
 843 288 l 1
 457 288 l 2
 367.899648437 288 362 128 362 128 c 1
 362.013441938 18.2099609375 455.905381143 -57.2734375 578.04296875 -57.2734375 c 0
 667.446333063 -57.2734375 755.73289436 -31.2298994227 805 78 c 1
 912 -10 l 1
 829.201171875 -187.111328125 657.366210938 -207.009765625 598.6875 -207.009765625 c 0
 361.53125 -207.009765625 216 -97.6845703125 216 126 c 0
 216 322.407226562 336.540039829 410.544655287 495 411 c 2
 843 412 l 1
844.765625 460.07421875 m 1
 708.924804688 460.07421875 l 1
 708.7890625 483.635742188 691.721679688 498.4296875 671.05078125 498.4296875 c 0
 646.760742188 498.4296875 632.421875 479.086914062 632.036132812 460.07421875 c 1
 510.577148438 460.07421875 l 1
 510.41796875 479.34375 496.758789062 498.5 470.704101562 498.5 c 0
 447.71484375 498.5 433.689453125 478.234375 433.689453125 460.07421875 c 1
 434 460.07421875 l 1
 298 409.07421875 l 1
 297.748046875 460.07421875 l 1
 297.748046875 552.983398438 362.4765625 611.5 460.747070312 611.5 c 0
 506.221679688 611.5 543.85546875 600.646484375 571.194335938 580.581054688 c 1
 602.087890625 605.818359375 646.78125 612.5 681.094726562 612.5 c 0
 786.0625 612.5 844.765625 549.266601562 844.765625 460.07421875 c 1
EndSplineSet
EndChar

StartChar: uni0D9E
Encoding: 363 3486 106
Width: 1024
VWidth: 0
LayerCount: 3
Fore
SplineSet
34.8251953125 602.874023438 m 1
 268.87890625 602.874023438 l 1
 269 471 l 1
 212.293945312 398.892578125 155 326.677734375 155 217 c 0
 155 106.9453125 247.663085938 121.098632812 273 129 c 1
 273 7 l 1
 191 -13.3818359375 108.318359375 12.6396484375 65 66 c 0
 -21.7021484375 170.298828125 49.9453125 380.045898438 111.279296875 464.561523438 c 1
 34.8232421875 464.561523438 l 1
 34.8251953125 602.874023438 l 1
EndSplineSet
EndChar

StartChar: uni0D9F
Encoding: 364 3487 107
Width: 1024
VWidth: 0
LayerCount: 3
Fore
SplineSet
105 540 m 0
 -7 540 l 4
 -5.552734375 559.34375 -6 595.937349531 -6 618 c 0
 -6 670 -65.3369140625 676 -140 676 c 0
 -217.341796875 676 -277 643.231445312 -277 608 c 0
 -277 549.78125 -278 540 -278 540 c 1
 -390 540 l 1
 -390 560 -391 591.814064947 -391 618 c 0
 -391 741.171512963 -270 780 -140 780 c 0
 -15.7978515625 780 106 753 106 628 c 0
 106 590.223632812 105.575195312 553.360351562 105 540 c 0
EndSplineSet
EndChar

StartChar: uni0DA0
Encoding: 365 3488 108
Width: 1024
VWidth: 0
LayerCount: 3
Fore
SplineSet
121.125 25.431640625 m 1
 22 102 l 1
 22 102 80.3671875 197.000976562 176.6015625 197.000976562 c 0
 255.916992188 197.000976562 294.985351562 134.997070312 370.547851562 134.997070312 c 0
 438.922851562 134.997070312 483 185.918945312 483 292 c 0
 483 308.90625 482.717773438 346.5390625 468.056640625 373.318359375 c 1
 553 471 l 1
 589.09375 423.979492188 607.5 381.6171875 607.5 296 c 0
 607.5 127.852539062 518.315429688 -0.5 372 -0.5 c 0
 263.567382812 -0.5 225.163085938 66.1787109375 180.37890625 66.0009765625 c 0
 148.459960938 65.8740234375 121.125 25.431640625 121.125 25.431640625 c 1
790.112304688 522.221679688 m 1
 811.05859375 543.473632812 845.801757812 562.508789062 898.69140625 562.508789062 c 0
 899.36328125 562.508789062 900.038085938 562.505859375 900.715820312 562.5 c 0
 998.6328125 561.634765625 1064.15234375 512.181640625 1064.5 405 c 2
 1065 251 l 1
 925 251 l 1
 924.965820312 353.958984375 l 0
 924.72265625 398.55859375 918.578125 420.5 888.010742188 420.5 c 1
 859.423828125 420.416015625 852.611328125 397.26953125 852.575195312 351.994140625 c 0
 852 251 l 1
 716.889648438 251 l 1
 717.5 350.00390625 l 1
 717.5 403.5625 699.393554688 420.362304688 678.516601562 420.508789062 c 0
 650.482421875 420.705078125 650 410 645.82421875 406.888671875 c 1
 585.700195312 507.639648438 l 1
 590.25390625 516.168945312 615.391601562 562.508789062 696.270507812 562.508789062 c 0
 741.393554688 562.508789062 771.481445312 543.091796875 790.112304688 522.221679688 c 1
924.483398438 202 m 1
 1064 202 l 1
 1063.48339844 180.500976562 l 0
 1062.82617188 55.5576171875 960.697265625 -6.5 844.194335938 -6.5 c 0
 698.779296875 -6.5 626.5 68.6357421875 626.5 164 c 0
 626.483398438 202 l 1
 766.483398438 202 l 1
 766.5 187 l 0
 766.5 140.99609375 810.192382812 125.5 843 125.5 c 0
 878.420898438 125.5 924.5 135.9296875 924.5 185 c 0
 924.483398438 202 l 1
337.703125 472.751953125 m 0
 302.038085938 472.396484375 263.84765625 454.283203125 263.196289062 404.125 c 0
 263.194335938 403.974609375 263.193359375 403.823242188 263.193359375 403.670898438 c 0
 263.193359375 324.659179688 339.297851562 315.978515625 392.416992188 361 c 1
 392 232 l 1
 275.282226562 169.892578125 128 257.203125 128 391 c 0
 128 528.413085938 229.399414062 602.5 339 602.5 c 0
 362.102539062 602.5 397.46484375 601.000976562 423 592 c 1
 566.100585938 760.552734375 l 1
 665.025390625 674.79296875 l 1
 440 412 l 1
 417.125 448.265625 380.319335938 472.755859375 338.560546875 472.755859375 c 0
 338.275390625 472.755859375 337.989257812 472.754882812 337.703125 472.751953125 c 0
1055 467 m 0
 951 467 l 0
 963.447265625 486.34375 967 522.9375 967 545 c 0
 967 597 987.663085938 673 913 673 c 0
 835.658203125 673 776 640.231445312 776 605 c 0
 776 546.78125 785 537 785 537 c 1
 683 537 l 1
 667 557 662 588.814453125 662 615 c 0
 662 738.171875 783 777 913 777 c 0
 1037.20214844 777 1079 680 1079 555 c 0
 1079 517.223632812 1065.57519531 476.360351562 1055 467 c 0
EndSplineSet
EndChar

StartChar: NameMe.40
Encoding: 376 -1 119
Width: 1024
VWidth: 0
HStem: -182 126<184.267 217 257 287 545 797.756> 8 118<576.013 686 731 797.918> 162 125<182.946 686 726 776.231> 314 127.815<182.093 217 257 290.998> 574.099 125.901<637.669 686 726 772.137> 583 130<134.676 363.408>
VStem: 26 125<-24.7809 128.161> 40 124.606<461.447 595.507> 308.393 125.107<460.273 554.823> 471 125<328 615.167> 798 125<-54.3983 6.34126> 804 127<316.287 543.032>
LayerCount: 3
Fore
SplineSet
217 -182.6328125 m 1xf2c0
 115.65234375 -170.114257812 26 -73.8993293048 26 11 c 0
 26 85 l 0
 26 167.817382812 97.8828125 286.591796875 238 287 c 0
 686 287 l 0
 686 162 l 1
 231 161 l 0
 171 161 151 95 151 47 c 0
 151 3.38674961053 172.921875 -43.81640625 217 -56 c 1
 217 -182.6328125 l 1xf2c0
726 288 m 17
 799 288 804 361 804 419 c 1
 804 459 l 1
 804 524.2734375 782.453125 567.356445312 726 574.836914062 c 1
 726 700 l 1
 838.70703125 692.204101562 931 611.495117188 931 459 c 1
 931 396 l 0xf8d0
 928.830078125 222.603515625 834.749023438 161.504882812 753 162 c 0
 726 162 l 1
 726 288 l 17
686 574.098632812 m 1
 638.224609375 565.74609375 595.784179688 529.6875 596 462 c 0
 596 380 l 1
 471 380 l 1
 471 479 l 0
 471 615.166992188 583.443359375 690.477539062 686 700 c 1
 686 574.098632812 l 1
257 314 m 1
 257 442 l 1
 287.115234375 450.5703125 308.392578125 477.977539062 308.392578125 511.106445312 c 0
 308.392578125 551.25390625 276.6484375 583 236.5 583 c 0
 196.352539062 583 164.606445312 551.25390625 164.606445312 511.106445312 c 0
 164.606445312 477.735351562 186.540039062 450.169921875 217 441.815429688 c 1
 217 314 l 1
 121 314 40 411 40 482 c 0xf5c0
 41 508 l 2
 41 595.506835938 137.5 690 233 702 c 0
 348.578125 716.522460938 433.5 602.078125 433.5 511 c 2
 433.5 482 l 2
 433.5 420 349 314 257 314 c 1
471 328 m 17
 471 418 l 0
 471 556 359.235351562 596 310 596 c 0
 268 596 161.5 602 161.5 495 c 1
 40 483 l 1
 40 494 l 0
 40 550 73 713 307 713 c 1
 467.377929688 713 596 626.788085938 596 418 c 0
 596 328 l 1
 471 328 l 17
287 -56 m 17
 287 -56 367 -58 416 7 c 0
 436.96484375 34.810546875 512 126 666 126 c 0
 686 126 l 1
 686 8 l 1
 618.72265625 8.0224609375 539.182617188 -16.1328125 510 -69 c 0
 484.350585938 -115.466796875 406 -182 287 -182 c 9
 257 -182 l 1
 257 -56 l 1
 287 -56 l 17
731 126 m 1
 801 126 l 0
 878 126 923 60 923 12 c 0
 923 -76 l 0
 923 -131.176757812 873 -182 781 -182 c 0
 545 -182 l 1
 545 -57 l 1
 727 -56 l 0
 765 -56 798 -58.9404296875 798 -32.515625 c 0
 798 -16 l 1xf0e0
 798 11.12109375 769.947265625 6.826171875 731 8 c 1
 731 126 l 1
EndSplineSet
EndChar

StartChar: NameMe.44
Encoding: 381 -1 124
Width: 1024
VWidth: 0
HStem: 628 168<640.227 702> 852 125<583.648 721.147>
VStem: 429 125<608 818.686> 745 127<754.309 827.918>
LayerCount: 3
Fore
SplineSet
429 608 m 1
 429 740 l 0
 429 893 522 977 644 977 c 0
 764 977 872 903 872 785 c 0
 872 692 802 628 719 628 c 0
 629 628 577 692 577 777 c 0
 577 796 l 1
 702 796 l 1
 702 777 l 0
 702 743 745 745 745 784 c 0
 745 819 714 852 644 852 c 0
 586 852 554 808 554 759 c 0
 554 608 l 0
 429 608 l 1
EndSplineSet
EndChar

StartChar: NameMe.45
Encoding: 382 -1 125
Width: 1024
VWidth: 0
HStem: 696 125<574.418 627.747 667.751 711.652>
VStem: 429 125<608 677.184> 735.751 125<73 674.915>
LayerCount: 3
Fore
SplineSet
667.750976562 821 m 1
 811.750976562 821 860.750976562 715 860.750976562 552 c 0
 860.750976562 73 l 1
 735.750976562 73 l 1
 735.750976562 533 l 2
 735.750976562 613 743.581054688 694 667.750976562 696 c 1
 667.750976562 821 l 1
627.747070312 821 m 0
 627.747070312 696 l 0
 589.546875 696 554 685 554 608 c 0
 429 608 l 0
 429 704 471.747070312 821 627.747070312 821 c 0
EndSplineSet
EndChar

StartChar: NameMe.50
Encoding: 384 -1 127
Width: 1024
VWidth: 0
HStem: -1 126<175.967 275 330 408.044> 255 125<178.008 244 293 553 609 802> 356 24<168 293> 481 125<168 337 393 714>
VStem: 40 124<135.919 247.167> 168 169<481 606> 168 125<380 481> 429 125<145.894 602> 609 193<255 380> 635 125<2 380>
LayerCount: 3
Fore
SplineSet
609 380 m 17xd980
 802 380 l 5
 802 255 l 5
 609 255 l 1
 609 380 l 17xd980
553 380 m 9
 553 255 l 0
 244 255 l 2
 178.0078125 254.795898438 164 245 164 192.940429688 c 0
 164 130.165039062 184 124.977539062 275 125 c 1
 275 -1 l 1
 114 -1 40 69.7568359375 40 161 c 0
 40 222.814453125 l 0
 40 333 153 380 241 380 c 0
 553 380 l 9
635 380 m 1xd940
 760 380 l 1
 760 2 l 1
 635 2 l 1
 635 128 635 254 635 380 c 1xd940
330 -1 m 9
 330 125 l 1
 398 125 429 145.0234375 429 191.940429688 c 0
 429 602 l 1
 554 602 l 1
 554 196 l 2
 554 98.0185546875 501 -1 330 -1 c 9
168 356 m 17xbb
 168 600 l 1xbd
 294 600 l 1
 293 356 l 1
 168 356 l 17xbb
393 606 m 1
 714 606 l 1
 714 481 l 1
 393 481 l 1
 393 606 l 1
168 606 m 1
 337 606 l 1
 337 481 l 1
 168 481 l 1
 168 606 l 1
EndSplineSet
EndChar

StartChar: NameMe.52
Encoding: 398 -1 141
Width: 1024
VWidth: 0
HStem: 0 125<28 339 514 770> 516 125<384.522 423 478.004 519.556>
VStem: 28 125<180 610> 212 125<275.999 465.466> 538.004 125<-264 500.819>
LayerCount: 3
Fore
SplineSet
538.00390625 353 m 0
 538.022288602 432.999994879 545.833984375 514 478.00390625 516 c 1
 478.00390625 641 l 1
 614.00390625 641 663.00390625 535 663.00390625 372 c 0
 662.980903581 160.007398405 663.00252605 -52.0012878051 663.00390625 -264 c 1
 538.00390625 -264 l 1
 538.005269807 -58.3346217351 537.99583956 147.34095541 538.00390625 353 c 0
337 375 m 0
 337 238.459960938 453 143 514 105 c 1
 339 106 l 1
 294 149 212 227.52734375 212 375 c 0
 212 491 279 641 423 641 c 1
 423 516 l 0
 390 516 337 467 337 375 c 0
28 125 m 1
 770 125 l 1
 770 0 l 1
 28 0 l 1
 28 125 l 1
28 610 m 1
 153 610 l 1
 153 180 l 1
 28 180 l 1
 28 610 l 1
EndSplineSet
EndChar

StartChar: tml_Four
Encoding: 401 3050 144
Width: 930
VWidth: 0
Flags: HW
LayerCount: 3
Fore
SplineSet
760 255 m 17xa580
 760 499 l 1xa680
 886 499 l 1
 885 255 l 1
 760 255 l 17xa580
877 380 m 9xc480
 877 255 l 1
 244 255 l 2
 178.0078125 254.795898438 164 245 164 192.940429688 c 0
 164 130.165039062 184 124.977539062 275 125 c 1
 275 -1 l 1
 114 0 40 69.7568359375 40 161 c 0
 40 222.814453125 l 0
 40 333 153 380 241 380 c 0
 877 380 l 9xc480
330 -1 m 9
 330 125 l 1
 398 125 429 145.0234375 429 191.940429688 c 0
 429 602 l 1
 554 602 l 1x8c80
 554 196 l 2
 554 98.0185546875 501 -1 330 -1 c 9
168 356 m 17xa580
 168 600 l 1xa680
 294 600 l 1
 293 356 l 1
 168 356 l 17xa580
390 609 m 1x9480
 704 609 l 1
 704 481 l 1
 390 481 l 1
 390 609 l 1x9480
168 609 m 1x9680
 335 609 l 1
 335 481 l 1x9680
 168 481 l 1x8e80
 168 609 l 1x9680
EndSplineSet
EndChar

StartChar: tml_Five
Encoding: 402 3051 145
Width: 0
VWidth: 0
Flags: HW
LayerCount: 3
Fore
SplineSet
555 609 m 1xd9
 555 484 l 1
 831 484 l 1
 831 609 l 1
 555 609 l 1xd9
772 256.790039062 m 1
 793.201171875 257.159179688 814 242.29296875 814 191.501953125 c 0
 814 38.501953125 l 4
 814 -5.1162109375 818.068359375 -56.5888671875 747 -56.498046875 c 4
 555 -56.498046875 l 13
 555 -181.498046875 l 5
 748 -182.498046875 l 4
 877 -182.498046875 939 -84.4326171875 939 -15.3330078125 c 4
 939 226.666992188 l 2
 939 347.250976562 834.333007812 375.06640625 772 381 c 1
 772 256.790039062 l 1
499 -56.498046875 m 21
 255 -56.498046875 l 4
 189.944335938 -56.171875 165.975585938 -35.9853515625 166 29.501953125 c 4
 166 293.501953125 l 0
 166 330.501953125 169 388.501953125 245 388.501953125 c 0
 244 513.501953125 l 0xe9
 157 513.501953125 40 465.501953125 40 298.501953125 c 0
 40 30.501953125 l 4
 40 -111.498046875 127.887695312 -180.498046875 239 -180.498046875 c 4
 499 -181.498046875 l 5
 499 -56.498046875 l 21
717 605 m 1
 589 605 l 1
 589 1 l 1
 715 1 l 1
 717 605 l 1
301 1 m 17xdb
 301 609 l 1xdd
 426 609 l 1
 426 1 l 1
 301 1 l 17xdb
303 609 m 1
 500 609 l 1
 500 484 l 1
 303 484 l 1
 303 609 l 1
EndSplineSet
EndChar

StartChar: tml_Six
Encoding: 403 3052 146
Width: 1104
VWidth: 0
Flags: HW
LayerCount: 3
Fore
SplineSet
881 2 m 17xa580
 881 263 l 1xa680
 1007 263 l 1
 1006 2 l 1
 881 2 l 17xa580
671 2 m 17xa580
 671 263 l 1xa680
 797 263 l 1
 796 2 l 1
 671 2 l 17xa580
1064 380 m 9xc480
 1064 255 l 1
 244 255 l 2
 178.0078125 254.795898438 164 245 164 192.940429688 c 0
 164 130.165039062 184 124.977539062 275 125 c 1
 275 -1 l 1
 114 0 40 69.7568359375 40 161 c 0
 40 222.814453125 l 0
 40 333 153 380 241 380 c 0
 1064 380 l 9xc480
330 -1 m 9
 330 125 l 1
 398 125 429 145.0234375 429 191.940429688 c 0
 429 602 l 1
 554 602 l 1x8c80
 554 196 l 2
 554 98.0185546875 501 -1 330 -1 c 9
168 356 m 17xa580
 168 600 l 1xa680
 294 600 l 1
 293 356 l 1
 168 356 l 17xa580
390 609 m 1x9480
 704 609 l 1
 704 481 l 1
 390 481 l 1
 390 609 l 1x9480
168 609 m 1x9680
 335 609 l 1
 335 481 l 1x9680
 168 481 l 1x8e80
 168 609 l 1x9680
EndSplineSet
EndChar

StartChar: tml_Seven
Encoding: 404 3053 147
Width: 0
VWidth: 0
Flags: W
LayerCount: 3
Fore
SplineSet
271 1 m 1xc180
 271 126.399414062 l 0
 305.399414062 126.399414062 325.060546875 149.603515625 324.484375 186 c 0
 323.936523438 220.572265625 311.607421875 243.403320312 271 243.399414062 c 1
 271 369 l 0
 372.30859375 369.303710938 449.84375 287.500976562 450.00390625 224.901367188 c 0
 450.00390625 151.903320312 l 0
 449.904296875 87.91015625 372.43359375 0.8720703125 271 1 c 1xc180
215.208007812 369 m 1xc980
 215.208007812 243.399414062 l 0xc980
 185.607421875 243.399414062 166.80859375 222.377929688 166.80859375 186 c 0xc380
 166.80859375 148.600585938 184.607421875 126.399414062 215.208007812 126.399414062 c 1
 215.208007812 1 l 0xc980
 110.8984375 1 39.572265625 98.0029296875 40.00390625 152.599609375 c 0
 40.00390625 226.599609375 l 0xc380
 39.2041015625 333 164.208007812 369 215.208007812 369 c 1xc980
724.208007812 609 m 1xe180
 724.208007812 483 l 1
 367.208007812 483 l 1
 367.208007812 609 l 1
 724.208007812 609 l 1xe180
495.208007812 591 m 1xd180
 620.80859375 591 l 1
 620.80859375 0 l 1
 495.208007812 0 l 1
 495.208007812 591 l 1xd180
271 1 m 1
 271 126.399414062 l 0
 305.399414062 126.399414062 325.060546875 149.603515625 324.484375 186 c 0
 323.936523438 220.572265625 311.607421875 243.403320312 271 243.399414062 c 1
 271 369 l 0
 372.30859375 369.303710938 449.84375 287.500976562 450.00390625 224.901367188 c 0
 450.00390625 151.903320312 l 0
 449.904296875 87.91015625 372.43359375 0.8720703125 271 1 c 1
311.608398438 609 m 1xe980
 311.208007812 483 l 1
 221.990183232 483 181.435046746 415.464994144 174.208007812 337 c 0xe580
 168.872070312 279.064453125 45.7626953125 263.567382812 40.00390625 233 c 1xe380
 40.00390625 288 l 2
 40.00390625 406.001209953 103.568251753 609 311.608398438 609 c 1xe980
215.208007812 369 m 1xc980
 215.208007812 243.399414062 l 0xc980
 185.607421875 243.399414062 166.80859375 222.377929688 166.80859375 186 c 0xc380
 166.80859375 148.600585938 184.607421875 126.399414062 215.208007812 126.399414062 c 1
 215.208007812 1 l 0xc980
 110.8984375 1 39.572265625 98.0029296875 40.00390625 152.599609375 c 0
 40.00390625 226.599609375 l 0xc380
 39.2041015625 333 164.208007812 369 215.208007812 369 c 1xc980
EndSplineSet
EndChar

StartChar: tml_Eight
Encoding: 405 3054 148
Width: 0
VWidth: 0
Flags: HW
LayerCount: 3
Fore
SplineSet
822 498 m 9x9f80
 822 270 l 5
 697 270 l 5
 697 498 l 0
 697 576.397460938 659.118164062 627 579 627 c 0
 498 627 461.639648438 575.64453125 462 498 c 0
 462.493164062 391.80859375 640 297 700 233 c 1
 543 233 l 1
 483 270 337 346 337 498 c 0
 337 648 417.745117188 752 579 752 c 0
 742.377929688 752 822 653.788085938 822 498 c 9x9f80
392 276 m 1xbf80
 476.333007812 276 737.666992188 276 822 276 c 1xbf40
 823 69 l 1
 823 -35.3046875 751 -130 622 -130 c 0
 394 -130 l 0
 394 -5 l 17
 610 -5 l 0
 678 -4.4453125 697 33.9345703125 697 69 c 1
 697 154 l 1
 655 154 434 154 392 154 c 1
 392 276 l 1xbf80
337 -5 m 1
 337 -130 l 1
 248 -130 l 0
 133 -130 40 -48.3388671875 40 74 c 0
 40 192.737304688 126 278 259 278 c 2
 336 278 l 1
 336 153 l 1
 241 153 l 0
 216 153 165 132 165 73.537109375 c 0
 165 19.5625 212 -5 259 -5 c 0
 337 -5 l 1
780 276 m 1
 876 276 l 1
 876 154 l 1xbf50
 780 154 l 1
 780 276 l 1
873 592 m 1x9f20
 998 592 l 1
 998 -110 l 1
 873 -110 l 1
 873 592 l 1x9f20
EndSplineSet
EndChar

StartChar: tml_Nine
Encoding: 406 3055 149
Width: 1001
VWidth: 0
Flags: HW
LayerCount: 3
Fore
SplineSet
568 255 m 1
 568 380 l 1
 748.498046875 380 l 2
 862 380 961 356 961 220 c 0
 961 210 l 0
 961 103.456054688 870 51 814 51 c 0
 785 51 l 0
 714.852539062 51 641 123 641 210 c 1
 766 210 l 0
 766 190 778.499023438 176 801 176 c 0
 824.579101562 176 836 190.581054688 836 209 c 0
 836 248 802 255 745 255 c 2
 568 255 l 1
658 380 m 9xc480
 658 255 l 1
 244 255 l 2
 178.0078125 254.795898438 164 245 164 192.940429688 c 0
 164 130.165039062 184 124.977539062 275 125 c 1
 275 -1 l 1
 114 0 40 69.7568359375 40 161 c 0
 40 222.814453125 l 0
 40 333 153 380 241 380 c 0
 658 380 l 9xc480
330 -1 m 9
 330 125 l 1
 398 125 429 145.0234375 429 191.940429688 c 0
 429 602 l 1
 554 602 l 1x8c80
 554 196 l 2
 554 98.0185546875 501 -1 330 -1 c 9
168 356 m 17xa580
 168 600 l 1xa680
 294 600 l 1
 293 356 l 1
 168 356 l 17xa580
390 609 m 1x9480
 704 609 l 1
 704 481 l 1
 390 481 l 1
 390 609 l 1x9480
168 609 m 1x9680
 335 609 l 1
 335 481 l 1x9680
 168 481 l 1x8e80
 168 609 l 1x9680
EndSplineSet
EndChar

StartChar: tml_Ten
Encoding: 407 3056 150
Width: 0
VWidth: 0
Flags: HW
LayerCount: 3
Fore
SplineSet
497 746 m 1
 623 746 l 1
 726 609 l 1
 601 609 l 1
 497 746 l 1
601 148 m 258xe8
 601 609 l 257
 726 609 l 257xe8
 726 148 l 2
 725.255859375 99.01171875 694 0 561 0 c 257
 561 122 l 257xf0
 585.190857056 122 601 132.471679688 601 148 c 258xe8
207 150 m 262
 207 135.881835938 213.372070312 122 240 122 c 261
 240 0 l 261
 137.279296875 0 82 70.216796875 82 150 c 262
 82 609 l 261
 207 609 l 261
 207 150 l 262
465 609 m 261
 465 148 l 262
 465 134.366210938 475.850233433 122 506 122 c 261
 506 0 l 261
 450 0 423 0 401 34 c 261
 376 0 345 0 295 0 c 261
 295 122 l 261
 319.955078125 122 341 128.137695312 341 148 c 262
 341 609 l 261
 465 609 l 261
EndSplineSet
EndChar

StartChar: tml_Hundred
Encoding: 408 3057 151
Width: 865
VWidth: 0
Flags: HW
LayerCount: 3
Fore
SplineSet
595 523 m 9
 720 523 l 258
 720 0 l 0xf6
 595 0 l 1
 595 523 l 9
510 621 m 1
 825 621 l 1
 825 495 l 1
 510 495 l 1
 510 621 l 1
164.263671875 468.731445312 m 258
 166.998046875 0 l 257
 40 0 l 257
 40 490 l 0xee
 40 541 81.6064453125 620.528320312 196 620.5 c 257
 196 495 l 257
 169.995117188 494.844726562 164.247070312 481.536132812 164.263671875 468.731445312 c 258
291.995117188 0 m 257
 289.26171875 469.470703125 l 258
 289.180664062 483.66796875 277.868164062 495 251 495 c 257
 251 620.5 l 257
 298.607421875 620.280273438 328.249023438 610.5 353 589.5 c 257
 381.884765625 612.889648438 414.704101562 621 455 621 c 257
 455 496 l 257
 436.677734375 496 414.129882812 492.587890625 414.259765625 470.2109375 c 258
 416.993164062 0 l 257
 291.995117188 0 l 257
EndSplineSet
EndChar

StartChar: tml_Thousand
Encoding: 409 3058 152
Width: 1122
VWidth: 0
Flags: HW
LayerCount: 3
Fore
SplineSet
794 -182 m 0
 881 -182 l 0
 989 -182 1082 -134 1082 16 c 0
 1082 150.958984375 990 209 877 209 c 0
 877 114 l 1
 945 114 985 78 985 16 c 0
 985 -48 942 -87 881 -87 c 0
 794 -87 l 2
 681.833984375 -87 645 -168.5 645 -264 c 1
 740 -264 l 0
 742 -197.700195312 752 -181.700195312 794 -182 c 0
756 358 m 1
 850 358 l 1
 850 98.501953125 l 2
 850 6.1396484375 805.334960938 -62 711 -62 c 0
 631.456054688 -62 582 -3 582 71 c 0
 582 131.069335938 622.858398438 198 711 198 c 1
 711 103 l 0
 691 103 677 85.5009765625 677 67 c 0
 677 47.4208984375 695.581054688 33 710 33 c 0
 742 33 756 58 756 102 c 2
 756 358 l 1
981 380 m 9xc480
 981 255 l 1
 244 255 l 2
 178.0078125 254.795898438 164 245 164 192.940429688 c 0
 164 130.165039062 184 124.977539062 275 125 c 1
 275 -1 l 1
 114 0 40 69.7568359375 40 161 c 0
 40 222.814453125 l 0
 40 333 153 380 241 380 c 0
 981 380 l 9xc480
330 -1 m 9
 330 125 l 1
 398 125 429 145.0234375 429 191.940429688 c 0
 429 602 l 1
 554 602 l 1x8c80
 554 196 l 2
 554 98.0185546875 501 -1 330 -1 c 9
168 356 m 17xa580
 168 600 l 1xa680
 294 600 l 1
 293 356 l 1
 168 356 l 17xa580
390 609 m 1x9480
 704 609 l 1
 704 481 l 1
 390 481 l 1
 390 609 l 1x9480
168 609 m 1x9680
 335 609 l 1
 335 481 l 1x9680
 168 481 l 1x8e80
 168 609 l 1x9680
EndSplineSet
EndChar

StartChar: tml_Day
Encoding: 410 3059 153
Width: 996
VWidth: 0
Flags: HW
LayerCount: 3
Fore
SplineSet
272.00390625 0 m 1
 272.00390625 125.399414062 l 1
 304.490234375 126.267578125 320.490234375 145.15234375 320.510742188 184 c 0
 320.532226562 223.219726562 304.1875 242.403320312 272.00390625 242.399414062 c 1
 272.00390625 368 l 0
 370.3125 368.303710938 444.84375 282.500976562 445.00390625 228.901367188 c 0
 445.00390625 155.903320312 l 0
 445.904296875 90.91015625 383.4375 -0.1279296875 272.00390625 0 c 1
216.00390625 368 m 1
 216.00390625 242.399414062 l 0
 186.403320312 242.399414062 167.604492188 222.377929688 167.604492188 185 c 0
 167.604492188 150.600585938 182.403320312 125.399414062 216.00390625 125.399414062 c 1
 216.00390625 0 l 0
 111.694335938 0 39.572265625 93.0029296875 40.00390625 154.599609375 c 0
 40.00390625 225.599609375 l 0
 39.2041015625 332 165.00390625 368 216.00390625 368 c 1
307.00390625 495 m 1
 241.086914062 495 181.0546875 450.161132812 179.00390625 363 c 0
 40.00390625 231 l 1
 40.00390625 312 l 1
 40.00390625 443 92.00390625 619.923828125 307.00390625 620 c 1
 307.00390625 495 l 1
359.608398438 495 m 1
 438.276367188 495 496.77734375 434.096679688 498.208007812 363 c 1
 498.208007812 149 l 0
 498.208007812 130 472.50390625 127.889648438 465.0078125 126.399414062 c 1
 465.0078125 0.3994140625 l 1
 956.00390625 0.3994140625 l 1
 956.00390625 126 l 1
 622.208007812 126 l 1
 622.208007812 363.400390625 l 1
 621.1640625 477.350585938 532.526367188 620 359.608398438 620 c 1
 359.608398438 495 l 1
EndSplineSet
EndChar

StartChar: tml_Month
Encoding: 411 3060 154
Width: 880
VWidth: 0
Flags: HW
LayerCount: 3
Fore
SplineSet
544 834 m 0
 606.0078125 834 647 805 647 736 c 0
 647 688 607 650 552 650 c 0
 492 650 473 706 473 741 c 0
 473 832 537 902 607 902 c 0
 682 902 740 850 740 732 c 0
 840 732 l 0
 840 671 l 0
 682 671 l 1
 688 741 681 841 605 841 c 0
 539 841 525 770.683328128 525 744 c 0
 525 700 586 702 586 744 c 0
 586 754 577 771 552 771 c 0
 516 771 474 727 474 648 c 1
 413 648 l 0
 413 766 478 834 544 834 c 0
470 126 m 1x9e
 511 126 513.78125 160.014648438 514 182.940429688 c 2
 514 444 l 0
 514 468 512 495 470 495 c 1
 470 620 l 1
 560 620 639 577 639 444 c 0
 639 202 l 0
 639 52 553 0 470 0 c 0
 470 126 l 1x9e
415 620 m 1
 415 495 l 17
 380 495 374 469.396484375 374 444 c 2
 374 125.0234375 l 1
 249 125 l 0x3e
 249 444 l 0
 248 584 332 620 415 620 c 1
40 109.065429688 m 1x5e
 40 609.065429688 l 1
 165 609.065429688 l 1
 165 109.065429688 l 1
 40 109.065429688 l 1x5e
415 0 m 1x9e
 40 0 l 1x9e
 40 126.065429688 l 1x5e
 415 126 l 1
 415 0 l 1x9e
EndSplineSet
EndChar

StartChar: tml_Year
Encoding: 412 3061 155
Width: 1730
VWidth: 0
Flags: HW
LayerCount: 3
Fore
SplineSet
844 792 m 17
 1466 792 l 2
 1667 792 1638 582 1690 529 c 1
 1561 529 l 1
 1521 585 1552.30761719 666 1466 666 c 2
 844 666 l 2
 844 792 l 17
789 792 m 1
 244 792 l 1
 157 792 40 743 40 576 c 0
 40 9 l 0
 40 -133 127.887695312 -202.501953125 239 -202.501953125 c 0
 789 -202.501953125 l 1
 789 -78 l 17
 255 -78 l 0
 189.944335938 -77.673828125 165.975585938 -57.4873046875 166 8 c 0
 166 571 l 0
 166 608 169 666 245 666 c 1
 789 666 l 1
 789 792 l 1
1426 187.288085938 m 1xe470
 1448.20117188 187.657226562 1469 178.791015625 1469 128 c 0
 1469 8 l 0
 1469 -35.6181640625 1473.06835938 -78.0908203125 1402 -78 c 0
 844 -78 l 9
 844 -202.501953125 l 1
 1403 -202.501953125 l 0
 1532 -202.501953125 1594 -105.934570312 1594 -36.8349609375 c 0
 1594 163.165039062 l 2
 1594 273.749023438 1489.33300781 311.564453125 1426 317.498046875 c 1
 1426 187.288085938 l 1xe470
1245.20410156 0 m 1xc0
 1370.20410156 0 l 1
 1370.20410156 607 l 1
 1245.20410156 607 l 1
 1245.20410156 0 l 1xc0
1192.20410156 609 m 1
 1192.20410156 484 l 1
 1456.20410156 484 l 1
 1456.20410156 609 l 1
 1192.20410156 609 l 1
954.204101562 609 m 1
 1137.20410156 609 l 1
 1137.20410156 484 l 1
 954.204101562 484 l 1
 954.204101562 609 l 1
453 0 m 1
 453 125.399414062 l 1
 485.486328125 126.267578125 501.486328125 145.15234375 501.5078125 184 c 0
 501.528320312 223.219726562 485.18359375 242.403320312 453 242.399414062 c 1
 453 368 l 0
 551.30859375 368.303710938 625.83984375 282.500976562 626 228.901367188 c 0
 626 155.903320312 l 0
 626.900390625 90.91015625 564.43359375 -0.1279296875 453 0 c 1
397 368 m 1
 397 242.399414062 l 0
 367.399414062 242.399414062 348.600585938 222.377929688 348.600585938 185 c 0
 348.600585938 150.600585938 363.399414062 125.399414062 397 125.399414062 c 1
 397 0 l 0
 292.690429688 0 220.568359375 93.0029296875 221 154.599609375 c 0
 221 225.599609375 l 0
 220.200195312 332 346 368 397 368 c 1
488 495 m 1
 422.083007812 495 362.05078125 450.161132812 360 363 c 0
 221 231 l 1
 221 312 l 1
 221 443 273 619.923828125 488 620 c 1
 488 495 l 1
540.604492188 495 m 1
 619.272460938 495 677.7734375 434.096679688 679.204101562 363 c 1
 679.204101562 149 l 0
 679.204101562 130 653.5 127.889648438 646.00390625 126.399414062 c 1
 646.00390625 0.3994140625 l 1
 898 0.3994140625 l 1
 898 126 l 1
 803.204101562 126 l 1
 803.204101562 363.400390625 l 1
 802.16015625 477.350585938 713.522460938 620 540.604492188 620 c 1
 540.604492188 495 l 1
954.204101562 606 m 1
 1079.8046875 606 l 1
 1079.8046875 0 l 1
 954.204101562 0 l 1
 954.204101562 606 l 1
EndSplineSet
EndChar

StartChar: tml_Debit
Encoding: 413 3062 156
Width: 723
VWidth: 0
Flags: HW
LayerCount: 3
Fore
SplineSet
308 245 m 9
 433 245 l 258
 433 18.2724609375 l 2xf6
 433 -83 l 2
 433 -163.317382812 429.19140625 -264 261 -264 c 1
 261 -168 l 17
 313.209960938 -168 308 -129.176757812 308 -83 c 2
 308 21.970703125 l 1
 308 245 l 9
195 -29 m 0
 558 -29 l 1
 558 389.999023438 l 0
 683 389.999023438 l 0
 683 -124 l 1
 195 -124 l 2
 154 -124 155 -168 194 -168 c 2
 207 -168 l 9
 207 -264 l 1
 194 -264 l 2
 160.00390625 -263.854492188 41 -260.200195312 40 -163 c 0
 40 -129 l 0
 40 -59 105 -29 195 -29 c 0
174 150 m 258
 174 135.881835938 180.372070312 122 207 122 c 257
 207 0 l 257
 104.279296875 0 49 70.216796875 49 150 c 258
 49 609 l 257
 174 609 l 257
 174 150 l 258
433 499 m 257
 433 148 l 258
 433 -10.9521484375 359 0 262 0 c 257
 262 122 l 257
 286.955078125 122 308 128.137695312 308 148 c 258
 308 499 l 257
 433 499 l 257
EndSplineSet
EndChar

StartChar: tml_Credit
Encoding: 414 3063 157
Width: 1168
VWidth: 0
Flags: HW
LayerCount: 3
Fore
SplineSet
598 204 m 1
 709 204 l 1
 709 135 l 1
 598 135 l 1
 598 204 l 1
806.439453125 0.333984375 m 1
 806.439453125 69.841796875 l 1
 824.447265625 70.3232421875 833.315429688 80.7919921875 833.328125 102.325195312 c 0
 833.338867188 124.064453125 824.279296875 134.698242188 806.439453125 134.6953125 c 1
 806.439453125 204.31640625 l 0
 860.932617188 204.484375 902.245117188 156.923828125 902.333984375 127.213867188 c 0
 902.333984375 86.7509765625 l 0
 902.833984375 50.724609375 868.208007812 0.2626953125 806.439453125 0.333984375 c 1
775.399414062 204.31640625 m 1
 775.399414062 134.6953125 l 0
 758.991210938 134.6953125 748.571289062 123.59765625 748.571289062 102.879882812 c 0
 748.571289062 83.8115234375 756.774414062 69.841796875 775.399414062 69.841796875 c 1
 775.399414062 0.333984375 l 0
 717.580078125 0.333984375 677.603515625 51.884765625 677.842773438 86.0283203125 c 0
 677.842773438 125.383789062 l 0
 677.3984375 184.360351562 747.129882812 204.31640625 775.399414062 204.31640625 c 1
825.840820312 274.711914062 m 1
 789.302734375 274.711914062 756.02734375 249.858398438 754.890625 201.544921875 c 0
 677.842773438 128.376953125 l 1
 677.842773438 173.275390625 l 1
 677.842773438 245.888671875 706.666015625 343.95703125 825.840820312 344 c 1
 825.840820312 274.711914062 l 1
855 274.711914062 m 1
 898.604492188 274.711914062 931.032226562 240.953125 931.825195312 201.544921875 c 1
 931.825195312 82.923828125 l 0
 931.825195312 72.392578125 917.577148438 71.22265625 913.421875 70.396484375 c 1
 913.421875 0.5546875 l 1
 1027.60546875 0.5546875 l 1
 1027.60546875 70.1748046875 l 1
 1000.55859375 70.1748046875 l 1
 1000.55859375 201.766601562 l 1
 999.979492188 264.928710938 950.84765625 344 855 344 c 1
 855 274.711914062 l 1
1058.75976562 337.903320312 m 1
 1128.38085938 337.903320312 l 1
 1128.38085938 0.5546875 l 1
 1058.75976562 0.5546875 l 1
 1058.75976562 337.903320312 l 1
271 1 m 1xc180
 271 126.399414062 l 0
 305.399414062 126.399414062 325.060546875 149.603515625 324.484375 186 c 0
 323.936523438 220.572265625 311.607421875 243.403320312 271 243.399414062 c 1
 271 369 l 0
 372.30859375 369.303710938 449.84375 287.500976562 450.00390625 224.901367188 c 0
 450.00390625 151.903320312 l 0
 449.904296875 87.91015625 372.43359375 0.8720703125 271 1 c 1xc180
215.208007812 369 m 1xc980
 215.208007812 243.399414062 l 0xc980
 185.607421875 243.399414062 166.80859375 222.377929688 166.80859375 186 c 0xc380
 166.80859375 148.600585938 184.607421875 126.399414062 215.208007812 126.399414062 c 1
 215.208007812 1 l 0xc980
 110.8984375 1 39.572265625 98.0029296875 40.00390625 152.599609375 c 0
 40.00390625 226.599609375 l 0xc380
 39.2041015625 333 164.208007812 369 215.208007812 369 c 1xc980
724.208007812 609 m 1xe180
 724.208007812 483 l 1
 367.208007812 483 l 1
 367.208007812 609 l 1
 724.208007812 609 l 1xe180
495.208007812 591 m 1xd180
 620.80859375 591 l 1
 620.80859375 0 l 1
 495.208007812 0 l 1
 495.208007812 591 l 1xd180
271 1 m 1
 271 126.399414062 l 0
 305.399414062 126.399414062 325.060546875 149.603515625 324.484375 186 c 0
 323.936523438 220.572265625 311.607421875 243.403320312 271 243.399414062 c 1
 271 369 l 0
 372.30859375 369.303710938 449.84375 287.500976562 450.00390625 224.901367188 c 0
 450.00390625 151.903320312 l 0
 449.904296875 87.91015625 372.43359375 0.8720703125 271 1 c 1
311.608398438 609 m 1xe980
 311.208007812 483 l 1
 221.990234375 483 181.434570312 415.46484375 174.208007812 337 c 0xe580
 168.872070312 279.064453125 45.7626953125 263.567382812 40.00390625 233 c 1xe380
 40.00390625 288 l 2
 40.00390625 406.000976562 103.568359375 609 311.608398438 609 c 1xe980
215.208007812 369 m 1xc980
 215.208007812 243.399414062 l 0xc980
 185.607421875 243.399414062 166.80859375 222.377929688 166.80859375 186 c 0xc380
 166.80859375 148.600585938 184.607421875 126.399414062 215.208007812 126.399414062 c 1
 215.208007812 1 l 0xc980
 110.8984375 1 39.572265625 98.0029296875 40.00390625 152.599609375 c 0
 40.00390625 226.599609375 l 0xc380
 39.2041015625 333 164.208007812 369 215.208007812 369 c 1xc980
EndSplineSet
EndChar

StartChar: tml_Above
Encoding: 415 3064 158
Width: 1599
VWidth: 0
Flags: HW
LayerCount: 3
Fore
SplineSet
213.278320312 -151.080078125 m 1xc180
 213.278320312 -56 l 0
 233.91796875 -56 258.802734375 -43.6796875 258.802734375 -6.080078125 c 0
 258.802734375 23.919921875 237.642578125 41.0029296875 213.278320312 41 c 1
 213.278320312 136.719726562 l 0
 295.063476562 136.90234375 354.583984375 60.5595703125 354.680664062 7 c 0
 354.680664062 -15 l 0
 354.62109375 -83.396484375 299.138671875 -151.157226562 213.278320312 -151.080078125 c 1xc180
179.802734375 136.719726562 m 1xc980
 179.802734375 41 l 0xc980
 162.04296875 41 135.802734375 29.7197265625 135.802734375 -6.080078125 c 0xc380
 135.802734375 -39.6796875 162.04296875 -56 180.403320312 -56 c 1
 179.802734375 -151.080078125 l 0xc980
 108.216796875 -151.080078125 39.744140625 -86.7578125 40.0029296875 -13 c 0
 40.0029296875 7 l 0xc380
 39.5224609375 70.8408203125 106.203125 136.719726562 179.802734375 136.719726562 c 1xc980
526.403320312 368 m 1xe980
 526.002929688 273 l 1
 307.002929688 273 l 0
 207.989257812 273.134765625 136.002929688 244 136.002929688 144 c 0
 136.002929688 -6.080078125 l 0xe580
 40.0029296875 -5 l 0
 40.0029296875 145 l 0
 40.0029296875 318.458984375 181.8515625 367.86328125 307.002929688 368 c 0
 526.403320312 368 l 1xe980
583.002929688 0 m 1xe780
 583.002929688 125.399414062 l 1
 615.48828125 126.267578125 631.489257812 145.15234375 631.509765625 184 c 0
 631.53125 223.219726562 615.186523438 242.403320312 583.002929688 242.399414062 c 1
 583.002929688 368 l 0
 681.311523438 368.303710938 755.842773438 282.500976562 756.002929688 228.901367188 c 0
 756.002929688 155.903320312 l 0
 756.903320312 90.91015625 694.436523438 -0.1279296875 583.002929688 0 c 1xe780
527.002929688 368 m 1xf780
 527.002929688 242.399414062 l 0xf780
 497.40234375 242.399414062 478.603515625 222.377929688 478.603515625 185 c 0xef80
 478.603515625 150.600585938 493.40234375 125.399414062 527.002929688 125.399414062 c 1
 527.002929688 0 l 0xf780
 422.693359375 0 350.571289062 93.0029296875 351.002929688 154.599609375 c 0
 351.002929688 225.599609375 l 0xef80
 350.203125 332 476.002929688 368 527.002929688 368 c 1xf780
618.002929688 495 m 1
 552.0859375 495 492.053710938 450.161132812 490.002929688 363 c 0
 351.002929688 231 l 1xef80
 351.002929688 312 l 1
 351.002929688 443 403.002929688 619.923828125 618.002929688 620 c 1
 618.002929688 495 l 1
669.611328125 495 m 1
 748.397460938 495 806.778320312 434.188476562 808.2109375 363 c 1
 808.2109375 149 l 0
 808.2109375 130 782.506835938 127.889648438 775.010742188 126.399414062 c 1
 775.010742188 0.3994140625 l 1
 1180.00683594 0.3994140625 l 1
 1180.00683594 126 l 1
 932.2109375 126 l 1
 932.2109375 363.400390625 l 1
 931.166015625 477.48046875 842.708007812 620 669.611328125 620 c 1
 669.611328125 495 l 1
1420.00683594 162 m 1
 1420.00683594 423 l 2
 1420.00683594 574.267578125 1340.6171875 622 1235.00683594 622 c 1
 1235.00683594 497 l 1
 1275.00683594 497 1295.00683594 498 1295.00683594 423 c 2
 1295.00683594 162 l 1
 1420.00683594 162 l 1
1420.00683594 126 m 1
 1295.00683594 126 l 1
 1295.00683594 -182 l 1
 1420.00683594 -182 l 1
 1420.00683594 126 l 1
1235.00683594 287 m 9
 1235.00683594 162 l 1
 1559.00683594 162 l 1
 1559.00683594 287 l 0
 1235.00683594 287 l 9
1180.00683594 286 m 17
 1135.00683594 286 1121.00683594 294 1121.00683594 348 c 0
 1121.00683594 434 l 0
 1121.00683594 474.206054688 1133.69726562 497.115234375 1180.00683594 497 c 1
 1180.00683594 622 l 1
 1073.00683594 622 995.006835938 583 995.006835938 443 c 0
 995.006835938 342 l 2
 995.006835938 195.598632812 1073.46875 162 1180.00683594 162 c 1
 1180.00683594 286 l 17
1457.00683594 287 m 1
 1457.00683594 0 l 1
 1559.00683594 0 l 1
 1559.00683594 287 l 1
 1457.00683594 287 l 1
1235.00683594 126 m 1
 1235.00683594 1 l 1
 1559.00683594 0 l 1
 1559.00683594 126 l 1
 1235.00683594 126 l 1
EndSplineSet
EndChar

StartChar: tml_Rupee
Encoding: 416 3065 159
Width: 961
VWidth: 0
Flags: HW
LayerCount: 3
Fore
SplineSet
526 834 m 0
 460 834 395 764 395 646 c 0
 456 646 l 1
 456 725 498 771 534 771 c 0
 559 771 568 754 568 744 c 0
 568 702 507 700 507 744 c 0
 507 770.68359375 521 841 587 841 c 0
 663 841 670 741 664 671 c 1
 822 671 l 0
 822 732 l 0
 722 732 l 0
 722 850 664 902 589 902 c 0
 519 902 455 832 455 741 c 0
 455 706 474 650 534 650 c 0
 589 650 629 688 629 736 c 0
 629 805 588.0078125 834 526 834 c 0
537 609 m 1xd9
 537 484 l 1
 813 484 l 1
 813 609 l 1
 537 609 l 1xd9
754 256.790039062 m 1
 775.201171875 257.159179688 796 242.29296875 796 191.501953125 c 0
 796 38.501953125 l 0
 796 -5.1162109375 800.068359375 -56.5888671875 729 -56.498046875 c 0
 537 -56.498046875 l 9
 537 -181.498046875 l 1
 730 -182.498046875 l 0
 859 -182.498046875 921 -84.4326171875 921 -15.3330078125 c 0
 921 226.666992188 l 2
 921 347.250976562 816.333007812 375.06640625 754 381 c 1
 754 256.790039062 l 1
481 -56.498046875 m 17
 255 -56.498046875 l 0
 189.944335938 -56.171875 165.975585938 -35.9853515625 166 29.501953125 c 0
 166 541.5 l 0
 166 568.084960938 157 630 244 630 c 0
 462 630 l 0
 461 691 l 0xe9
 222 691 l 0
 113 691 40 675.752929688 40 546.5 c 0
 40 30.501953125 l 0
 40 -111.498046875 127.887695312 -180.498046875 239 -180.498046875 c 0
 481 -181.498046875 l 1
 481 -56.498046875 l 17
699 605 m 1
 571 605 l 1
 571 1 l 1
 697 1 l 1
 699 605 l 1
283 1 m 17xdb
 283 609 l 1xdd
 408 609 l 1
 408 1 l 1
 283 1 l 17xdb
285 609 m 1
 482 609 l 1
 482 484 l 1
 285 484 l 1
 285 609 l 1
EndSplineSet
EndChar

StartChar: tml_Number
Encoding: 417 3066 160
Width: 0
VWidth: 0
Flags: HW
LayerCount: 3
Fore
SplineSet
526 827 m 0
 443 827 395 751 395 600 c 0
 456 600 l 1
 456 706 478 764 534 764 c 0
 559 764 568 747 568 737 c 0
 568 695 507 693 507 737 c 0
 507 763.68359375 521 834 587 834 c 0
 663 834 670 734 664 664 c 1
 822 664 l 0
 822 725 l 0
 722 725 l 0
 722 843 664 895 589 895 c 0
 519 895 455 825 455 734 c 0
 455 699 474 643 534 643 c 0
 589 643 629 681 629 729 c 0
 629 798 588.0078125 827 526 827 c 0
EndSplineSet
Refer: 69 2984 N 1 0 0 1 0 0 2
EndChar

StartChar: tml_KU
Encoding: 423 -1 166
Width: 979
VWidth: 0
Flags: HW
LayerCount: 3
Fore
SplineSet
716 380 m 9
 716 255 l 1
 406 255 l 2
 340.0078125 254.795898438 326 245 326 192.940429688 c 0
 326 130.165039062 346 124.977539062 437 125 c 1
 437 -1 l 1
 276 -1 202 69.7568359375 202 161 c 0
 202 222.814453125 l 0
 202 333 315 380 403 380 c 0
 508.666992188 380 610.333007812 380 716 380 c 9
771 254.288085938 m 1
 793.201171875 253.657226562 814 239.790792236 814 189 c 0
 814 39 l 0
 814 -4.6181640625 818.068359375 -56.0908203125 747 -56 c 0
 492 -56 l 9
 492 -181 l 1
 748 -181 l 0
 877 -181 939 -83.9345703125 939 -14.8349609375 c 0
 939 224.165039062 l 2
 939 344.749153308 834.333007812 372.564453125 771 378.498046875 c 1
 771 254.288085938 l 1
437 -56 m 17
 255 -56 l 0
 189.944335938 -55.673828125 165.975585938 -10.4873046875 166 55 c 0
 166 291 l 0
 166 328 169 386 245 386 c 0
 244 511 l 0
 157 511 40 463 40 296 c 0
 40 31 l 0
 40 -111 127.887695312 -181 239 -181 c 0
 437 -181 l 1
 437 -56 l 17
492 -1 m 9
 492 125 l 1
 560 125 591 145.0234375 591 191.940429688 c 0
 591 605 l 1
 716 605 l 1
 716 196 l 2
 716 98.0185546875 663 -1 492 -1 c 9
330 356 m 17
 330 603 l 1
 456 603 l 1
 455 356 l 1
 330 356 l 17
552 609 m 1
 851 609 l 1
 851 484 l 1
 552 484 l 1
 552 609 l 1
330 609 m 1
 496 609 l 1
 496 484 l 1
 330 484 l 1
 330 609 l 1
EndSplineSet
EndChar

StartChar: tml_CU
Encoding: 424 -1 167
Width: 813
VWidth: 0
Flags: HW
HStem: -1 126<175.555 275 330 408.044> 255 63<620 745> 356 24<168 293> 481 125<168 335 390 710>
VStem: 40 124<135.919 247.167> 168 167<481 606> 168 125<380 481> 429 125<145.894 602> 609 164<255 380> 620 125<0 318>
LayerCount: 3
Fore
SplineSet
620 318 m 1xf940
 745 318 l 1
 745 0 l 1
 620 0 l 1
 620 318 l 1xf940
609 380 m 1xf980
 773 380 l 1
 773 255 l 1
 609 255 l 1
 609 380 l 1xf980
550 380 m 9
 550 255 l 1
 244 255 l 2
 178.0078125 254.795898438 164 245 164 192.940429688 c 0
 164 130.165039062 184 124.977539062 275 125 c 1
 275 -1 l 1
 113 -1 40 69.7568359375 40 161 c 0
 40 222.814453125 l 0
 40 333 153 380 241 380 c 0
 550 380 l 9
330 -1 m 9
 330 125 l 1
 398 125 429 145.0234375 429 191.940429688 c 0
 429 605 l 1
 554 605 l 1
 554 196 l 2
 554 98.0185546875 501 -1 330 -1 c 9
168 356 m 17xfb
 168 603 l 1xfd
 294 603 l 1
 293 356 l 1
 168 356 l 17xfb
390 609 m 1
 710 609 l 1
 710 484 l 1
 390 484 l 1
 390 609 l 1
168 609 m 1
 335 609 l 1
 335 484 l 1
 168 484 l 1
 168 609 l 1
EndSplineSet
EndChar

StartChar: tml_NyU
Encoding: 425 -1 168
Width: 1057
VWidth: 0
Flags: W
HStem: -263 96<167.25 194 658 693.361> 1 125.399<184.607 215.208 184.607 215.208 271 305.399 271 305.399> 243.399 125.601<185.607 215.208 185.607 215.208 271 311.607 271 311.607> 483 108<495.208 620.809 495.208 620.809> 483 126<240.208 311.208 240.208 311.208 367.208 495.208 367.208 495.208 620.809 724.208 620.809 724.208>
VStem: 40.0039 126.805<148.601 222.378 148.601 222.378> 40.0039 134.204<317.151 414.733 317.151 414.733> 40.0039 175.204<118.335 126.399 118.335 126.399 243.399 369 243.399 369> 324.484 125.52<149.604 220.572 149.604 220.572> 495.208 125.601<0 591 0 591> 712 125<-154.11 -82 158 204.396>
LayerCount: 3
Fore
SplineSet
837 161 m 1xe0e0
 837 306 751.204101562 331 679.204101562 331 c 1
 679.204101562 206 l 0
 707.204101562 206 713.352539062 205.002929688 713.00390625 158 c 1
 712 -82 l 0
 712 -113 708 -167 658 -167 c 0
 459 -167 l 9
 459 -263 l 1
 659 -263 l 0
 816 -263 837 -149.995117188 837 -82 c 2
 837 161 l 1xe0e0
195 -123 m 2
 1017 -123 l 1
 1017 596.999023438 l 0
 892 596.999023438 l 0
 892 -28 l 1
 195 -28 l 2
 105 -28 40 -58 40 -128 c 0
 40 -162 l 0
 41 -259.200195312 160.00390625 -262.854492188 194 -263 c 2
 404 -263 l 1
 404 -167 l 17
 194 -167 l 2
 155 -167 154 -123 195 -123 c 2
EndSplineSet
Refer: 63 2958 N 1 0 0 1 0 0 2
Refer: 63 2958 N 1 0 0 1 0 0 2
EndChar

StartChar: tml_TtU
Encoding: 426 -1 169
Width: 845
VWidth: 0
Flags: HW
HStem: 0.0654297 125<282 467 626 682>
VStem: 500 126<125.84 236.713> 680 125<-263 0.0654297 125.065 609>
LayerCount: 3
Fore
SplineSet
680 609 m 1
 805 609 l 1
 805 -263 l 1
 680 -263 l 1
 680 609 l 1
326 125 m 1
 682 125.065429688 l 1
 682 0.0654296875 l 1
 326 0 l 1
 326 125 l 1
282 125 m 1
 444 125 l 0
 503 125 500 128.418945312 500 148 c 0
 500 216 l 2
 500 237.028320312 504 236 468 237 c 0
 468 362 l 1
 540 362 626 330 626 235 c 0
 626 114 l 0
 626 44.044921875 563.067382812 0 467 0 c 0
 282 0 l 1
 282 125 l 1
288 180 m 1
 413 180 l 1
 413 603 l 1
 288 603 l 1
 288 180 l 1
40 0 m 9
 165 0 l 1
 165 605 l 1
 40 605 l 1
 40 0 l 9
524 484 m 1
 524 609 l 1
 40 609 l 1
 41 484 l 1
 524 484 l 1
EndSplineSet
EndChar

StartChar: tml_NnU
Encoding: 427 -1 170
Width: 869
VWidth: 0
Flags: HW
HStem: -264 96<167.25 310 365 505.361> -124 95<166.418 704>
VStem: 524 125<-155.112 155 210 255.057> 704 125<-29 595.999>
LayerCount: 3
Fore
SplineSet
365 -168 m 17
 470 -168 l 0
 520 -168 523 -114 523 -83 c 0
 524 155 l 1
 649 155 l 1
 649 -83 l 0
 649 -151 628 -264 471 -264 c 0
 365 -264 l 1
 365 -168 l 17
195 -124 m 2
 154 -124 155 -168 194 -168 c 2
 310 -168 l 9
 310 -264 l 1
 194 -263.200195312 l 2
 160.00390625 -263.0546875 41 -260.200195312 40 -163 c 0
 40 -129 l 0
 40 -59 105 -29 195 -29 c 2
 704 -29 l 1
 704 595.999023438 l 0
 829 595.999023438 l 0
 829 -124 l 1
 195 -124 l 2
524 210 m 10
 649 210 l 1
 649 361 569 383 476 383 c 1
 476 258 l 0
 519 258 524 257 524 210 c 10
308 1 m 1
 436 1 l 1
 435 602 l 5
 310 602 l 5
 308 1 l 1
62 1 m 9
 187 1 l 1
 187 604 l 5
 62 604 l 5
 62 1 l 9
583 484 m 5
 583 609 l 5
 62 609 l 5
 63 484 l 5
 583 484 l 5
EndSplineSet
EndChar

StartChar: tml_TU
Encoding: 428 -1 171
Width: 967
VWidth: 0
Flags: W
HStem: -264 96<167.25 365 420 617.361> -124 284<154 176 636 761> -124 95<166.418 802> 2 126<179.362 282 337 422.562> 258 125<196 254 588 632.339> 359 24<178 251>
VStem: 50 124<133.196 159 215 250.49> 636 125<-155.112 160 215 256.768> 802 125<-29 595.999>
LayerCount: 3
Fore
SplineSet
420 -168 m 17xc380
 582 -168 l 0
 632 -168 635 -114 635 -83 c 0
 636 160 l 1
 761 160 l 1
 761 -83 l 0
 761 -151 740 -264 583 -264 c 0
 420 -264 l 1
 420 -168 l 17xc380
195 -124 m 2xa380
 154 -124 155 -168 194 -168 c 2
 365 -168 l 9
 365 -264 l 1
 194 -263.200195312 l 2
 160.004042677 -263.054793569 41 -260.200195312 40 -163 c 0
 40 -129 l 0
 40 -59 105 -29 195 -29 c 2
 802 -29 l 1
 802 595.999023438 l 0
 927 595.999023438 l 0
 927 -124 l 1
 195 -124 l 2xa380
50 159 m 9
 176 159 l 17
 183.004882812 121.557617188 200.586914062 127.981445312 282 128 c 1
 282 2 l 1x9380
 111.241210938 2 50 64.08984375 50 159 c 9
588 383 m 1x8b80
 251 383 l 2
 164 383 50 336 50 225.814453125 c 0
 50 215 l 9
 174 215 l 17
 174 255.741210938 196 258 254 258 c 2
 588 258 l 1
 631 258 636 262 636 215 c 10
 761 215 l 1
 761 354 675 383 588 383 c 1x8b80
337 2 m 17x9380
 511 2 564 106.018554688 564 199 c 2
 564 605 l 1
 439 605 l 1
 439 194.940429688 l 0
 439 148.0234375 413 128 337 128 c 1
 337 2 l 17x9380
178 359 m 9x8780
 303 359 l 1
 304 603 l 1
 178 603 l 1
 178 359 l 9x8780
398 609 m 1
 398 484 l 1
 699 484 l 1
 699 609 l 1
 398 609 l 1
178 609 m 1
 178 484 l 1
 343 484 l 1
 343 609 l 1
 178 609 l 1
EndSplineSet
EndChar

StartChar: tml_NU
Encoding: 429 -1 172
Width: 1183
VWidth: 0
Flags: HW
HStem: -262 96<167.25 463 518 819.361> -122 95<166.418 1018> 3 125<164 190 245 274 556 582 637 666> 501 126<271 336 343 343 398 533.833 705 766 821 838 894 947> 501 33<838 963>
VStem: 269 125<163.186 367.109> 433.204 125<164 502.999> 661.204 125<164 504> 821 142<501 615.902> 838 125<-153.112 534> 1018 125<-27 597.999>
LayerCount: 3
Fore
SplineSet
838 534 m 5xef60
 963 534 l 5xefa0
 963 -81 l 6
 963 -149 942 -262 785 -262 c 4
 518 -262 l 5
 518 -166 l 21
 784 -166 l 4
 834 -166 838 -112 838 -81 c 4
 838 534 l 5xef60
195 -122 m 6
 154 -122 155 -166 194 -166 c 6
 463 -166 l 13
 463 -262 l 5
 194 -262 l 6
 160.00390625 -261.854492188 41 -258.200195312 40 -161 c 4
 40 -127 l 4
 40 -57 105 -27 195 -27 c 6
 1018 -27 l 5
 1018 597.999023438 l 4
 1143 597.999023438 l 4
 1143 -122 l 5
 195 -122 l 6
821 621 m 5xf7a0
 894 621 l 6xf7a0
 947 621 963 599.442382812 963 550 c 6
 963 495 l 5xefa0
 821 495 l 5
 821 621 l 5xf7a0
766 494.666015625 m 5
 683.220789823 494.666015625 557.997953226 497.894345957 558.204101562 307 c 6
 558.204101562 172 l 4
 558.204101562 160 556 125 582 125 c 5
 582 -0.3203125 l 4
 485 -0.3203125 433.204101562 84 433.204101562 171 c 5
 433.204101562 305 l 6
 433.204101562 614.969928511 705.925163501 620 766 620 c 5
 766 494.666015625 l 5
398 620 m 5
 543 620 786.204101562 610 786.204101562 318 c 6
 786.204101562 171 l 4
 786.204101562 77 736 -0.3203125 637 -0.3203125 c 5
 637 125 l 4
 666 125 661.204101562 160 661.204101562 171 c 4
 661.204101562 307 l 6
 661.204101562 497 533.833007812 494 398 495 c 5
 398 620 l 5
343 620 m 5
 272.282012578 620 41 620.433074857 41 307 c 6
 41 170 l 5
 41 83 93 -1 190 -1 c 4
 190 124 l 5
 164 124 166 159 166 171 c 4
 166 307 l 6
 165.791936848 497.629650369 260.784373264 495 343 495 c 5
 343 620 l 5
302.325195312 457 m 5
 371.166992188 457 394 397.416992188 394 307 c 6
 394 170.185546875 l 4
 394 76.185546875 344 -1 245 -1 c 5
 245 124.185546875 l 4
 274 124.185546875 269 159.185546875 269 170.185546875 c 4
 269 307 l 6
 269 360.109375 237 360 215 360.088867188 c 5
 212 395 244 452 302.325195312 457 c 5
EndSplineSet
EndChar

StartChar: tml_NnnU
Encoding: 430 -1 173
Width: 1577
VWidth: 0
Flags: HW
HStem: -262 96<181.25 668 723 1213.36> -122 95<180.418 1412> -0.320312 125.32<166.11 188 244 266.305 559.096 581 635 657.326 953.096 975 1030 1052.31> 481 53<1232 1357> 483 125<225.522 335 397 494.654 725.724 773 828 888.944 1129.48 1166 1221 1232 1287 1340>
VStem: 40 125<125.818 171 296 409.31> 268 125<127.585 343.418> 432.204 125<126.793 405.058> 660.204 125<128.39 403.77> 826.204 125<127.793 406.058> 1054.2 125<129.39 415.16> 1221 136<481 596.541> 1232 125<-153.112 534> 1412 125<-27 597.999>
LayerCount: 3
Fore
SplineSet
1232 534 m 1xf7ec
 1357 534 l 1xf7f4
 1357 -81 l 2
 1357 -149 1336 -262 1179 -262 c 0
 723 -262 l 1
 723 -166 l 17
 1178 -166 l 0
 1228 -166 1232 -112 1232 -81 c 0
 1232 534 l 1xf7ec
209 -122 m 2
 168 -122 169 -166 208 -166 c 2
 668 -166 l 9
 668 -262 l 1
 208 -262 l 2
 174.00390625 -261.854492188 55 -258.200195312 54 -161 c 0
 54 -127 l 0
 54 -57 119 -27 209 -27 c 2
 1412 -27 l 1
 1412 597.999023438 l 0
 1537 597.999023438 l 0
 1537 -122 l 1
 209 -122 l 2
1221 609 m 1xeff4
 1287 609 l 2xeff4
 1340 609 1357 586.442382812 1357 537 c 2
 1357 482 l 1
 1221 482 l 1xf7f4
 1221 609 l 1xeff4
1166 484.666015625 m 1
 1076.31868325 484.666015625 950.997988583 487.861605033 951.204101562 297 c 2
 951.204101562 173 l 0
 951.204101562 161 949 126 975 126 c 1
 975 0.6796875 l 0
 878 0.6796875 826.204101562 85 826.204101562 172 c 1
 826.204101562 295 l 2
 826.204101562 604.942596272 1099.99105864 609 1166 609 c 1
 1166 484.666015625 l 1
828 609 m 1
 963 609 1179.20410156 600 1179.20410156 308 c 2
 1179.20410156 172 l 0
 1179.20410156 78 1129 0.6796875 1030 0.6796875 c 1
 1030 126 l 0
 1059 126 1054.20410156 161 1054.20410156 172 c 0
 1054.20410156 297 l 2
 1054.20410156 487 953.833007812 484 828 484 c 1
 828 609 l 1
773 483.666015625 m 1
 682.332379955 483.666015625 556.997993534 486.857020353 557.204101562 296 c 2
 557.204101562 172 l 0
 557.204101562 160 555 125 581 125 c 1
 581 -0.3203125 l 0
 484 -0.3203125 432.204101562 84 432.204101562 171 c 1
 432.204101562 294 l 2
 432.204101562 603.945858406 705.993279743 609 773 609 c 1
 773 483.666015625 l 1
397 609 m 1
 542 609 785.204101562 599 785.204101562 307 c 2
 785.204101562 171 l 0
 785.204101562 77 734 -0.3203125 635 -0.3203125 c 1
 635 125 l 0
 664 125 660.204101562 160 660.204101562 171 c 0
 660.204101562 296 l 2
 660.204101562 486 532.833007812 482 397 483 c 1
 397 609 l 1
342 609 m 1
 271.282012578 609 40 609.433074857 40 296 c 2
 40 170 l 1
 40 83 91 -1 188 -1 c 0
 188 124 l 1
 162 124 165 159 165 171 c 0
 165 296 l 2
 164.791957885 486.610375269 259.805201376 483 342 483 c 1
 342 609 l 1
301.325195312 446 m 1
 370.166992188 446 393 386.416992188 393 296 c 2
 393 170.185546875 l 0
 393 76.185546875 343 -1 244 -1 c 1
 244 124.185546875 l 0
 273 124.185546875 268 159.185546875 268 170.185546875 c 0
 268 296 l 2
 268 349.109375 236 349 214 349.088867188 c 1
 211 384 243 441 301.325195312 446 c 1
EndSplineSet
EndChar

StartChar: tml_MU
Encoding: 431 -1 174
Width: 937
VWidth: 0
Flags: HW
HStem: -155 125<184.094 255 403 505> 0 126<421 505 630 671 726 764.878> 109.065 17<296 421> 125 1<505 630> 495 125<636.164 671 726 763.235> 649 125<188.503 244>
VStem: 40 126<-10.7696 56 554 628.836> 296 125<126.065 609.065> 505 125<125.023 491.595> 771 126<133.108 489.748>
LayerCount: 3
Fore
SplineSet
630 15 m 1x8fc0
 630 -58 l 4
 630 -129 589 -182 506 -182 c 4
 403 -182 l 5
 403 -57 l 4
 505 -57 l 4
 505 15 l 1
 630 15 l 1x8fc0
348 -57 m 21
 255 -57 l 4
 189.944335938 -56.673828125 164.975585938 -37.4873046875 165 28 c 4
 165 554 l 0
 165 591 169 649 245 649 c 0
 244 774 l 0
 157 774 40 726 40 559 c 0
 40 29 l 4
 40 -113 127.887695312 -182 239 -182 c 4
 348 -182 l 5
 348 -57 l 21
EndSplineSet
Refer: 78 2990 N 1 0 0 1 256 0 2
EndChar

StartChar: tml_RU
Encoding: 432 -1 175
Width: 979
VWidth: 0
Flags: HW
HStem: -153.498 125<184.094 255 747 798.461> 1 21G<301 426> 388.502 125<188.503 244> 484 125<303 500>
VStem: 40 126<-8.26762 58.502 293.502 368.338> 301 199<484 609> 301 125<1 484> 814 125<-14.355 66.502 191.502 248.207>
LayerCount: 3
Fore
SplineSet
555 609 m 1xd9
 555 484 l 1
 831 484 l 1
 831 609 l 1
 555 609 l 1xd9
772 256.790039062 m 1
 793.201171875 257.159179688 814 242.29296875 814 191.501953125 c 0
 814 37.501953125 l 4
 814 -6.1162109375 818.068359375 -57.5888671875 747 -57.498046875 c 4
 555 -57.498046875 l 13
 555 -182.498046875 l 5
 748 -183.498046875 l 4
 877 -183.498046875 939 -85.4326171875 939 -16.3330078125 c 4
 939 226.666992188 l 2
 939 347.250976562 834.333007812 375.06640625 772 381 c 1
 772 256.790039062 l 1
499 -57.498046875 m 21
 255 -57.498046875 l 4
 189.944335938 -57.171875 165.975585938 -36.9853515625 166 28.501953125 c 4
 166 293.501953125 l 0
 166 330.501953125 169 388.501953125 245 388.501953125 c 0
 244 513.501953125 l 0xe9
 157 513.501953125 40 465.501953125 40 298.501953125 c 0
 40 29.501953125 l 4
 40 -112.498046875 127.887695312 -181.498046875 239 -181.498046875 c 4
 499 -182.498046875 l 5
 499 -57.498046875 l 21
717 605 m 1
 589 605 l 1
 589 1 l 1
 715 1 l 1
 717 605 l 1
301 1 m 17xdb
 301 609 l 1xdd
 426 609 l 1
 426 1 l 1
 301 1 l 17xdb
303 609 m 1
 500 609 l 1
 500 484 l 1
 303 484 l 1
 303 609 l 1
EndSplineSet
EndChar

StartChar: tml_RrU
Encoding: 433 -1 176
Width: 921
VWidth: 0
Flags: HW
HStem: -263 96<140.25 317 372 558.361> -123 95<139.418 756> -0.520508 21G<293.881 418.993> 505.92 120.08<166.852 197 252 290.568 416.97 468 523 573.354>
VStem: 37 131.998<-1.26074 502.519> 293.995 124.998<0.21875 504.124> 577 125<-154.112 502.103> 756 125<-28 596.999>
LayerCount: 3
Fore
SplineSet
577 21.970703125 m 5
 577 -82 l 4
 577 -113 573 -167 523 -167 c 4
 392 -167 l 13
 392 -263 l 5
 524 -263 l 4
 681 -263 702 -149.80859375 702 -82 c 6
 702 18.2724609375 l 6xf6
 702 498.9921875 l 262
 702 554.994140625 649.712890625 621 534 621 c 261
 534 496 l 261
 556.888671875 496 577 493 577 471.168945312 c 262
 577 21.970703125 l 5
190.263671875 468.731445312 m 258
 192.998046875 0.7392578125 l 257
 66 0 l 257
 66 490 l 0xee
 66 541 107.606445312 620.528320312 222 620.5 c 257
 222 495 l 257
 195.995117188 494.844726562 190.247070312 481.536132812 190.263671875 468.731445312 c 258
317.995117188 1.4794921875 m 257
 315.26171875 469.470703125 l 258
 315.180664062 483.66796875 303.868164062 495 277 495 c 257
 277 620.5 l 257
 324.607421875 620.280273438 354.249023438 610.5 379 589.5 c 257
 407.884765625 612.889648438 440.704101562 621 481 621 c 257
 481 496 l 257
 462.677734375 496 440.129882812 492.587890625 440.259765625 470.2109375 c 258
 442.993164062 2.21875 l 257
 317.995117188 1.4794921875 l 257
577 21.970703125 m 1025
702 18.2724609375 m 1025
195 -28 m 4
 105 -28 40 -58 40 -128 c 4
 40 -162 l 4
 41 -259.200195312 160.00390625 -262.854492188 194 -263 c 6
 337 -263 l 5
 337 -167 l 21
 194 -167 l 6
 155 -167 154 -123 195 -123 c 6
 881 -123 l 5
 881 596.999023438 l 4
 756 596.999023438 l 4
 756 -28 l 5
 560 -28 391 -28 195 -28 c 4
EndSplineSet
EndChar

StartChar: tml_LU
Encoding: 434 -1 177
Width: 1106
VWidth: 0
Flags: W
HStem: -263 96<167.254 194.004 707.004 742.365> 0 125.399<189.515 227 283 322.464 625.845 662 717 756.438> 242.399 125.601<188.726 227 283 322.923> 497 124<252.498 316 371.404 438.204>
VStem: 52 126.601<133.424 230.536 231 233.549> 52 134<312.84 426.172> 52 175<117.459 125.399 242.399 368> 330.276 125.724<130.539 236.639> 495.004 125<130.099 169 361.4 435.545> 761.004 125<-154.112 -82 133.582 170 431.933 476.571>
LayerCount: 3
Fore
SplineSet
761.00390625 237 m 1xf1c0
 761.00390625 -82 l 0
 761.00390625 -113 757.00390625 -167 707.00390625 -167 c 0
 472.00390625 -167 l 9
 472.00390625 -263 l 1
 708.00390625 -263 l 0
 865.00390625 -263 886.00390625 -150 886.00390625 -82 c 2
 886.00390625 237 l 1
 761.00390625 237 l 1xf1c0
195.00390625 -123 m 2
 1066.00390625 -123 l 1
 1066.00390625 596.999023438 l 0
 941.00390625 596.999023438 l 0
 941.00390625 -28 l 1
 195.00390625 -28 l 2
 105.00390625 -28 40.00390625 -58 40.00390625 -128 c 0
 40.00390625 -162 l 0
 41.00390625 -259.200195312 160.0078125 -262.854492188 194.00390625 -263 c 2
 417.00390625 -263 l 1
 417.00390625 -167 l 17
 194.00390625 -167 l 2
 155.00390625 -167 154.00390625 -123 195.00390625 -123 c 2
EndSplineSet
Refer: 74 2994 N 1 0 0 1 10 0 2
EndChar

StartChar: tml_LlU
Encoding: 435 -1 178
Width: 1494
VWidth: 0
Flags: HW
HStem: -180 124.502<185.043 256.027 1262.03 1313.49> 0 125.399<524.164 563.027 618.027 657.542> 242.399 125.601<524.753 563.027 618.027 651.973> 453 125<176.796 239.568> 483 126<580.128 652.027 709.027 775.632 976.659 1022.03>
VStem: 40.0273 128<-36.16 30 361.502 446.606> 245.027 125<385.528 450.466> 387.027 176<108.016 125.399 242.399 368> 387.027 135<312.84 420.255> 388.427 126.2<134.702 230.536 231 233.549> 666.303 125.912<133.783 231.8> 831.027 126<363 426.601> 1329.03 125<-41.2907 39.502 191.502 246.559>
LayerCount: 3
Fore
SplineSet
40.02734375 30 m 0xf638
 40.02734375 -110.498046875 128.915039062 -180 240.02734375 -180 c 0
 783.02734375 -180 l 1
 783.02734375 -55.498046875 l 17
 256.02734375 -55.498046875 l 0
 190.971679688 -55.171875 168.002929688 -34.9853515625 168.02734375 29 c 0
 168.02734375 361.501953125 l 2
 168.02734375 429 173.02734375 453 212.02734375 453 c 0
 230.446289062 453 245.02734375 441.579101562 245.02734375 418 c 0
 245.02734375 395.499023438 231.02734375 383 211.02734375 383 c 0
 211.02734375 258 l 1
 298.02734375 258 370.02734375 331.852539062 370.02734375 402 c 0
 370.02734375 431 l 0
 370.02734375 487 317.571289062 578 211.02734375 578 c 0
 201.02734375 578 l 0
 65.02734375 578 39.02734375 458 40.02734375 365 c 2
 40.02734375 30 l 0xf638
1286.02734375 250.790039062 m 1
 1308.22851562 251.159179688 1329.02734375 242.29296875 1329.02734375 191.501953125 c 0
 1329.02734375 39.501953125 l 0
 1329.02734375 -4.1162109375 1333.09570312 -55.5888671875 1262.02734375 -55.498046875 c 0
 838.02734375 -55.498046875 l 9
 838.02734375 -180 l 1
 1263.02734375 -180 l 0
 1392.02734375 -180 1454.02734375 -83.4326171875 1454.02734375 -14.3330078125 c 0
 1454.02734375 226.666992188 l 2
 1454.02734375 337.250976562 1349.36035156 375.06640625 1286.02734375 381 c 1
 1286.02734375 250.790039062 l 1
EndSplineSet
Refer: 73 2995 N 1 0 0 1 346 0 2
EndChar

StartChar: tml_LllU
Encoding: 436 -1 179
Width: 914
VWidth: 0
Flags: HW
HStem: -264 95<211.548 268 441 669> -150 183<481 606> 0 126<398 482 607 648 703 741.878> 109.065 17<273 398> 125 1<482 607> 495 125<613.164 648 703 740.235>
VStem: 53 126<-135.75 -53 541.502 626.606> 273 125<126.065 609.065> 481 125<-150 -123 -28 33> 482 125<125.023 491.595> 601 5<-123 -28> 669 95<-169 -123> 748 126<133.108 489.748>
LayerCount: 3
Fore
SplineSet
293 758 m 1x87
 213 758 l 0
 77 758 49.33203125 638.001953125 50 545 c 2
 53 -53 l 0
 53 -195 140.887695312 -264 252 -264 c 0
 386 -264 l 1
 386 -169 l 17
 268 -169 l 0
 202.944335938 -168.673828125 178.975585938 -119.487304688 179 -54 c 0
 180 541.501953125 l 2
 180.113346612 609.000081885 185 634 224 634 c 1
 293 634 l 0
 293 758 l 1x87
481 33 m 1xc780
 606 33 l 1
 606 -150 l 1
 481 -150 l 1
 481 33 l 1xc780
764 -110 m 2x8730
 764 -178 l 0
 764 -231 738 -264 673 -264 c 0
 441 -264 l 1
 441 -169 l 0
 669 -169 l 0
 669 -123 l 0
 601 -123 l 0
 601 -28 l 1
 679 -28 l 2
 744.075195312 -28 764 -58.859375 764 -110 c 2x8730
EndSplineSet
Refer: 78 2990 N 1 0 0 1 233 0 2
EndChar

StartChar: tml_KUu
Encoding: 437 -1 180
Width: 1180
VWidth: 0
Flags: HW
HStem: -1 126<175.555 275 330 408.044> 22 123<570 608 767 1140> 255 125<178.008 244 293 550 609 639.927> 356 24<168 293> 481 125<168 335 390 710>
VStem: 40 124<135.919 247.167> 168 167<481 606> 168 125<380 481> 429 125<145.894 602> 641 126<146.918 256.713>
LayerCount: 3
Fore
SplineSet
570 145 m 1x4cc0
 1140 145 l 1
 1140 22 l 1
 570 22 l 1
 570 145 l 1x4cc0
570 145 m 1
 591 145 l 0
 638 145 641 153.418945312 641 192 c 0
 641 236 l 2
 641 257.028320312 645 256 609 257 c 0
 609 382 l 1
 681 382 767 350 767 255 c 0x6cc0
 767 134 l 0
 767 64.044921875 688 20 608 20 c 0
 594 20 653.600585938 20 570 20 c 1
 570 145 l 1
550 380 m 9
 550 255 l 1
 244 255 l 2
 178.0078125 254.795898438 164 245 164 192.940429688 c 0
 164 130.165039062 184 124.977539062 275 125 c 1
 275 -1 l 1xacc0
 113 -1 40 69.7568359375 40 161 c 0
 40 222.814453125 l 0
 40 333 153 380 241 380 c 0
 550 380 l 9
330 -1 m 9
 330 125 l 1
 398 125 429 145.0234375 429 191.940429688 c 0
 429 605 l 1
 554 605 l 1
 554 196 l 2
 554 98.0185546875 501 -1 330 -1 c 9
168 356 m 17x1dc0
 168 603 l 1x1ec0
 294 603 l 1
 293 356 l 1
 168 356 l 17x1dc0
390 609 m 1
 710 609 l 1
 710 484 l 1
 390 484 l 1
 390 609 l 1
168 609 m 1
 335 609 l 1
 335 484 l 1
 168 484 l 1
 168 609 l 1
EndSplineSet
EndChar

StartChar: tml_NgUu
Encoding: 438 -1 181
Width: 1063
VWidth: 0
Flags: HW
HStem: -264 95<132.957 167 558 932> -109 95<132.101 200.954 864 932> 0.0654297 125<344 529 688 744>
VStem: 40 90<-166.683 -113.529> 204 90<-145 -113.387> 562 126<125.84 236.713> 742 125<-157 -115 -20 0.0654297 125.065 609> 864 3<-115 -20> 932 91<-169 -115>
LayerCount: 3
Fore
SplineSet
503 -169 m 1xfc80
 165 -169 l 0
 146.944335938 -168.673828125 130 -161 130 -140 c 0
 130 -120 146 -109 169 -109 c 1
 191.193359375 -109.729492188 204 -122 204 -145 c 0
 294 -145 l 0
 294 -137 l 0
 294 -62 246 -14 169 -14 c 1
 96 -14 40 -55 40 -130.614257812 c 0
 40 -155 l 0
 40 -241 120.887695312 -264 167 -264 c 0
 503 -264 l 1
 503 -169 l 1xfc80
1023 -102 m 2
 1023 -178 l 0
 1023 -231 997 -264 932 -264 c 0
 558 -264 l 1
 558 -169 l 0
 932 -169 l 0
 932 -115 l 0
 864 -115 l 0
 864 -20 l 1xfd80
 938 -20 l 2
 1003.07519531 -20 1023 -50.859375 1023 -102 c 2
742 609 m 1xfe80
 867 609 l 1
 867 -157 l 1
 742 -157 l 1
 742 609 l 1xfe80
388 125 m 1
 744 125.065429688 l 1
 744 0.0654296875 l 1
 388 0 l 1
 388 125 l 1
344 125 m 1
 506 125 l 0
 565 125 562 128.418945312 562 148 c 0
 562 216 l 2
 562 237.028320312 566 236 530 237 c 0
 530 362 l 1
 602 362 688 330 688 235 c 0
 688 114 l 0
 688 44.044921875 625.067382812 0 529 0 c 0
 344 0 l 1
 344 125 l 1
350 180 m 1
 475 180 l 1
 475 603 l 1
 350 603 l 1
 350 180 l 1
102 0 m 9
 227 0 l 1
 227 605 l 1
 102 605 l 1
 102 0 l 9
586 484 m 1
 586 609 l 1
 102 609 l 1
 103 484 l 1
 586 484 l 1
EndSplineSet
EndChar

StartChar: tml_CUu
Encoding: 439 -1 182
Width: 1177
VWidth: 0
Flags: HW
HStem: -203 125<184.094 255 945 996.461> -1 126<345.555 445 500 578.044> 255 63<790 915> 356 24<338 463> 369 125<188.503 244> 481 125<338 505 560 880>
VStem: 40 126<-57.7696 9 274 348.836> 210 124<135.919 247.167> 338 167<481 606> 338 125<380 481> 599 125<145.894 602> 790 125<0 318> 1012 125<-63.857 -15 48 92.7621>
LayerCount: 3
Fore
SplineSet
970 96.2880859375 m 1xe338
 991.201171875 96.6572265625 1012 98.791015625 1012 48 c 0
 1012 6 l 4
 1012 -43.6181640625 982.068359375 -57.0908203125 945 -57 c 4
 618 -57 l 13
 618 -182 l 5
 946 -183 l 4
 1075 -183 1137 -84.9345703125 1137 -15.8349609375 c 4
 1137 66.1650390625 l 2
 1137 186.749023438 1032.33300781 214.564453125 970 220.498046875 c 1
 970 96.2880859375 l 1xe338
562 -57 m 21
 255 -57 l 4
 189.944335938 -56.673828125 165.975585938 -36.4873046875 166 29 c 4
 166 274 l 0
 166 311 169 369 245 369 c 0
 244 494 l 0xeb38
 157 494 40 446 40 279 c 0
 40 30 l 4
 40 -112 127.887695312 -181 239 -181 c 4
 562 -182 l 5
 562 -57 l 21
790 318 m 1
 915 318 l 1
 915 0 l 1
 790 0 l 1
 790 318 l 1
720 380 m 1xf338
 977 380 l 1
 977 255 l 1
 720 255 l 1
 720 380 l 1xf338
720 380 m 9
 720 255 l 1
 414 255 l 2
 348.0078125 254.795898438 334 245 334 192.940429688 c 0
 334 130.165039062 354 124.977539062 445 125 c 1
 445 -1 l 1
 283 -1 210 69.7568359375 210 161 c 0
 210 222.814453125 l 0
 210 333 323 380 411 380 c 0
 720 380 l 9
500 -1 m 9
 500 125 l 1
 568 125 599 145.0234375 599 191.940429688 c 0
 599 605 l 1
 724 605 l 1
 724 196 l 2
 724 98.0185546875 671 -1 500 -1 c 9
338 356 m 17xf378
 338 603 l 1xf3b8
 464 603 l 1
 463 356 l 1
 338 356 l 17xf378
560 609 m 1xe738
 880 609 l 1
 880 484 l 1
 560 484 l 1
 560 609 l 1xe738
338 609 m 1xe7b8
 505 609 l 1
 505 484 l 1
 338 484 l 1
 338 609 l 1xe7b8
EndSplineSet
EndChar

StartChar: tml_NyUu
Encoding: 440 -1 183
Width: 1434
VWidth: 0
Flags: W
HStem: -263 96<167.25 194 658 693.361> 1 125.399<184.607 215.208 271 305.399> 243.399 125.601<185.607 215.208 271 311.607> 483 108<495.208 620.809> 483 126<240.208 311.208 367.208 495.208 620.809 724.208>
VStem: 40.0039 126.805<148.601 222.378> 40.0039 134.204<317.151 414.733> 40.0039 175.204<118.335 126.399 243.399 369> 324.484 125.52<149.604 220.572> 495.208 125.601<0 591> 712 125<-154.11 -82 158 204.396>
LayerCount: 3
Fore
SplineSet
1183 -0.0009765625 m 1xe0e0
 1308 -0.0009765625 l 1
 1308 606.999023438 l 1
 1183 606.999023438 l 1
 1183 -0.0009765625 l 1xe0e0
1130 608.999023438 m 1
 1130 483.999023438 l 1
 1394 483.999023438 l 1
 1394 608.999023438 l 1
 1130 608.999023438 l 1
892 608.999023438 m 1
 892 483.999023438 l 1
 1075 483.999023438 l 1
 1075 608.999023438 l 1
 892 608.999023438 l 1
837 161 m 1
 837 306 751.204101562 331 679.204101562 331 c 1
 679.204101562 206 l 0
 707.204101562 206 713.352539062 205.002929688 713.00390625 158 c 1
 712 -82 l 0
 712 -113 708 -167 658 -167 c 0
 459 -167 l 9
 459 -263 l 1
 659 -263 l 0
 816 -263 837 -149.995117188 837 -82 c 2
 837 161 l 1
195 -123 m 2
 1017 -123 l 1
 1017 596.999023438 l 0
 892 596.999023438 l 0
 892 -28 l 1
 195 -28 l 2
 105 -28 40 -58 40 -128 c 0
 40 -162 l 0
 41 -259.200195312 160.00390625 -262.854492188 194 -263 c 2
 404 -263 l 1
 404 -167 l 17
 194 -167 l 2
 155 -167 154 -123 195 -123 c 2
EndSplineSet
Refer: 63 2958 N 1 0 0 1 0 0 2
EndChar

StartChar: tml_TtUu
Encoding: 441 -1 184
Width: 1344
VWidth: 0
Flags: W
HStem: -264 96<167.25 365 420 617.361> -124 284<154 176 636 761> -124 95<166.418 802> 2 126<179.362 282 337 422.562> 258 125<196 254 588 632.339> 359 24<178 251> 483.999 112<802 927> 484 125<927 985>
VStem: 50 124<133.196 159 215 250.49> 636 125<-155.112 160 215 256.768> 802 183<483.999 608.999> 802 125<-29 483.999>
LayerCount: 3
Fore
SplineSet
1093 -0.0009765625 m 1x80c0
 1218 -0.0009765625 l 1
 1218 606.999023438 l 1
 1093 606.999023438 l 1
 1093 -0.0009765625 l 1x80c0
1040 608.999023438 m 1
 1040 483.999023438 l 1
 1304 483.999023438 l 1x82c0
 1304 608.999023438 l 1
 1040 608.999023438 l 1
802 608.999023438 m 1x82e0
 985 608.999023438 l 1
 985 483.999023438 l 1
 802 483.999023438 l 1
 802 608.999023438 l 1x82e0
420 -168 m 17
 582 -168 l 0
 632 -168 635 -114 635 -83 c 0
 636 160 l 1
 761 160 l 1xc0c0
 761 -83 l 0
 761 -151 740 -264 583 -264 c 0
 420 -264 l 1
 420 -168 l 17
195 -124 m 2xa2d0
 154 -124 155 -168 194 -168 c 2
 365 -168 l 9
 365 -264 l 1
 194 -263.200195312 l 2
 160.004042677 -263.054793569 41 -260.200195312 40 -163 c 0
 40 -129 l 0
 40 -59 105 -29 195 -29 c 2
 802 -29 l 1xa2d0
 802 595.999023438 l 0xa2e0
 927 595.999023438 l 0
 927 -124 l 1
 195 -124 l 2xa2d0
50 159 m 9
 176 159 l 17
 183.004882812 121.557617188 200.586914062 127.981445312 282 128 c 1
 282 2 l 1x90c0
 111.241210938 2 50 64.08984375 50 159 c 9
588 383 m 1x88c0
 251 383 l 2
 164 383 50 336 50 225.814453125 c 0
 50 215 l 9
 174 215 l 17
 174 255.741210938 196 258 254 258 c 2
 588 258 l 1
 631 258 636 262 636 215 c 10
 761 215 l 1
 761 354 675 383 588 383 c 1x88c0
337 2 m 17x90c0
 511 2 564 106.018554688 564 199 c 2
 564 605 l 1
 439 605 l 1
 439 194.940429688 l 0
 439 148.0234375 413 128 337 128 c 1
 337 2 l 17x90c0
178 359 m 9x84c0
 303 359 l 1
 304 603 l 1
 178 603 l 1
 178 359 l 9x84c0
398 609 m 1x81c0
 398 484 l 1
 699 484 l 1
 699 609 l 1
 398 609 l 1x81c0
178 609 m 1
 178 484 l 1
 343 484 l 1
 343 609 l 1
 178 609 l 1
EndSplineSet
EndChar

StartChar: tml_NnUu
Encoding: 442 -1 185
Width: 1246
VWidth: 0
Flags: HW
LayerCount: 3
Fore
SplineSet
995 0 m 1
 1120 0 l 1
 1120 607 l 1
 995 607 l 1
 995 0 l 1
942 609 m 1
 942 484 l 1
 1206 484 l 1
 1206 609 l 1
 942 609 l 1
704 609 m 1
 887 609 l 1
 887 484 l 1
 704 484 l 1
 704 609 l 1
365 -168 m 17
 470 -168 l 0
 520 -168 523 -114 523 -83 c 0
 524 155 l 1
 649 155 l 1
 649 -83 l 0
 649 -151 628 -264 471 -264 c 0
 365 -264 l 1
 365 -168 l 17
195 -124 m 2
 154 -124 155 -168 194 -168 c 2
 310 -168 l 9
 310 -264 l 1
 194 -263.200195312 l 2
 160.00390625 -263.0546875 41 -260.200195312 40 -163 c 0
 40 -129 l 0
 40 -59 105 -29 195 -29 c 2
 704 -29 l 1
 704 595.999023438 l 0
 829 595.999023438 l 0
 829 -124 l 1
 195 -124 l 2
524 210 m 9
 649 210 l 1
 649 210 l 0
 649 361 569 383 476 383 c 1
 476 258 l 0
 519 258 524 257 524 210 c 2
 524 210 l 9
308 0 m 1
 436 0 l 1
 435 603 l 1
 310 603 l 1
 308 0 l 1
62 0 m 9
 187 0 l 1
 187 605 l 1
 62 605 l 1
 62 0 l 9
583 484 m 1
 583 609 l 1
 62 609 l 1
 63 484 l 1
 583 484 l 1
EndSplineSet
EndChar

StartChar: tml_TUu
Encoding: 443 -1 186
Width: 812
VWidth: 0
Flags: HW
HStem: -205 125<184.094 339 394 536.428> 0 21G<298 423> 114 125<417 558.578> 507 125<579.528 644.466> 710 126<238.562 636.887>
VStem: 40 126<-60.7696 630.073> 298 125<0 114 239 606> 417 6<114 239> 562 127<-54.276 111.169> 647 125<637.459 700.201>
LayerCount: 3
Fore
SplineSet
341 710 m 6xfc40
 163 710 165 580 165 499 c 0
 165 5 l 0
 164.975585938 -60.4873046875 189.944335938 -79.673828125 255 -80 c 0
 339 -80 l 9
 339 -205 l 1
 239 -205 l 0
 127.887695312 -205 40 -136 40 6 c 0
 40 504 l 0
 40 761 141 836 340 836 c 6
 488 836 l 6
 648.501953125 836 772 812 772 676 c 4
 772 666 l 4
 772 559.456054688 681 507 625 507 c 4
 596 507 l 4
 525.852539062 507 452 579 452 666 c 5
 577 666 l 4
 577 646 589.499023438 632 612 632 c 4
 635.579101562 632 647 646.581054688 647 665 c 4
 647 704 628.501953125 710 484.501953125 710 c 6
 341 710 l 6xfc40
687 70 m 2xfd80
 687 0 l 0
 687 -108 608 -205 480 -205 c 0
 394 -205 l 1
 394 -80 l 0
 477 -80 l 0
 523 -80 562 -52 562 1 c 0
 562 70 l 0
 561.799804688 99.9580078125 551 114 521 114 c 0
 417 114 l 0
 417 239 l 1
 520 239 l 2
 629.075195312 239 687 160.140625 687 70 c 2xfd80
298 0 m 17xfe
 298 606 l 1xfe
 423 607 l 1xfd
 423 0 l 1
 298 0 l 17xfe
EndSplineSet
EndChar

StartChar: tml_NUu
Encoding: 444 -1 187
Width: 1560
VWidth: 0
Flags: HW
HStem: -262 96<167.25 463 518 819.361> -122 95<166.418 1018> 3 125<164 190 245 274 556 582 637 666> 484 125<1143 1201> 484 113.999<1018 1143> 501 126<271 336 343 343 398 533.833 705 766 821 838 894 947> 501 33<838 963>
VStem: 269 125<163.186 367.109> 433.204 125<164 502.999> 661.204 125<164 504> 821 142<501 615.902> 838 125<-153.112 534> 1018 183<484 609> 1018 125<-27 484>
LayerCount: 3
Fore
SplineSet
1309 0 m 1xe1c0
 1434 0 l 1
 1434 607 l 1
 1309 607 l 1
 1309 0 l 1xe1c0
1256 609 m 1xf1c0
 1256 484 l 1
 1520 484 l 1xe9c0
 1520 609 l 1
 1256 609 l 1xf1c0
1018 609 m 1xf1c8
 1201 609 l 1
 1201 484 l 1xf1c8
 1018 484 l 1xe9c8
 1018 609 l 1xf1c8
EndSplineSet
Refer: 172 -1 N 1 0 0 1 0 0 2
EndChar

StartChar: tml_NnnUu
Encoding: 445 -1 188
Width: 1954
VWidth: 0
Flags: HW
HStem: -262 96<181.25 668 723 1213.36> -122 95<180.418 1412> -0.320312 125.32<166.11 188 244 266.305 559.096 581 635 657.326 953.096 975 1030 1052.31> 481 53<1232 1357> 484 125<225.522 335 397 494.654 725.724 773 828 888.944 1129.48 1166 1221 1232 1537 1595> 484 113.999<1412 1537>
VStem: 40 125<125.818 171 296 409.31> 268 125<127.585 343.418> 432.204 125<126.793 405.058> 660.204 125<128.39 403.77> 826.204 125<127.793 406.058> 1054.2 125<129.39 415.16> 1221 136<481 596.541> 1232 125<-153.112 534> 1412 183<484 609> 1412 125<-27 484>
LayerCount: 3
Fore
SplineSet
1703 0 m 1xe3f0
 1828 0 l 1
 1828 607 l 1
 1703 607 l 1
 1703 0 l 1xe3f0
1650 609 m 1xebf0
 1650 484 l 1
 1914 484 l 1xe7f0
 1914 609 l 1
 1650 609 l 1xebf0
1412 609 m 1xebf2
 1595 609 l 1
 1595 484 l 1xebf2
 1412 484 l 1xe7f2
 1412 609 l 1xebf2
EndSplineSet
Refer: 173 -1 N 1 0 0 1 0 0 2
EndChar

StartChar: tml_PUu
Encoding: 446 -1 189
Width: 775
VWidth: 0
Flags: HW
HStem: -264 95<119.957 154 631 631> -109 95<119.101 187.954> 1 125.065<222 304> 109.065 17<97 222>
VStem: 27 90<-166.683 -113.529> 97 125<126.065 609> 97 207<1 126.065> 191 90<-145 -113.387> 563 4<-115 -20>
LayerCount: 3
Fore
SplineSet
304 -169 m 1xc980
 152 -169 l 0
 133.944335938 -168.673828125 117 -161 117 -140 c 0
 117 -120 133 -109 156 -109 c 1
 178.193359375 -109.729492188 191 -122 191 -145 c 0
 281 -145 l 0
 281 -137 l 0
 281 -62 233 -14 156 -14 c 1
 83 -14 27 -55 27 -130.614257812 c 0
 27 -155 l 0
 27 -241 107.887695312 -264 154 -264 c 0
 304 -264 l 1
 304 -169 l 1xc980
722 -102 m 2
 722 -50.859375 702.075195312 -20 637 -20 c 2
 563 -20 l 1
 563 -115 l 0
 631 -115 l 0
 631 -169 l 0
 361 -169 l 0
 361 -264 l 1
 631 -264 l 0
 696 -264 722 -231 722 -178 c 0
 722 -102 l 2
442 7 m 1
 442 -146.5 l 1
 567 -146.5 l 1
 567 7 l 1
 442 7 l 1
EndSplineSet
Refer: 65 2986 N 1 0 0 1 57 0 2
EndChar

StartChar: tml_MUu
Encoding: 447 -1 190
Width: 1041
VWidth: 0
Flags: HW
HStem: -155 125<185.043 256.027 507.027 609.027> 0 126<525 609 734 775 830 868.878> 109.065 17<400 525> 125 1<609 734> 453 125<176.796 239.568> 495 125<740.164 775 830 867.235>
VStem: 40.0273 128<-11.3375 55 361.502 446.606> 245.027 125<385.528 450.466> 400 125<126.065 609.065> 609 125<125.023 491.595> 875 126<133.108 489.748>
LayerCount: 3
Fore
SplineSet
40.02734375 28 m 0x8be0
 40.02734375 -113 128.915039062 -182 240.02734375 -182 c 0
 452.02734375 -182 l 1
 452.02734375 -57 l 17
 256.02734375 -57 l 0
 190.971679688 -56.673828125 168.002929688 -37.4873046875 168.02734375 27 c 0
 168.02734375 361.501953125 l 2
 168.02734375 429 173.02734375 453 212.02734375 453 c 0
 230.446289062 453 245.02734375 441.579101562 245.02734375 418 c 0
 245.02734375 395.499023438 231.02734375 383 211.02734375 383 c 0
 211.02734375 258 l 1
 298.02734375 258 370.02734375 331.852539062 370.02734375 402 c 0
 370.02734375 431 l 0
 370.02734375 487 317.571289062 578 211.02734375 578 c 0
 201.02734375 578 l 0
 65.02734375 578 39.02734375 458 40.02734375 365 c 2
 40.02734375 28 l 0x8be0
734.02734375 15 m 1
 734.02734375 -58 l 0
 734.02734375 -129 693.02734375 -182 610.02734375 -182 c 0
 507.02734375 -182 l 1
 507.02734375 -57 l 0
 609.02734375 -57 l 0
 609.02734375 15 l 1
 734.02734375 15 l 1
EndSplineSet
Refer: 78 2990 N 1 0 0 1 360 0 2
EndChar

StartChar: tml_YUu
Encoding: 448 -1 191
Width: 991
VWidth: 0
Flags: W
HStem: -264 95<132.957 167 501 860> -109 95<132.101 200.954 775 860> 0 122<249.325 282 337 398.891 534.23 569 624 658.809>
VStem: 40 90<-166.683 -113.529> 122 125<123.936 609> 204 90<-145 -113.387> 409 125<126.295 609> 624 160<0 122> 659 125<-146.5 -115 -20 172 122.45 609> 775 9<-115 -20> 860 91<-169 -115>
LayerCount: 3
Fore
SplineSet
446 -169 m 1xf620
 165 -169 l 0
 146.944335938 -168.673828125 130 -161 130 -140 c 0
 130 -120 146 -109 169 -109 c 1
 191.193359375 -109.729492188 204 -122 204 -145 c 0
 294 -145 l 0
 294 -137 l 0
 294 -62 246 -14 169 -14 c 1
 96 -14 40 -55 40 -130.614257812 c 0
 40 -155 l 0
 40 -241 120.887695312 -264 167 -264 c 0
 446 -264 l 1
 446 -169 l 1xf620
951 -102 m 2
 951 -178 l 0
 951 -231 925 -264 860 -264 c 0
 501 -264 l 1
 501 -169 l 0
 860 -169 l 0
 860 -115 l 0
 775 -115 l 0
 775 -20 l 1xe260
 866 -20 l 2
 931.075195312 -20 951 -50.859375 951 -102 c 2
784 -146.5 m 9xe2a0
 659 -146.5 l 1
 659 172 l 1
 784 172 l 1
 784 -146.5 l 9xe2a0
EndSplineSet
Refer: 60 2991 N 1 0 0 1 82 0 2
EndChar

StartChar: tml_RUu
Encoding: 449 -1 192
Width: 1062
VWidth: 0
Flags: HW
HStem: -153.498 125<184.094 255 830 881.461> 1 21G<384 509> 329 125<174.802 237.541> 484 125<386 583>
VStem: 40 126<-8.26762 58.502 225.502 324.559> 243 125<261.528 326.466> 384 199<484 609> 384 125<1 484> 897 125<-14.355 66.502 191.502 248.207>
LayerCount: 3
Fore
SplineSet
638 609 m 1xfc80
 638 484 l 1
 914 484 l 1
 914 609 l 1
 638 609 l 1xfc80
855 256.790039062 m 1
 876.201171875 257.159179688 897 242.29296875 897 191.501953125 c 0
 897 37.501953125 l 0
 897 -6.1162109375 901.068359375 -57.5888671875 830 -57.498046875 c 0
 638 -57.498046875 l 9
 638 -182 l 1
 831 -182 l 0
 960 -182 1022 -85.4326171875 1022 -16.3330078125 c 0
 1022 226.666992188 l 2
 1022 347.250976562 917.333007812 375.06640625 855 381 c 1
 855 256.790039062 l 1
582 -57.498046875 m 17
 255 -57.498046875 l 0
 189.944335938 -57.171875 165.975585938 -36.9853515625 166 28.501953125 c 0
 166 237.501953125 l 2
 166 304.96875 171 329 210 329 c 0
 228.418945312 329 243 317.579101562 243 294 c 0
 243 271.499023438 229 259 209 259 c 0
 209 134 l 1
 296 134 368 207.852539062 368 278 c 0
 368 307 l 0
 368 363 315.543945312 454 209 454 c 0
 199 454 l 0
 63 454 40 318.6640625 40 225.501953125 c 2
 40 29.501953125 l 0
 40 -112.498046875 127.887695312 -182 239 -182 c 0
 582 -182 l 1
 582 -57.498046875 l 17
800 605 m 1
 672 605 l 1
 672 1 l 1
 798 1 l 1
 800 605 l 1
384 1 m 17xfd80
 384 609 l 1xfe80
 509 609 l 1
 509 1 l 1
 384 1 l 17xfd80
386 609 m 1
 583 609 l 1
 583 484 l 1
 386 484 l 1
 386 609 l 1
EndSplineSet
EndChar

StartChar: tml_RrUu
Encoding: 450 -1 193
Width: 1325
VWidth: 0
Flags: HW
HStem: -263 96<167.25 344 399 585.361> -123 95<166.418 783> -0.520508 21G<320.881 445.993> 484.999 125<908 966> 484.999 112<783 908> 505.92 120.08<193.852 224 279 317.568 443.97 495 550 600.354>
VStem: 64 131.998<-1.26074 502.519> 320.995 124.998<0.21875 504.124> 604 125<-154.112 502.103> 783 183<484.999 609.999> 783 125<-28 484.999>
LayerCount: 3
Fore
SplineSet
1074 0.9990234375 m 1xe380
 1199 0.9990234375 l 1
 1199 607.999023438 l 1
 1074 607.999023438 l 1
 1074 0.9990234375 l 1xe380
1021 609.999023438 m 1xf380
 1021 484.999023438 l 1
 1285 484.999023438 l 1xeb80
 1285 609.999023438 l 1
 1021 609.999023438 l 1xf380
783 609.999023438 m 1xf3c0
 783 484.999023438 l 1xebc0
 966 484.999023438 l 1xf3c0
 966 609.999023438 l 1
 783 609.999023438 l 1xf3c0
EndSplineSet
Refer: 176 -1 N 1 0 0 1 27 0 2
EndChar

StartChar: tml_LUu
Encoding: 451 -1 194
Width: 1483
VWidth: 0
Flags: W
HStem: -263 96<167.254 194.004 707.004 742.365> 0 125.399<189.515 227 283 322.464 625.845 662 717 756.438> 242.399 125.601<188.726 227 283 322.923> 497 124<252.498 316 371.404 438.204>
VStem: 52 126.601<133.424 230.536 231 233.549> 52 134<312.84 426.172> 52 175<117.459 125.399 242.399 368> 330.276 125.724<130.539 236.639> 495.004 125<130.099 169 361.4 435.545> 761.004 125<-154.112 -82 133.582 170 431.933 476.571>
LayerCount: 3
Fore
SplineSet
1232 1 m 1xf1c0
 1357 1 l 1
 1357 608 l 1
 1232 608 l 1
 1232 1 l 1xf1c0
1179 610 m 1
 1179 485 l 1
 1443 485 l 1
 1443 610 l 1
 1179 610 l 1
941 610 m 1
 941 485 l 1
 1124 485 l 1
 1124 610 l 1
 941 610 l 1
761.00390625 237 m 1
 761.00390625 -82 l 0
 761.00390625 -113 757.00390625 -167 707.00390625 -167 c 0
 472.00390625 -167 l 9
 472.00390625 -263 l 1
 708.00390625 -263 l 0
 865.00390625 -263 886.00390625 -150 886.00390625 -82 c 2
 886.00390625 237 l 1
 761.00390625 237 l 1
195.00390625 -123 m 2
 1066.00390625 -123 l 1
 1066.00390625 596.999023438 l 0
 941.00390625 596.999023438 l 0
 941.00390625 -28 l 1
 195.00390625 -28 l 2
 105.00390625 -28 40.00390625 -58 40.00390625 -128 c 0
 40.00390625 -162 l 0
 41.00390625 -259.200195312 160.0078125 -262.854492188 194.00390625 -263 c 2
 417.00390625 -263 l 1
 417.00390625 -167 l 17
 194.00390625 -167 l 2
 155.00390625 -167 154.00390625 -123 195.00390625 -123 c 2
EndSplineSet
Refer: 74 2994 N 1 0 0 1 10 0 2
EndChar

StartChar: tml_LlUu
Encoding: 452 -1 195
Width: 1380
VWidth: 0
Flags: HW
HStem: -153 124.502<184.094 255 1148 1199.46> 0 125.399<410.137 449 504 543.515> 242.399 125.601<410.726 449 504 537.946> 388.502 125<188.503 244> 483 126<466.101 538 595 661.605 862.632 908>
VStem: 40 126<-8.30701 58.502 293.502 368.338> 273 176<108.016 125.399 242.399 368> 273 135<312.84 420.255> 274.4 126.2<134.702 230.536 231 233.549> 552.276 125.912<133.783 231.8> 717 126<363 426.601> 1215 125<-14.2907 66.502 191.502 246.559>
LayerCount: 3
Fore
SplineSet
1172 250.790039062 m 1xe470
 1194.20117188 251.159179688 1215 242.29296875 1215 191.501953125 c 0
 1215 37.501953125 l 0
 1215 -6.1162109375 1219.06835938 -57.5888671875 1148 -57.498046875 c 0
 724 -57.498046875 l 9
 724 -182 l 1
 1149 -182 l 0
 1278 -182 1340 -85.4326171875 1340 -16.3330078125 c 0
 1340 226.666992188 l 2
 1340 337.250976562 1235.33300781 375.06640625 1172 381 c 1
 1172 250.790039062 l 1xe470
669 -57.498046875 m 17
 255 -57.498046875 l 0
 189.944335938 -57.171875 165.975585938 -36.9853515625 166 28.501953125 c 0
 166 293.501953125 l 0
 166 330.501953125 169 388.501953125 245 388.501953125 c 0
 244 513.501953125 l 0xf470
 157 513.501953125 40 465.501953125 40 298.501953125 c 0
 40 29.501953125 l 0
 40 -112.498046875 127.887695312 -182 239 -182 c 0
 669 -182 l 1
 669 -57.498046875 l 17
EndSplineSet
Refer: 73 2995 N 1 0 0 1 232 -3 2
EndChar

StartChar: tml_LllUu
Encoding: 453 -1 196
Width: 1028
VWidth: 0
Flags: HW
HStem: -264 95<199.518 256.013 555.013 783.013> -150 183<595.013 720.013> 2 126<512 596 721 762 817 855.878> 111.065 17<387 512> 127 1<596 721> 453 125<176.785 239.553> 497 125<727.164 762 817 854.235>
VStem: 40.0127 128<-135.75 -53 361.502 446.606> 245.013 125<385.528 450.466> 387 125<128.065 611.065> 595.013 125<-150 -123 -28 33> 596 125<127.023 493.595> 715.013 5<-123 -28> 783.013 95<-169 -123> 862 126<135.108 491.748>
LayerCount: 3
Fore
SplineSet
40.0126953125 -53 m 0x85c0
 40.0126953125 -195 128.900390625 -264 240.012695312 -264 c 0
 500.012695312 -264 l 1
 500.012695312 -169 l 17
 256.012695312 -169 l 0
 190.95703125 -168.673828125 167.98828125 -119.487304688 168.012695312 -54 c 0
 168.012695312 361.501953125 l 2
 168.174804688 429 173.012695312 453 212.012695312 453 c 0
 230.431640625 453 245.012695312 441.579101562 245.012695312 418 c 0
 245.012695312 395.499023438 231.012695312 383 211.012695312 383 c 0
 211.012695312 258 l 1
 298.012695312 258 370.012695312 331.852539062 370.012695312 402 c 0
 370.012695312 431 l 0
 370.012695312 487 317.556640625 578 211.012695312 578 c 0
 201.012695312 578 l 0
 65.0126953125 578 39.3447265625 458.001953125 40.0126953125 365 c 2
 40.0126953125 -53 l 0x85c0
595.012695312 33 m 1xc1e0
 720.012695312 33 l 1
 720.012695312 -150 l 1
 595.012695312 -150 l 1
 595.012695312 33 l 1xc1e0
878.012695312 -110 m 2x81cc
 878.012695312 -178 l 0
 878.012695312 -231 852.012695312 -264 787.012695312 -264 c 0
 555.012695312 -264 l 1
 555.012695312 -169 l 0
 783.012695312 -169 l 0
 783.012695312 -123 l 0
 715.012695312 -123 l 0
 715.012695312 -28 l 1
 793.012695312 -28 l 2
 858.087890625 -28 878.012695312 -58.859375 878.012695312 -110 c 2x81cc
EndSplineSet
Refer: 78 2990 N 1 0 0 1 347 2 2
EndChar

StartChar: tml_KSsa
Encoding: 454 -1 197
Width: 1053
VWidth: 0
Flags: HW
LayerCount: 3
Fore
SplineSet
502 -171 m 1xc980
 165 -171 l 0
 146.944335938 -170.673828125 130 -163 130 -142 c 0
 130 -122 146 -111 169 -111 c 1
 191.193359375 -111.729492188 204 -124 204 -147 c 0
 294 -147 l 0
 294 -139 l 0
 294 -64 246 -16 169 -16 c 1
 96 -16 40 -57 40 -132.614257812 c 0
 40 -157 l 0
 40 -243 120.887695312 -266 167 -266 c 0
 502 -266 l 1
 502 -171 l 1xc980
1013 -104 m 2
 1013 -180 l 0
 1013 -233 987 -266 922 -266 c 0
 557 -266 l 1
 557 -171 l 0
 922 -171 l 0
 922 -117 l 0
 854 -117 l 0
 854 -22 l 1
 928 -22 l 2
 993.075195312 -22 1013 -52.859375 1013 -104 c 2
731.208007812 610 m 1
 857.80859375 610 l 1
 857.80859375 -146.80078125 l 1
 731.208007812 -146.80078125 l 1
 731.208007812 610 l 1
EndSplineSet
Refer: 62 2997 N 1 0 0 1 3 0 2
EndChar

StartChar: tml_Shree
Encoding: 455 -1 198
Width: 0
VWidth: 0
Flags: HW
LayerCount: 3
Fore
SplineSet
438 621 m 5
 438 496 l 5
 302 485 328 241 499 114.0234375 c 5
 342 101 l 5
 149 259 197.001953125 621 438 621 c 5
543 -204 m 5
 542 440 l 4
 542 464 537 496 493 496 c 5
 493 621 l 5
 590 621 669 553 669 457 c 4
 669 -204 l 5
 543 -204 l 5
28 125 m 5
 747 125 l 5
 747 0 l 5
 28 0 l 5
 28 125 l 5
28 610 m 5
 153 610 l 5
 153 180 l 5
 28 180 l 5
 28 610 l 5
EndSplineSet
EndChar

StartChar: tml_NnAa.alt
Encoding: 456 -1 199
Width: 0
VWidth: 0
Flags: W
LayerCount: 3
Fore
SplineSet
559 564 m 1
 559 626 l 0
 559.024414062 691.487304688 514.055664062 710.673828125 449 711 c 0
 245 711 l 1
 169 711 166 653 166 616 c 0
 166 5 l 0
 165.975585938 -60.4873046875 189.944335938 -79.673828125 255 -80 c 0
 339 -80 l 9
 339 -205 l 1
 239 -205 l 0
 127.887695312 -205 40 -136 40 6 c 0
 40 621 l 0
 40 788 157 836 244 836 c 1
 465 836 l 0
 602.112304688 836 685 767 685 625 c 0
 685 564 l 2
 559 564 l 1
689 142 m 2
 689 0 l 0
 689 -108 608 -205 480 -205 c 0
 394 -205 l 1
 394 -80 l 0
 477 -80 l 0
 523 -80 562 -52 562 1 c 0
 562 142 l 0
 561.799804688 171.958007812 551 186 521 186 c 0
 478 186 l 0
 478 311 l 1
 520 311 l 2
 629.075195312 311 689 232.140625 689 142 c 2
298 0 m 17
 298 606 l 1
 423 607 l 1
 423 0 l 1
 298 0 l 17
EndSplineSet
EndChar

StartChar: tml_NnnAa.alt
Encoding: 457 -1 200
Width: 0
VWidth: 0
Flags: W
LayerCount: 3
Fore
SplineSet
730 -264.5 m 9xe8
 605 -264.5 l 1
 605 172 l 1
 730 172 l 1
 730 -264.5 l 9xe8
EndSplineSet
Refer: 60 2991 N 1 0 0 1 28 0 2
EndChar

StartChar: tml_RrAa.alt
Encoding: 458 -1 201
Width: 0
VWidth: 0
Flags: W
LayerCount: 3
Fore
SplineSet
726.211914062 610 m 1
 852.8125 610 l 1
 852.8125 -260.80078125 l 1
 726.211914062 -260.80078125 l 1
 726.211914062 610 l 1
EndSplineSet
Refer: 62 2997 N 1 0 0 1 -0.996204 0 2
EndChar

StartChar: tml_MatraI.alt1
Encoding: 459 -1 202
Width: 0
VWidth: 0
Flags: W
LayerCount: 3
Fore
SplineSet
40 109.065429688 m 1x60
 40 611.065429688 l 1
 165 611.065429688 l 1
 165 109.065429688 l 1x50
 40 109.065429688 l 1x60
398 1 m 1
 398 -264.5 l 1
 523 -264.5 l 1
 523 610.565429688 l 1
 398 610.565429688 l 1
 398 126 l 1
 309 126 l 1
 309 1 l 1
 398 1 l 1
40 126 m 1x60
 254 126 l 1
 254 1.0654296875 l 1
 40 1.0654296875 l 1xa0
 40 126 l 1x60
EndSplineSet
EndChar

StartChar: tml_MatraI.alt2
Encoding: 460 -1 203
Width: 0
VWidth: 0
Flags: W
LayerCount: 3
Fore
SplineSet
438 496 m 5
 302 485 328 241 499 114.0234375 c 5
 342 101 l 5
 149 259 197.001953125 621 438 621 c 4
 514.978651104 620.450152492 620.498046875 587.087293141 620.498046875 455 c 4
 620.498046875 358.456054688 541 296 473.498046875 296 c 4
 409 296 357 349 353 370 c 5
 425.498046875 455 l 4
 425.498046875 439 434.997070312 421 460.498046875 421 c 4
 484.077148438 421 495.498046875 439.581054688 495.498046875 454 c 4
 495.498046875 493 462 496 438 496 c 5
28 125 m 1
 747 125 l 1
 747 0 l 1
 28 0 l 1
 28 125 l 1
28 610 m 1
 153 610 l 1
 153 180 l 1
 28 180 l 1
 28 610 l 1
EndSplineSet
EndChar

